M48
;DRILL file {kicad (2015-01-16 BZR 5376)-product} date 6/20/2015 12:26:38 PM
;FORMAT={-:-/ absolute / metric / decimal}
FMAT,2
METRIC,TZ
T1C0.762
T2C0.800
T3C0.813
T4C0.850
T5C0.889
T6C1.001
T7C1.016
T8C1.143
T9C1.199
T10C1.200
T11C1.298
T12C1.500
T13C1.524
T14C2.500
T15C2.984
T16C3.000
T17C3.048
%
G90
G05
M71
T1
X43.198Y-93.728
X44.214Y-88.394
X48.532Y-103.634
X79.012Y-62.486
X79.012Y-64.264
X83.33Y-84.838
X95.268Y-101.602
X96.284Y-102.618
X131.844Y-35.816
X136.416Y-52.453
T2
X133.114Y-24.894
X133.114Y-40.134
X135.654Y-24.894
X135.654Y-40.134
X138.194Y-24.894
X138.194Y-40.134
X140.734Y-24.894
X140.734Y-40.134
X143.274Y-24.894
X143.274Y-40.134
X145.814Y-24.894
X145.814Y-40.134
X148.354Y-24.894
X148.354Y-40.134
X150.894Y-24.894
X150.894Y-40.134
X153.434Y-24.894
X153.434Y-40.134
X155.974Y-24.894
X155.974Y-40.134
X158.514Y-24.894
X158.514Y-40.134
X161.054Y-24.894
X161.054Y-40.134
X163.594Y-24.894
X163.594Y-40.134
X166.134Y-24.894
X166.134Y-40.134
X168.674Y-24.894
X168.674Y-40.134
X171.214Y-24.894
X171.214Y-40.134
X173.754Y-24.894
X173.754Y-40.134
X176.294Y-24.894
X176.294Y-40.134
X178.834Y-24.894
X178.834Y-40.134
X181.374Y-24.894
X181.374Y-40.134
T3
X70.884Y-114.302
X70.884Y-119.382
X70.884Y-123.7
X70.884Y-128.78
X100.729Y-114.937
X100.729Y-123.827
X100.729Y-132.717
X100.729Y-141.607
X105.809Y-114.937
X105.809Y-123.827
X105.809Y-132.717
X105.809Y-141.607
X107.079Y-108.46
X109.619Y-108.46
X110.254Y-114.937
X110.254Y-123.827
X110.254Y-132.717
X110.254Y-141.607
X112.159Y-108.46
X114.699Y-108.46
X115.334Y-114.937
X115.334Y-123.827
X115.334Y-132.717
X115.334Y-141.607
X117.239Y-108.46
X119.779Y-108.46
X119.779Y-114.937
X119.779Y-123.827
X119.779Y-132.717
X119.779Y-141.607
X122.319Y-108.46
X124.859Y-108.46
X124.859Y-114.937
X124.859Y-123.827
X124.859Y-132.717
X124.859Y-141.607
X127.399Y-108.46
X129.304Y-114.937
X129.304Y-123.827
X129.304Y-132.717
X129.304Y-141.607
X134.384Y-114.937
X134.384Y-123.827
X134.384Y-132.717
X134.384Y-141.607
X164.174Y-110.142
X164.174Y-112.682
X164.174Y-115.222
X164.174Y-117.762
X164.174Y-123.142
X164.174Y-125.682
X164.174Y-128.222
X164.174Y-130.762
X171.794Y-110.142
X171.794Y-112.682
X171.794Y-115.222
X171.794Y-117.762
X171.794Y-123.142
X171.794Y-125.682
X171.794Y-128.222
X171.794Y-130.762
X180.104Y-66.55
X180.104Y-74.17
X182.644Y-66.55
X182.644Y-74.17
X185.184Y-66.55
X185.184Y-74.17
X187.724Y-66.55
X187.724Y-74.17
X190.264Y-66.55
X190.264Y-74.17
X192.804Y-66.55
X192.804Y-74.17
X195.344Y-66.55
X195.344Y-74.17
X197.884Y-66.55
X197.884Y-74.17
X207.282Y-83.314
X207.282Y-85.854
X207.282Y-88.394
X207.282Y-90.934
X207.282Y-93.474
X207.282Y-96.014
X207.282Y-98.554
X207.282Y-101.094
X207.282Y-103.634
X211.346Y-85.854
X211.346Y-88.394
X211.346Y-90.934
X211.346Y-93.474
X211.346Y-96.014
X211.346Y-98.554
X211.346Y-101.094
X211.346Y-103.634
X218.966Y-85.854
X218.966Y-88.394
X218.966Y-90.934
X218.966Y-93.474
X218.966Y-96.014
X218.966Y-98.554
X218.966Y-101.094
X218.966Y-103.634
T4
X149.624Y-82.552
X149.624Y-85.092
X149.624Y-87.632
X149.624Y-90.172
X149.624Y-92.712
X149.624Y-95.252
X149.624Y-97.792
X149.624Y-100.332
X149.624Y-102.872
X149.624Y-105.412
X149.624Y-107.952
X149.624Y-110.492
X149.624Y-113.032
X149.624Y-115.572
X149.624Y-118.112
X149.624Y-120.652
X149.624Y-123.192
X149.624Y-125.732
X149.624Y-128.272
X149.624Y-130.812
X157.714Y-112.952
X160.254Y-112.952
X185.184Y-82.552
X185.184Y-85.092
X185.184Y-87.632
X185.184Y-90.172
X185.184Y-92.712
X185.184Y-95.252
X185.184Y-97.792
X185.184Y-100.332
X185.184Y-102.872
X185.184Y-105.412
X185.184Y-107.952
X185.184Y-110.492
X185.184Y-113.032
X185.184Y-115.572
X185.184Y-118.112
X185.184Y-120.652
X185.184Y-123.192
X185.184Y-125.732
X185.184Y-128.272
X185.184Y-130.812
T5
X44.468Y-65.28
X45.992Y-29.72
X48.133Y-36.83
X48.133Y-38.608
X48.26Y-34.671
X48.26Y-40.386
X48.26Y-42.418
X48.26Y-44.577
X48.532Y-53.088
X51.58Y-61.978
X51.834Y-70.106
X53.866Y-56.644
X57.168Y-68.328
X58.692Y-60.708
X58.946Y-55.12
X58.946Y-72.392
X59.454Y-27.18
X59.454Y-130.558
X59.454Y-132.844
X59.708Y-74.932
X59.708Y-93.22
X63.518Y-55.12
X65.804Y-106.174
X67.582Y-60.2
X67.582Y-78.488
X67.582Y-104.396
X68.09Y-102.872
X68.344Y-83.822
X68.852Y-105.666
X73.424Y-103.634
X79.248Y-136.779
X79.266Y-54.358
X79.52Y-52.072
X79.52Y-56.39
X79.52Y-58.422
X79.52Y-60.2
X86.106Y-45.339
X86.868Y-37.592
X87.122Y-39.751
X87.376Y-35.433
X87.648Y-51.31
X88.918Y-28.45
X88.918Y-54.612
X89.662Y-35.433
X90.17Y-126.365
X90.188Y-57.406
X93.49Y-100.84
X97.282Y-28.829
X110.49Y-78.105
X142.004Y-42.928
X149.624Y-52.58
X152.908Y-139.573
X154.958Y-42.928
X162.324Y-52.58
X167.404Y-42.928
X171.976Y-54.612
X177.673Y-136.271
X179.324Y-95.123
X182.484Y-29.452
X185.484Y-59.452
X190.627Y-135.89
X195.58Y-137.287
X198.501Y-136.652
X203.327Y-110.109
T6
X164.184Y-100.952
X171.784Y-100.952
T7
X46.119Y-115.572
X46.119Y-118.747
X46.119Y-123.827
X46.119Y-127.002
X46.119Y-132.082
X46.119Y-135.257
X48.659Y-115.572
X48.659Y-118.747
X48.659Y-123.827
X48.659Y-127.002
X48.659Y-132.082
X48.659Y-135.257
X51.199Y-115.572
X51.199Y-118.747
X51.199Y-123.827
X51.199Y-127.002
X51.199Y-132.082
X51.199Y-135.257
X51.984Y-141.952
X53.739Y-115.572
X53.739Y-118.747
X53.739Y-123.827
X53.739Y-127.002
X53.739Y-132.082
X53.739Y-135.257
X54.984Y-141.952
X57.984Y-141.952
X58.724Y-89.452
X61.264Y-89.452
X63.804Y-89.452
X66.344Y-89.452
X68.884Y-89.452
X71.424Y-89.452
X72.154Y-96.522
X73.964Y-89.452
X74.694Y-96.522
X76.504Y-89.452
X77.234Y-96.522
X77.488Y-119.89
X77.488Y-122.43
X77.996Y-132.336
X79.044Y-89.452
X79.774Y-96.522
X79.984Y-29.952
X79.984Y-32.492
X79.984Y-35.032
X79.984Y-37.572
X79.984Y-40.112
X79.984Y-42.652
X79.984Y-45.192
X80.536Y-132.336
X81.584Y-89.452
X82.314Y-96.522
X83.076Y-132.336
X84.124Y-89.452
X84.854Y-96.522
X86.664Y-89.452
X87.394Y-96.522
X89.204Y-89.452
X89.662Y-132.207
X89.934Y-96.522
X91.744Y-89.452
X92.202Y-132.207
X92.22Y-142.242
X94.284Y-89.452
X94.742Y-132.207
X94.76Y-142.242
X95.014Y-96.522
X96.824Y-89.452
X97.554Y-96.522
X98.044Y-60.198
X99.364Y-89.452
X100.094Y-96.522
X100.584Y-60.198
X101.904Y-89.452
X102.634Y-96.522
X103.124Y-60.198
X104.444Y-89.452
X105.174Y-96.522
X105.664Y-60.198
X106.984Y-89.452
X108.204Y-60.198
X109.619Y-104.904
X110.254Y-96.522
X110.744Y-60.198
X112.159Y-104.904
X112.794Y-96.522
X114.699Y-104.904
X115.334Y-96.522
X117.239Y-104.904
X117.874Y-96.522
X119.779Y-104.904
X120.414Y-96.522
X122.319Y-104.904
X124.859Y-104.904
X125.984Y-96.647
X126.51Y-23.116
X126.51Y-25.656
X126.51Y-28.196
X126.51Y-30.736
X126.51Y-33.276
X126.51Y-35.816
X126.51Y-38.356
X126.51Y-40.896
X126.51Y-48.262
X126.51Y-50.802
X126.51Y-53.342
X126.51Y-55.882
X127.399Y-104.904
X128.524Y-96.647
X131.064Y-96.647
X132.098Y-105.158
X133.604Y-96.647
X134.638Y-105.158
X142.004Y-82.552
X142.004Y-85.092
X142.004Y-87.632
X142.004Y-90.172
X142.004Y-92.712
X142.004Y-95.252
X142.004Y-97.792
X142.004Y-100.332
X142.004Y-102.872
X142.004Y-105.412
X142.004Y-107.952
X142.004Y-110.492
X142.004Y-113.032
X142.004Y-115.572
X142.004Y-118.112
X142.004Y-120.652
X142.004Y-123.192
X142.004Y-125.732
X142.004Y-128.272
X142.004Y-130.812
X187.706Y-42.926
X187.706Y-45.466
X192.278Y-143.637
X192.804Y-82.552
X192.804Y-85.092
X192.804Y-87.632
X192.804Y-90.172
X192.804Y-92.712
X192.804Y-95.252
X192.804Y-97.792
X192.804Y-100.332
X192.804Y-102.872
X192.804Y-105.412
X192.804Y-107.952
X192.804Y-110.492
X192.804Y-113.032
X192.804Y-115.572
X192.804Y-118.112
X192.804Y-120.652
X192.804Y-123.192
X192.804Y-125.732
X192.804Y-128.272
X192.804Y-130.812
X194.818Y-143.637
X197.358Y-143.637
X200.406Y-143.637
X202.964Y-85.854
X202.964Y-88.394
X202.964Y-90.934
X202.964Y-93.474
X202.964Y-96.014
X202.964Y-98.554
X202.964Y-101.094
X202.964Y-103.634
X204.234Y-114.556
X204.234Y-117.096
X204.234Y-119.636
X204.234Y-122.176
X204.234Y-124.716
X204.234Y-127.256
X204.234Y-129.796
X204.234Y-132.336
X205.74Y-143.891
X206.984Y-66.952
X206.984Y-69.492
X206.984Y-72.032
X206.984Y-74.572
X208.28Y-143.891
X210.82Y-143.891
X213.36Y-143.891
T8
X57.984Y-99.412
X57.984Y-101.952
X57.984Y-104.492
T9
X71.392Y-142.242
X73.891Y-137.203
X76.391Y-142.242
X76.98Y-110.746
X79.479Y-105.707
X81.298Y-142.242
X81.979Y-110.746
X83.797Y-137.203
X86.297Y-142.242
X89.172Y-110.746
X91.671Y-105.707
X94.171Y-110.746
T10
X50.564Y-23.878
X53.104Y-23.878
X55.644Y-23.878
X58.184Y-23.878
X60.724Y-23.878
X63.264Y-23.878
X65.804Y-23.878
X68.344Y-23.878
X70.884Y-23.878
X73.424Y-23.878
X75.964Y-23.878
X78.504Y-23.878
X81.044Y-23.878
X83.584Y-23.878
X86.124Y-23.878
X88.664Y-23.878
T11
X167.984Y-71.952
X167.984Y-91.952
T12
X45.984Y-53.952
X45.984Y-61.952
T13
X193.983Y-35.952
X193.983Y-51.952
X195.985Y-29.953
X195.985Y-41.951
X195.985Y-45.953
X195.985Y-57.951
X207.983Y-29.953
X207.983Y-41.951
X207.983Y-45.953
X207.983Y-57.951
X215.984Y-30.872
X215.984Y-35.952
X215.984Y-41.032
X215.984Y-46.872
X215.984Y-51.952
X215.984Y-57.032
X215.984Y-62.412
X215.984Y-67.492
X215.984Y-73.412
X215.984Y-78.492
T14
X45.065Y-23.878
X120.063Y-23.878
X120.063Y-54.879
T15
X51.984Y-106.452
T16
X51.984Y-97.452
T17
X44.984Y-23.952
X44.984Y-142.952
X57.484Y-30.452
X57.484Y-44.452
X131.844Y-84.457
X218.984Y-23.952
X218.984Y-142.952
T6
X49.749Y-75.965G85X49.749Y-77.963
G05
X51.749Y-81.663G85X53.748Y-81.663
G05
X55.748Y-75.965G85X55.748Y-77.963
G05
T0
M30
