G04 #@! TF.FileFunction,Soldermask,Bot*
%FSLAX46Y46*%
G04 Gerber Fmt 4.6, Leading zero omitted, Abs format (unit mm)*
G04 Created by KiCad (PCBNEW (2015-01-16 BZR 5376)-product) date 6/20/2015 12:23:26 PM*
%MOMM*%
G01*
G04 APERTURE LIST*
%ADD10C,0.100000*%
%ADD11C,0.254000*%
%ADD12R,2.300000X2.300000*%
%ADD13C,2.500000*%
%ADD14O,1.651000X4.000000*%
%ADD15O,1.800000X2.600000*%
%ADD16C,3.000000*%
%ADD17O,2.200000X1.800000*%
%ADD18R,1.727200X2.032000*%
%ADD19O,1.727200X2.032000*%
%ADD20R,1.600000X2.000000*%
%ADD21R,1.574800X2.286000*%
%ADD22O,1.574800X2.286000*%
%ADD23R,2.540000X2.540000*%
%ADD24C,2.540000*%
%ADD25R,2.032000X1.727200*%
%ADD26O,2.032000X1.727200*%
%ADD27R,3.500120X3.500120*%
%ADD28C,4.064000*%
%ADD29R,2.235200X2.235200*%
%ADD30R,1.397000X1.397000*%
%ADD31C,1.397000*%
%ADD32C,2.499360*%
%ADD33R,2.286000X1.574800*%
%ADD34O,2.286000X1.574800*%
%ADD35C,1.600000*%
%ADD36C,2.000000*%
%ADD37C,1.948180*%
%ADD38R,2.032000X2.032000*%
%ADD39O,2.032000X2.032000*%
%ADD40C,1.778000*%
%ADD41R,1.778000X1.778000*%
%ADD42C,3.810000*%
%ADD43C,3.800000*%
%ADD44O,1.524000X2.524000*%
G04 APERTURE END LIST*
D10*
X42000000Y-142900000D02*
X42000000Y-23950000D01*
X218950000Y-145950000D02*
X45000000Y-145950000D01*
D11*
X207046286Y-24311429D02*
X206901143Y-24359810D01*
X206852762Y-24408190D01*
X206804381Y-24504952D01*
X206804381Y-24650095D01*
X206852762Y-24746857D01*
X206901143Y-24795238D01*
X206997905Y-24843619D01*
X207384952Y-24843619D01*
X207384952Y-23827619D01*
X207046286Y-23827619D01*
X206949524Y-23876000D01*
X206901143Y-23924381D01*
X206852762Y-24021143D01*
X206852762Y-24117905D01*
X206901143Y-24214667D01*
X206949524Y-24263048D01*
X207046286Y-24311429D01*
X207384952Y-24311429D01*
X206610857Y-24940381D02*
X205836762Y-24940381D01*
X205594857Y-24843619D02*
X205594857Y-23827619D01*
X205256191Y-24553333D01*
X204917524Y-23827619D01*
X204917524Y-24843619D01*
X204482095Y-24553333D02*
X203998286Y-24553333D01*
X204578857Y-24843619D02*
X204240190Y-23827619D01*
X203901524Y-24843619D01*
X203611238Y-24795238D02*
X203466095Y-24843619D01*
X203224191Y-24843619D01*
X203127429Y-24795238D01*
X203079048Y-24746857D01*
X203030667Y-24650095D01*
X203030667Y-24553333D01*
X203079048Y-24456571D01*
X203127429Y-24408190D01*
X203224191Y-24359810D01*
X203417714Y-24311429D01*
X203514476Y-24263048D01*
X203562857Y-24214667D01*
X203611238Y-24117905D01*
X203611238Y-24021143D01*
X203562857Y-23924381D01*
X203514476Y-23876000D01*
X203417714Y-23827619D01*
X203175810Y-23827619D01*
X203030667Y-23876000D01*
X202595238Y-24843619D02*
X202595238Y-23827619D01*
X202014667Y-24843619D02*
X202450095Y-24263048D01*
X202014667Y-23827619D02*
X202595238Y-24408190D01*
D10*
X41984000Y-142952000D02*
G75*
G03X44984000Y-145952000I3000000J0D01*
G01*
X44984000Y-20952000D02*
G75*
G03X41984000Y-23952000I0J-3000000D01*
G01*
X221984000Y-23952000D02*
G75*
G03X218984000Y-20952000I-3000000J0D01*
G01*
X218984000Y-145952000D02*
G75*
G03X221984000Y-142952000I0J3000000D01*
G01*
X218984000Y-145952000D02*
G75*
G03X221984000Y-142952000I0J3000000D01*
G01*
X221984000Y-23952000D02*
X221984000Y-142952000D01*
X44984000Y-20952000D02*
X218984000Y-20952000D01*
D12*
X57984000Y-141952000D03*
D13*
X54984000Y-141952000D03*
X51984000Y-141952000D03*
D14*
X49583960Y-141952000D03*
X60384040Y-141952000D03*
D15*
X50564000Y-23878000D03*
X53104000Y-23878000D03*
X55644000Y-23878000D03*
X58184000Y-23878000D03*
X60724000Y-23878000D03*
X63264000Y-23878000D03*
X65804000Y-23878000D03*
X68344000Y-23878000D03*
X70884000Y-23878000D03*
X73424000Y-23878000D03*
X75964000Y-23878000D03*
X78504000Y-23878000D03*
X81044000Y-23878000D03*
X83584000Y-23878000D03*
X86124000Y-23878000D03*
X88664000Y-23878000D03*
D16*
X45064900Y-23878000D03*
X120063480Y-54878700D03*
X120063480Y-23878000D03*
D17*
X149624000Y-82552000D03*
X149624000Y-85092000D03*
X149624000Y-87632000D03*
X149624000Y-90172000D03*
X149624000Y-92712000D03*
X149624000Y-95252000D03*
X149624000Y-97792000D03*
X149624000Y-100332000D03*
X149624000Y-102872000D03*
X149624000Y-105412000D03*
X149624000Y-107952000D03*
X149624000Y-110492000D03*
X149624000Y-113032000D03*
X149624000Y-115572000D03*
X149624000Y-118112000D03*
X149624000Y-120652000D03*
X149624000Y-123192000D03*
X149624000Y-125732000D03*
X149624000Y-128272000D03*
X149624000Y-130812000D03*
X185184000Y-130812000D03*
X185184000Y-128272000D03*
X185184000Y-125732000D03*
X185184000Y-123192000D03*
X185184000Y-120652000D03*
X185184000Y-118112000D03*
X185184000Y-115572000D03*
X185184000Y-113032000D03*
X185184000Y-110492000D03*
X185184000Y-107952000D03*
X185184000Y-105412000D03*
X185184000Y-102872000D03*
X185184000Y-100332000D03*
X185184000Y-97792000D03*
X185184000Y-95252000D03*
X185184000Y-92712000D03*
X185184000Y-90172000D03*
X185184000Y-87632000D03*
X185184000Y-85092000D03*
X185184000Y-82552000D03*
D18*
X106984000Y-89452000D03*
D19*
X104444000Y-89452000D03*
X101904000Y-89452000D03*
X99364000Y-89452000D03*
X96824000Y-89452000D03*
X94284000Y-89452000D03*
X91744000Y-89452000D03*
X89204000Y-89452000D03*
X86664000Y-89452000D03*
X84124000Y-89452000D03*
X81584000Y-89452000D03*
X79044000Y-89452000D03*
X76504000Y-89452000D03*
X73964000Y-89452000D03*
X71424000Y-89452000D03*
X68884000Y-89452000D03*
X66344000Y-89452000D03*
X63804000Y-89452000D03*
X61264000Y-89452000D03*
X58724000Y-89452000D03*
D18*
X98044000Y-60198000D03*
D19*
X100584000Y-60198000D03*
X103124000Y-60198000D03*
X105664000Y-60198000D03*
X108204000Y-60198000D03*
X110744000Y-60198000D03*
D20*
X49040000Y-59914000D03*
X49040000Y-55914000D03*
X51834000Y-59914000D03*
X51834000Y-55914000D03*
D21*
X180104000Y-74170000D03*
D22*
X182644000Y-74170000D03*
X185184000Y-74170000D03*
X187724000Y-74170000D03*
X190264000Y-74170000D03*
X192804000Y-74170000D03*
X195344000Y-74170000D03*
X197884000Y-74170000D03*
X197884000Y-66550000D03*
X195344000Y-66550000D03*
X192804000Y-66550000D03*
X190264000Y-66550000D03*
X187724000Y-66550000D03*
X185184000Y-66550000D03*
X182644000Y-66550000D03*
X180104000Y-66550000D03*
D23*
X215984000Y-41032000D03*
D24*
X215984000Y-35952000D03*
X215984000Y-30872000D03*
D23*
X215984000Y-57032000D03*
D24*
X215984000Y-51952000D03*
X215984000Y-46872000D03*
D25*
X202964000Y-103634000D03*
D26*
X202964000Y-101094000D03*
X202964000Y-98554000D03*
X202964000Y-96014000D03*
X202964000Y-93474000D03*
X202964000Y-90934000D03*
X202964000Y-88394000D03*
X202964000Y-85854000D03*
D18*
X109619000Y-104904000D03*
D19*
X112159000Y-104904000D03*
X114699000Y-104904000D03*
X117239000Y-104904000D03*
X119779000Y-104904000D03*
X122319000Y-104904000D03*
X124859000Y-104904000D03*
X127399000Y-104904000D03*
D25*
X206984000Y-66952000D03*
D26*
X206984000Y-69492000D03*
X206984000Y-72032000D03*
X206984000Y-74572000D03*
D25*
X204234000Y-132336000D03*
D26*
X204234000Y-129796000D03*
X204234000Y-127256000D03*
X204234000Y-124716000D03*
X204234000Y-122176000D03*
X204234000Y-119636000D03*
X204234000Y-117096000D03*
X204234000Y-114556000D03*
D23*
X215984000Y-78492000D03*
D24*
X215984000Y-73412000D03*
D23*
X215984000Y-67492000D03*
D24*
X215984000Y-62412000D03*
D18*
X192278000Y-143637000D03*
D19*
X194818000Y-143637000D03*
X197358000Y-143637000D03*
D27*
X55748140Y-76964000D03*
X49748660Y-76964000D03*
X52748400Y-81663000D03*
D18*
X46119000Y-115572000D03*
D19*
X48659000Y-115572000D03*
X51199000Y-115572000D03*
X53739000Y-115572000D03*
D18*
X46119000Y-123827000D03*
D19*
X48659000Y-123827000D03*
X51199000Y-123827000D03*
X53739000Y-123827000D03*
D18*
X46119000Y-132082000D03*
D19*
X48659000Y-132082000D03*
X51199000Y-132082000D03*
X53739000Y-132082000D03*
D28*
X131844000Y-84457000D03*
X44984000Y-23952000D03*
X218984000Y-142952000D03*
X44984000Y-142952000D03*
X218984000Y-23952000D03*
D25*
X126510000Y-48262000D03*
D26*
X126510000Y-50802000D03*
X126510000Y-53342000D03*
X126510000Y-55882000D03*
D25*
X126510000Y-23116000D03*
D26*
X126510000Y-25656000D03*
X126510000Y-28196000D03*
X126510000Y-30736000D03*
X126510000Y-33276000D03*
X126510000Y-35816000D03*
X126510000Y-38356000D03*
X126510000Y-40896000D03*
D29*
X200406000Y-143637000D03*
D18*
X77996000Y-132336000D03*
D19*
X80536000Y-132336000D03*
X83076000Y-132336000D03*
D18*
X46119000Y-118747000D03*
D19*
X48659000Y-118747000D03*
X51199000Y-118747000D03*
X53739000Y-118747000D03*
D18*
X46119000Y-127002000D03*
D19*
X48659000Y-127002000D03*
X51199000Y-127002000D03*
X53739000Y-127002000D03*
D18*
X46119000Y-135257000D03*
D19*
X48659000Y-135257000D03*
X51199000Y-135257000D03*
X53739000Y-135257000D03*
D18*
X120414000Y-96522000D03*
D19*
X117874000Y-96522000D03*
X115334000Y-96522000D03*
X112794000Y-96522000D03*
X110254000Y-96522000D03*
D18*
X205740000Y-143891000D03*
D19*
X208280000Y-143891000D03*
X210820000Y-143891000D03*
X213360000Y-143891000D03*
D30*
X107079000Y-108460000D03*
D31*
X109619000Y-108460000D03*
X112159000Y-108460000D03*
X114699000Y-108460000D03*
X117239000Y-108460000D03*
X119779000Y-108460000D03*
X122319000Y-108460000D03*
X124859000Y-108460000D03*
X127399000Y-108460000D03*
D30*
X207282000Y-83314000D03*
D31*
X207282000Y-85854000D03*
X207282000Y-88394000D03*
X207282000Y-90934000D03*
X207282000Y-93474000D03*
X207282000Y-96014000D03*
X207282000Y-98554000D03*
X207282000Y-101094000D03*
X207282000Y-103634000D03*
D32*
X73891360Y-137202640D03*
X76390720Y-142242000D03*
X71392000Y-142242000D03*
X83797360Y-137202640D03*
X86296720Y-142242000D03*
X81298000Y-142242000D03*
X79479360Y-105706640D03*
X81978720Y-110746000D03*
X76980000Y-110746000D03*
X91671360Y-105706640D03*
X94170720Y-110746000D03*
X89172000Y-110746000D03*
D33*
X211346000Y-85854000D03*
D34*
X211346000Y-88394000D03*
X211346000Y-90934000D03*
X211346000Y-93474000D03*
X211346000Y-96014000D03*
X211346000Y-98554000D03*
X211346000Y-101094000D03*
X211346000Y-103634000D03*
X218966000Y-103634000D03*
X218966000Y-101094000D03*
X218966000Y-98554000D03*
X218966000Y-96014000D03*
X218966000Y-93474000D03*
X218966000Y-90934000D03*
X218966000Y-88394000D03*
X218966000Y-85854000D03*
D35*
X45984000Y-53952000D03*
X45984000Y-61952000D03*
D36*
X171783840Y-100952000D03*
X164184160Y-100952000D03*
D31*
X100729000Y-114937000D03*
X105809000Y-114937000D03*
X110254000Y-114937000D03*
X115334000Y-114937000D03*
X119779000Y-114937000D03*
X124859000Y-114937000D03*
X129304000Y-114937000D03*
X134384000Y-114937000D03*
X100729000Y-123827000D03*
X105809000Y-123827000D03*
X110254000Y-123827000D03*
X115334000Y-123827000D03*
X119779000Y-123827000D03*
X124859000Y-123827000D03*
X129304000Y-123827000D03*
X134384000Y-123827000D03*
X100729000Y-132717000D03*
X105809000Y-132717000D03*
X110254000Y-132717000D03*
X115334000Y-132717000D03*
X119779000Y-132717000D03*
X124859000Y-132717000D03*
X129304000Y-132717000D03*
X134384000Y-132717000D03*
X100729000Y-141607000D03*
X105809000Y-141607000D03*
X110254000Y-141607000D03*
X115334000Y-141607000D03*
X119779000Y-141607000D03*
X124859000Y-141607000D03*
X129304000Y-141607000D03*
X134384000Y-141607000D03*
X70884000Y-119382000D03*
X70884000Y-114302000D03*
X70884000Y-128780000D03*
X70884000Y-123700000D03*
D33*
X164174000Y-123142000D03*
D34*
X164174000Y-125682000D03*
X164174000Y-128222000D03*
X164174000Y-130762000D03*
X171794000Y-130762000D03*
X171794000Y-128222000D03*
X171794000Y-125682000D03*
X171794000Y-123142000D03*
D33*
X164174000Y-110142000D03*
D34*
X164174000Y-112682000D03*
X164174000Y-115222000D03*
X164174000Y-117762000D03*
X171794000Y-117762000D03*
X171794000Y-115222000D03*
X171794000Y-112682000D03*
X171794000Y-110142000D03*
D37*
X167984000Y-91951960D03*
X167984000Y-71952000D03*
D38*
X187706000Y-45466000D03*
D39*
X187706000Y-42926000D03*
D38*
X132098000Y-105158000D03*
D39*
X134638000Y-105158000D03*
D24*
X195984520Y-29952520D03*
X193983000Y-35952000D03*
X207983480Y-29952520D03*
X207983480Y-41951480D03*
X195984520Y-41951480D03*
X195984520Y-45952520D03*
X193983000Y-51952000D03*
X207983480Y-45952520D03*
X207983480Y-57951480D03*
X195984520Y-57951480D03*
D40*
X57984000Y-104492000D03*
D41*
X57984000Y-101952000D03*
D40*
X57984000Y-99412000D03*
D42*
X51984000Y-106452000D03*
D43*
X51984000Y-97452000D03*
D38*
X94760000Y-142242000D03*
D39*
X92220000Y-142242000D03*
D25*
X79984000Y-29952000D03*
D26*
X79984000Y-32492000D03*
X79984000Y-35032000D03*
X79984000Y-37572000D03*
X79984000Y-40112000D03*
X79984000Y-42652000D03*
X79984000Y-45192000D03*
D18*
X72154000Y-96522000D03*
D19*
X74694000Y-96522000D03*
X77234000Y-96522000D03*
X79774000Y-96522000D03*
X82314000Y-96522000D03*
X84854000Y-96522000D03*
X87394000Y-96522000D03*
X89934000Y-96522000D03*
D18*
X95014000Y-96522000D03*
D19*
X97554000Y-96522000D03*
X100094000Y-96522000D03*
X102634000Y-96522000D03*
X105174000Y-96522000D03*
D38*
X77488000Y-119890000D03*
D39*
X77488000Y-122430000D03*
D44*
X145814000Y-40134000D03*
X148354000Y-40134000D03*
X150894000Y-40134000D03*
X153434000Y-40134000D03*
X155974000Y-40134000D03*
X155974000Y-24894000D03*
X153434000Y-24894000D03*
X150894000Y-24894000D03*
X148354000Y-24894000D03*
X145814000Y-24894000D03*
X158514000Y-40134000D03*
X161054000Y-40134000D03*
X163594000Y-40134000D03*
X166134000Y-40134000D03*
X168674000Y-40134000D03*
X168674000Y-24894000D03*
X166134000Y-24894000D03*
X163594000Y-24894000D03*
X161054000Y-24894000D03*
X158514000Y-24894000D03*
X171214000Y-40134000D03*
X173754000Y-40134000D03*
X176294000Y-40134000D03*
X178834000Y-40134000D03*
X181374000Y-40134000D03*
X181374000Y-24894000D03*
X178834000Y-24894000D03*
X176294000Y-24894000D03*
X173754000Y-24894000D03*
X171214000Y-24894000D03*
D25*
X142004000Y-82552000D03*
D26*
X142004000Y-85092000D03*
X142004000Y-87632000D03*
X142004000Y-90172000D03*
X142004000Y-92712000D03*
X142004000Y-95252000D03*
X142004000Y-97792000D03*
X142004000Y-100332000D03*
X142004000Y-102872000D03*
X142004000Y-105412000D03*
X142004000Y-107952000D03*
X142004000Y-110492000D03*
X142004000Y-113032000D03*
X142004000Y-115572000D03*
X142004000Y-118112000D03*
X142004000Y-120652000D03*
X142004000Y-123192000D03*
X142004000Y-125732000D03*
X142004000Y-128272000D03*
X142004000Y-130812000D03*
D25*
X192804000Y-82552000D03*
D26*
X192804000Y-85092000D03*
X192804000Y-87632000D03*
X192804000Y-90172000D03*
X192804000Y-92712000D03*
X192804000Y-95252000D03*
X192804000Y-97792000D03*
X192804000Y-100332000D03*
X192804000Y-102872000D03*
X192804000Y-105412000D03*
X192804000Y-107952000D03*
X192804000Y-110492000D03*
X192804000Y-113032000D03*
X192804000Y-115572000D03*
X192804000Y-118112000D03*
X192804000Y-120652000D03*
X192804000Y-123192000D03*
X192804000Y-125732000D03*
X192804000Y-128272000D03*
X192804000Y-130812000D03*
D36*
X160254000Y-112952000D03*
X157714000Y-112952000D03*
D44*
X133114000Y-40134000D03*
X135654000Y-40134000D03*
X138194000Y-40134000D03*
X140734000Y-40134000D03*
X143274000Y-40134000D03*
X143274000Y-24894000D03*
X140734000Y-24894000D03*
X138194000Y-24894000D03*
X135654000Y-24894000D03*
X133114000Y-24894000D03*
D18*
X125984000Y-96647000D03*
D19*
X128524000Y-96647000D03*
X131064000Y-96647000D03*
X133604000Y-96647000D03*
D28*
X57484000Y-30452000D03*
X57484000Y-44452000D03*
D18*
X94742000Y-132207000D03*
D19*
X92202000Y-132207000D03*
X89662000Y-132207000D03*
M02*
