  0
SECTION
  2
HEADER
  9
$ANGBASE
  50
0.0
  9
$ANGDIR
  70
  1
  9
$MEASUREMENT
  70
0
  0
ENDSEC
  0
SECTION
  2
TABLES
  0
TABLE
  2
LTYPE
  70
1
  0
LTYPE
  2
CONTINUOUS
  70
0
  3
Solid line
  72
65
  73
0
  40
0.0
  0
ENDTAB
  0
TABLE
  2
STYLE
  70
4
  0
STYLE
  2
KICAD
  70
0
  40
0
  41
1
  42
1
  50
0
  71
0
  3
isocp.shx
  0
STYLE
  2
KICADB
  70
0
  40
0
  41
1
  42
1
  50
0
  71
0
  3
isocp.shx
  0
STYLE
  2
KICADI
  70
0
  40
0
  41
1
  42
1
  50
15
  71
0
  3
isocp.shx
  0
STYLE
  2
KICADBI
  70
0
  40
0
  41
1
  42
1
  50
15
  71
0
  3
isocp.shx
  0
ENDTAB
  0
TABLE
  2
LAYER
  70
30
  0
LAYER
  2
BLACK
  70
0
  62
7
  6
CONTINUOUS
  0
LAYER
  2
GRAY1
  70
0
  62
251
  6
CONTINUOUS
  0
LAYER
  2
GRAY2
  70
0
  62
8
  6
CONTINUOUS
  0
LAYER
  2
GRAY3
  70
0
  62
9
  6
CONTINUOUS
  0
LAYER
  2
WHITE
  70
0
  62
7
  6
CONTINUOUS
  0
LAYER
  2
LYELLOW
  70
0
  62
51
  6
CONTINUOUS
  0
LAYER
  2
BLUE1
  70
0
  62
178
  6
CONTINUOUS
  0
LAYER
  2
GREEN1
  70
0
  62
98
  6
CONTINUOUS
  0
LAYER
  2
CYAN1
  70
0
  62
138
  6
CONTINUOUS
  0
LAYER
  2
RED1
  70
0
  62
18
  6
CONTINUOUS
  0
LAYER
  2
MAGENTA1
  70
0
  62
228
  6
CONTINUOUS
  0
LAYER
  2
BROWN1
  70
0
  62
58
  6
CONTINUOUS
  0
LAYER
  2
BLUE2
  70
0
  62
5
  6
CONTINUOUS
  0
LAYER
  2
GREEN2
  70
0
  62
3
  6
CONTINUOUS
  0
LAYER
  2
CYAN2
  70
0
  62
4
  6
CONTINUOUS
  0
LAYER
  2
RED2
  70
0
  62
1
  6
CONTINUOUS
  0
LAYER
  2
MAGENTA2
  70
0
  62
6
  6
CONTINUOUS
  0
LAYER
  2
BROWN2
  70
0
  62
54
  6
CONTINUOUS
  0
LAYER
  2
BLUE3
  70
0
  62
171
  6
CONTINUOUS
  0
LAYER
  2
GREEN3
  70
0
  62
91
  6
CONTINUOUS
  0
LAYER
  2
CYAN3
  70
0
  62
131
  6
CONTINUOUS
  0
LAYER
  2
RED3
  70
0
  62
11
  6
CONTINUOUS
  0
LAYER
  2
MAGENTA3
  70
0
  62
221
  6
CONTINUOUS
  0
LAYER
  2
YELLOW3
  70
0
  62
2
  6
CONTINUOUS
  0
LAYER
  2
BLUE4
  70
0
  62
5
  6
CONTINUOUS
  0
LAYER
  2
GREEN4
  70
0
  62
3
  6
CONTINUOUS
  0
LAYER
  2
CYAN4
  70
0
  62
4
  6
CONTINUOUS
  0
LAYER
  2
RED4
  70
0
  62
1
  6
CONTINUOUS
  0
LAYER
  2
MAGENTA4
  70
0
  62
6
  6
CONTINUOUS
  0
LAYER
  2
YELLOW4
  70
0
  62
2
  6
CONTINUOUS
  0
ENDTAB
  0
ENDSEC
  0
SECTION
  2
ENTITIES
0
LINE
8
Black
10
217
20
-149.05
11
220
21
-149.05
0
LINE
8
Black
10
217
20
-148.95
11
220
21
-148.95
0
ARC
8
Black
10
220
20
-149
40
0.05
50
270
51
450
0
ARC
8
Black
10
217
20
-149
40
0.05
50
90
51
270
0
ARC
8
Black
10
46
20
-146
40
3
50
-180
51
-90
0
ARC
8
Black
10
46
20
-27
40
3
50
90
51
180
0
ARC
8
Black
10
220
20
-27
40
3
50
-0
51
90
0
ARC
8
Black
10
220
20
-146
40
3
50
-90
51
-0
0
ARC
8
Black
10
220
20
-146
40
3
50
-90
51
-0
0
LINE
8
Black
10
223.05
20
-146
11
223.05
21
-27
0
LINE
8
Black
10
222.95
20
-146
11
222.95
21
-27
0
ARC
8
Black
10
223
20
-27
40
0.05
50
360
51
540
0
ARC
8
Black
10
223
20
-146
40
0.05
50
180
51
360
0
LINE
8
Black
10
46
20
-24.05
11
220
21
-24.05
0
LINE
8
Black
10
46
20
-23.95
11
220
21
-23.95
0
ARC
8
Black
10
220
20
-24
40
0.05
50
270
51
450
0
ARC
8
Black
10
46
20
-24
40
0.05
50
90
51
270
0
LINE
8
Black
10
43.05
20
-146
11
43.05
21
-27
0
LINE
8
Black
10
42.95
20
-146
11
42.95
21
-27
0
ARC
8
Black
10
43
20
-27
40
0.05
50
360
51
540
0
ARC
8
Black
10
43
20
-146
40
0.05
50
180
51
360
0
LINE
8
Black
10
46
20
-149.05
11
48
21
-149.05
0
LINE
8
Black
10
46
20
-148.95
11
48
21
-148.95
0
ARC
8
Black
10
48
20
-149
40
0.05
50
270
51
450
0
ARC
8
Black
10
46
20
-149
40
0.05
50
90
51
270
0
LINE
8
Black
10
48
20
-149.05
11
217
21
-149.05
0
LINE
8
Black
10
48
20
-148.95
11
217
21
-148.95
0
ARC
8
Black
10
217
20
-149
40
0.05
50
270
51
450
0
ARC
8
Black
10
48
20
-149
40
0.05
50
90
51
270
0
LINE
8
Black
10
43.833
20
-96.395
11
44.595
21
-97.157
0
LINE
8
Black
10
44.595
20
-96.395
11
43.833
21
-97.157
0
LINE
8
Black
10
44.849
20
-91.061
11
45.611
21
-91.823
0
LINE
8
Black
10
45.611
20
-91.061
11
44.849
21
-91.823
0
LINE
8
Black
10
49.167
20
-106.301
11
49.929
21
-107.063
0
LINE
8
Black
10
49.929
20
-106.301
11
49.167
21
-107.063
0
LINE
8
Black
10
79.647
20
-65.153
11
80.409
21
-65.915
0
LINE
8
Black
10
80.409
20
-65.153
11
79.647
21
-65.915
0
LINE
8
Black
10
79.647
20
-66.931
11
80.409
21
-67.693
0
LINE
8
Black
10
80.409
20
-66.931
11
79.647
21
-67.693
0
LINE
8
Black
10
83.965
20
-87.505
11
84.727
21
-88.267
0
LINE
8
Black
10
84.727
20
-87.505
11
83.965
21
-88.267
0
LINE
8
Black
10
95.903
20
-104.269
11
96.665
21
-105.031
0
LINE
8
Black
10
96.665
20
-104.269
11
95.903
21
-105.031
0
LINE
8
Black
10
96.919
20
-105.285
11
97.681
21
-106.047
0
LINE
8
Black
10
97.681
20
-105.285
11
96.919
21
-106.047
0
LINE
8
Black
10
132.479
20
-38.483
11
133.241
21
-39.245
0
LINE
8
Black
10
133.241
20
-38.483
11
132.479
21
-39.245
0
LINE
8
Black
10
137.051
20
-55.12
11
137.813
21
-55.882
0
LINE
8
Black
10
137.813
20
-55.12
11
137.051
21
-55.882
0
LINE
8
Black
10
183.025
20
-34.165
11
183.787
21
-34.927
0
LINE
8
Black
10
183.787
20
-34.165
11
183.025
21
-34.927
0
CIRCLE
8
Black
10
134.13
20
-27.942
40
0.4
0
CIRCLE
8
Black
10
134.13
20
-43.182
40
0.4
0
CIRCLE
8
Black
10
136.67
20
-27.942
40
0.4
0
CIRCLE
8
Black
10
136.67
20
-43.182
40
0.4
0
CIRCLE
8
Black
10
139.21
20
-27.942
40
0.4
0
CIRCLE
8
Black
10
139.21
20
-43.182
40
0.4
0
CIRCLE
8
Black
10
141.75
20
-27.942
40
0.4
0
CIRCLE
8
Black
10
141.75
20
-43.182
40
0.4
0
CIRCLE
8
Black
10
144.29
20
-27.942
40
0.4
0
CIRCLE
8
Black
10
144.29
20
-43.182
40
0.4
0
CIRCLE
8
Black
10
146.83
20
-27.942
40
0.4
0
CIRCLE
8
Black
10
146.83
20
-43.182
40
0.4
0
CIRCLE
8
Black
10
149.37
20
-27.942
40
0.4
0
CIRCLE
8
Black
10
149.37
20
-43.182
40
0.4
0
CIRCLE
8
Black
10
151.91
20
-27.942
40
0.4
0
CIRCLE
8
Black
10
151.91
20
-43.182
40
0.4
0
CIRCLE
8
Black
10
154.45
20
-27.942
40
0.4
0
CIRCLE
8
Black
10
154.45
20
-43.182
40
0.4
0
CIRCLE
8
Black
10
156.99
20
-27.942
40
0.4
0
CIRCLE
8
Black
10
156.99
20
-43.182
40
0.4
0
CIRCLE
8
Black
10
159.53
20
-27.942
40
0.4
0
CIRCLE
8
Black
10
159.53
20
-43.182
40
0.4
0
CIRCLE
8
Black
10
162.07
20
-27.942
40
0.4
0
CIRCLE
8
Black
10
162.07
20
-43.182
40
0.4
0
CIRCLE
8
Black
10
164.61
20
-27.942
40
0.4
0
CIRCLE
8
Black
10
164.61
20
-43.182
40
0.4
0
CIRCLE
8
Black
10
167.15
20
-27.942
40
0.4
0
CIRCLE
8
Black
10
167.15
20
-43.182
40
0.4
0
CIRCLE
8
Black
10
169.69
20
-27.942
40
0.4
0
CIRCLE
8
Black
10
169.69
20
-43.182
40
0.4
0
CIRCLE
8
Black
10
172.23
20
-27.942
40
0.4
0
CIRCLE
8
Black
10
172.23
20
-43.182
40
0.4
0
CIRCLE
8
Black
10
174.77
20
-27.942
40
0.4
0
CIRCLE
8
Black
10
174.77
20
-43.182
40
0.4
0
CIRCLE
8
Black
10
177.31
20
-27.942
40
0.4
0
CIRCLE
8
Black
10
177.31
20
-43.182
40
0.4
0
CIRCLE
8
Black
10
179.85
20
-27.942
40
0.4
0
CIRCLE
8
Black
10
179.85
20
-43.182
40
0.4
0
CIRCLE
8
Black
10
182.39
20
-27.942
40
0.4
0
CIRCLE
8
Black
10
182.39
20
-43.182
40
0.4
0
LINE
8
Black
10
71.9
20
-116.944
11
71.9
21
-117.756
0
LINE
8
Black
10
71.4936
20
-117.35
11
72.3064
21
-117.35
0
LINE
8
Black
10
71.9
20
-122.024
11
71.9
21
-122.836
0
LINE
8
Black
10
71.4936
20
-122.43
11
72.3064
21
-122.43
0
LINE
8
Black
10
71.9
20
-126.342
11
71.9
21
-127.154
0
LINE
8
Black
10
71.4936
20
-126.748
11
72.3064
21
-126.748
0
LINE
8
Black
10
71.9
20
-131.422
11
71.9
21
-132.234
0
LINE
8
Black
10
71.4936
20
-131.828
11
72.3064
21
-131.828
0
LINE
8
Black
10
101.745
20
-117.579
11
101.745
21
-118.391
0
LINE
8
Black
10
101.339
20
-117.985
11
102.151
21
-117.985
0
LINE
8
Black
10
101.745
20
-126.469
11
101.745
21
-127.281
0
LINE
8
Black
10
101.339
20
-126.875
11
102.151
21
-126.875
0
LINE
8
Black
10
101.745
20
-135.359
11
101.745
21
-136.171
0
LINE
8
Black
10
101.339
20
-135.765
11
102.151
21
-135.765
0
LINE
8
Black
10
101.745
20
-144.249
11
101.745
21
-145.061
0
LINE
8
Black
10
101.339
20
-144.655
11
102.151
21
-144.655
0
LINE
8
Black
10
106.825
20
-117.579
11
106.825
21
-118.391
0
LINE
8
Black
10
106.419
20
-117.985
11
107.231
21
-117.985
0
LINE
8
Black
10
106.825
20
-126.469
11
106.825
21
-127.281
0
LINE
8
Black
10
106.419
20
-126.875
11
107.231
21
-126.875
0
LINE
8
Black
10
106.825
20
-135.359
11
106.825
21
-136.171
0
LINE
8
Black
10
106.419
20
-135.765
11
107.231
21
-135.765
0
LINE
8
Black
10
106.825
20
-144.249
11
106.825
21
-145.061
0
LINE
8
Black
10
106.419
20
-144.655
11
107.231
21
-144.655
0
LINE
8
Black
10
108.095
20
-111.102
11
108.095
21
-111.914
0
LINE
8
Black
10
107.689
20
-111.508
11
108.501
21
-111.508
0
LINE
8
Black
10
110.635
20
-111.102
11
110.635
21
-111.914
0
LINE
8
Black
10
110.229
20
-111.508
11
111.041
21
-111.508
0
LINE
8
Black
10
111.27
20
-117.579
11
111.27
21
-118.391
0
LINE
8
Black
10
110.864
20
-117.985
11
111.676
21
-117.985
0
LINE
8
Black
10
111.27
20
-126.469
11
111.27
21
-127.281
0
LINE
8
Black
10
110.864
20
-126.875
11
111.676
21
-126.875
0
LINE
8
Black
10
111.27
20
-135.359
11
111.27
21
-136.171
0
LINE
8
Black
10
110.864
20
-135.765
11
111.676
21
-135.765
0
LINE
8
Black
10
111.27
20
-144.249
11
111.27
21
-145.061
0
LINE
8
Black
10
110.864
20
-144.655
11
111.676
21
-144.655
0
LINE
8
Black
10
113.175
20
-111.102
11
113.175
21
-111.914
0
LINE
8
Black
10
112.769
20
-111.508
11
113.581
21
-111.508
0
LINE
8
Black
10
115.715
20
-111.102
11
115.715
21
-111.914
0
LINE
8
Black
10
115.309
20
-111.508
11
116.121
21
-111.508
0
LINE
8
Black
10
116.35
20
-117.579
11
116.35
21
-118.391
0
LINE
8
Black
10
115.944
20
-117.985
11
116.756
21
-117.985
0
LINE
8
Black
10
116.35
20
-126.469
11
116.35
21
-127.281
0
LINE
8
Black
10
115.944
20
-126.875
11
116.756
21
-126.875
0
LINE
8
Black
10
116.35
20
-135.359
11
116.35
21
-136.171
0
LINE
8
Black
10
115.944
20
-135.765
11
116.756
21
-135.765
0
LINE
8
Black
10
116.35
20
-144.249
11
116.35
21
-145.061
0
LINE
8
Black
10
115.944
20
-144.655
11
116.756
21
-144.655
0
LINE
8
Black
10
118.255
20
-111.102
11
118.255
21
-111.914
0
LINE
8
Black
10
117.849
20
-111.508
11
118.661
21
-111.508
0
LINE
8
Black
10
120.795
20
-111.102
11
120.795
21
-111.914
0
LINE
8
Black
10
120.389
20
-111.508
11
121.201
21
-111.508
0
LINE
8
Black
10
120.795
20
-117.579
11
120.795
21
-118.391
0
LINE
8
Black
10
120.389
20
-117.985
11
121.201
21
-117.985
0
LINE
8
Black
10
120.795
20
-126.469
11
120.795
21
-127.281
0
LINE
8
Black
10
120.389
20
-126.875
11
121.201
21
-126.875
0
LINE
8
Black
10
120.795
20
-135.359
11
120.795
21
-136.171
0
LINE
8
Black
10
120.389
20
-135.765
11
121.201
21
-135.765
0
LINE
8
Black
10
120.795
20
-144.249
11
120.795
21
-145.061
0
LINE
8
Black
10
120.389
20
-144.655
11
121.201
21
-144.655
0
LINE
8
Black
10
123.335
20
-111.102
11
123.335
21
-111.914
0
LINE
8
Black
10
122.929
20
-111.508
11
123.741
21
-111.508
0
LINE
8
Black
10
125.875
20
-111.102
11
125.875
21
-111.914
0
LINE
8
Black
10
125.469
20
-111.508
11
126.281
21
-111.508
0
LINE
8
Black
10
125.875
20
-117.579
11
125.875
21
-118.391
0
LINE
8
Black
10
125.469
20
-117.985
11
126.281
21
-117.985
0
LINE
8
Black
10
125.875
20
-126.469
11
125.875
21
-127.281
0
LINE
8
Black
10
125.469
20
-126.875
11
126.281
21
-126.875
0
LINE
8
Black
10
125.875
20
-135.359
11
125.875
21
-136.171
0
LINE
8
Black
10
125.469
20
-135.765
11
126.281
21
-135.765
0
LINE
8
Black
10
125.875
20
-144.249
11
125.875
21
-145.061
0
LINE
8
Black
10
125.469
20
-144.655
11
126.281
21
-144.655
0
LINE
8
Black
10
128.415
20
-111.102
11
128.415
21
-111.914
0
LINE
8
Black
10
128.009
20
-111.508
11
128.821
21
-111.508
0
LINE
8
Black
10
130.32
20
-117.579
11
130.32
21
-118.391
0
LINE
8
Black
10
129.914
20
-117.985
11
130.726
21
-117.985
0
LINE
8
Black
10
130.32
20
-126.469
11
130.32
21
-127.281
0
LINE
8
Black
10
129.914
20
-126.875
11
130.726
21
-126.875
0
LINE
8
Black
10
130.32
20
-135.359
11
130.32
21
-136.171
0
LINE
8
Black
10
129.914
20
-135.765
11
130.726
21
-135.765
0
LINE
8
Black
10
130.32
20
-144.249
11
130.32
21
-145.061
0
LINE
8
Black
10
129.914
20
-144.655
11
130.726
21
-144.655
0
LINE
8
Black
10
135.4
20
-117.579
11
135.4
21
-118.391
0
LINE
8
Black
10
134.994
20
-117.985
11
135.806
21
-117.985
0
LINE
8
Black
10
135.4
20
-126.469
11
135.4
21
-127.281
0
LINE
8
Black
10
134.994
20
-126.875
11
135.806
21
-126.875
0
LINE
8
Black
10
135.4
20
-135.359
11
135.4
21
-136.171
0
LINE
8
Black
10
134.994
20
-135.765
11
135.806
21
-135.765
0
LINE
8
Black
10
135.4
20
-144.249
11
135.4
21
-145.061
0
LINE
8
Black
10
134.994
20
-144.655
11
135.806
21
-144.655
0
LINE
8
Black
10
165.19
20
-112.784
11
165.19
21
-113.596
0
LINE
8
Black
10
164.784
20
-113.19
11
165.596
21
-113.19
0
LINE
8
Black
10
165.19
20
-115.324
11
165.19
21
-116.136
0
LINE
8
Black
10
164.784
20
-115.73
11
165.596
21
-115.73
0
LINE
8
Black
10
165.19
20
-117.864
11
165.19
21
-118.676
0
LINE
8
Black
10
164.784
20
-118.27
11
165.596
21
-118.27
0
LINE
8
Black
10
165.19
20
-120.404
11
165.19
21
-121.216
0
LINE
8
Black
10
164.784
20
-120.81
11
165.596
21
-120.81
0
LINE
8
Black
10
165.19
20
-125.784
11
165.19
21
-126.596
0
LINE
8
Black
10
164.784
20
-126.19
11
165.596
21
-126.19
0
LINE
8
Black
10
165.19
20
-128.324
11
165.19
21
-129.136
0
LINE
8
Black
10
164.784
20
-128.73
11
165.596
21
-128.73
0
LINE
8
Black
10
165.19
20
-130.864
11
165.19
21
-131.676
0
LINE
8
Black
10
164.784
20
-131.27
11
165.596
21
-131.27
0
LINE
8
Black
10
165.19
20
-133.404
11
165.19
21
-134.216
0
LINE
8
Black
10
164.784
20
-133.81
11
165.596
21
-133.81
0
LINE
8
Black
10
172.81
20
-112.784
11
172.81
21
-113.596
0
LINE
8
Black
10
172.404
20
-113.19
11
173.216
21
-113.19
0
LINE
8
Black
10
172.81
20
-115.324
11
172.81
21
-116.136
0
LINE
8
Black
10
172.404
20
-115.73
11
173.216
21
-115.73
0
LINE
8
Black
10
172.81
20
-117.864
11
172.81
21
-118.676
0
LINE
8
Black
10
172.404
20
-118.27
11
173.216
21
-118.27
0
LINE
8
Black
10
172.81
20
-120.404
11
172.81
21
-121.216
0
LINE
8
Black
10
172.404
20
-120.81
11
173.216
21
-120.81
0
LINE
8
Black
10
172.81
20
-125.784
11
172.81
21
-126.596
0
LINE
8
Black
10
172.404
20
-126.19
11
173.216
21
-126.19
0
LINE
8
Black
10
172.81
20
-128.324
11
172.81
21
-129.136
0
LINE
8
Black
10
172.404
20
-128.73
11
173.216
21
-128.73
0
LINE
8
Black
10
172.81
20
-130.864
11
172.81
21
-131.676
0
LINE
8
Black
10
172.404
20
-131.27
11
173.216
21
-131.27
0
LINE
8
Black
10
172.81
20
-133.404
11
172.81
21
-134.216
0
LINE
8
Black
10
172.404
20
-133.81
11
173.216
21
-133.81
0
LINE
8
Black
10
181.12
20
-69.1916
11
181.12
21
-70.0044
0
LINE
8
Black
10
180.714
20
-69.598
11
181.526
21
-69.598
0
LINE
8
Black
10
181.12
20
-76.8116
11
181.12
21
-77.6244
0
LINE
8
Black
10
180.714
20
-77.218
11
181.526
21
-77.218
0
LINE
8
Black
10
183.66
20
-69.1916
11
183.66
21
-70.0044
0
LINE
8
Black
10
183.254
20
-69.598
11
184.066
21
-69.598
0
LINE
8
Black
10
183.66
20
-76.8116
11
183.66
21
-77.6244
0
LINE
8
Black
10
183.254
20
-77.218
11
184.066
21
-77.218
0
LINE
8
Black
10
186.2
20
-69.1916
11
186.2
21
-70.0044
0
LINE
8
Black
10
185.794
20
-69.598
11
186.606
21
-69.598
0
LINE
8
Black
10
186.2
20
-76.8116
11
186.2
21
-77.6244
0
LINE
8
Black
10
185.794
20
-77.218
11
186.606
21
-77.218
0
LINE
8
Black
10
188.74
20
-69.1916
11
188.74
21
-70.0044
0
LINE
8
Black
10
188.334
20
-69.598
11
189.146
21
-69.598
0
LINE
8
Black
10
188.74
20
-76.8116
11
188.74
21
-77.6244
0
LINE
8
Black
10
188.334
20
-77.218
11
189.146
21
-77.218
0
LINE
8
Black
10
191.28
20
-69.1916
11
191.28
21
-70.0044
0
LINE
8
Black
10
190.874
20
-69.598
11
191.686
21
-69.598
0
LINE
8
Black
10
191.28
20
-76.8116
11
191.28
21
-77.6244
0
LINE
8
Black
10
190.874
20
-77.218
11
191.686
21
-77.218
0
LINE
8
Black
10
193.82
20
-69.1916
11
193.82
21
-70.0044
0
LINE
8
Black
10
193.414
20
-69.598
11
194.226
21
-69.598
0
LINE
8
Black
10
193.82
20
-76.8116
11
193.82
21
-77.6244
0
LINE
8
Black
10
193.414
20
-77.218
11
194.226
21
-77.218
0
LINE
8
Black
10
196.36
20
-69.1916
11
196.36
21
-70.0044
0
LINE
8
Black
10
195.954
20
-69.598
11
196.766
21
-69.598
0
LINE
8
Black
10
196.36
20
-76.8116
11
196.36
21
-77.6244
0
LINE
8
Black
10
195.954
20
-77.218
11
196.766
21
-77.218
0
LINE
8
Black
10
198.9
20
-69.1916
11
198.9
21
-70.0044
0
LINE
8
Black
10
198.494
20
-69.598
11
199.306
21
-69.598
0
LINE
8
Black
10
198.9
20
-76.8116
11
198.9
21
-77.6244
0
LINE
8
Black
10
198.494
20
-77.218
11
199.306
21
-77.218
0
LINE
8
Black
10
208.298
20
-85.9556
11
208.298
21
-86.7684
0
LINE
8
Black
10
207.892
20
-86.362
11
208.704
21
-86.362
0
LINE
8
Black
10
208.298
20
-88.4956
11
208.298
21
-89.3084
0
LINE
8
Black
10
207.892
20
-88.902
11
208.704
21
-88.902
0
LINE
8
Black
10
208.298
20
-91.0356
11
208.298
21
-91.8484
0
LINE
8
Black
10
207.892
20
-91.442
11
208.704
21
-91.442
0
LINE
8
Black
10
208.298
20
-93.5756
11
208.298
21
-94.3884
0
LINE
8
Black
10
207.892
20
-93.982
11
208.704
21
-93.982
0
LINE
8
Black
10
208.298
20
-96.1156
11
208.298
21
-96.9284
0
LINE
8
Black
10
207.892
20
-96.522
11
208.704
21
-96.522
0
LINE
8
Black
10
208.298
20
-98.6556
11
208.298
21
-99.4684
0
LINE
8
Black
10
207.892
20
-99.062
11
208.704
21
-99.062
0
LINE
8
Black
10
208.298
20
-101.196
11
208.298
21
-102.008
0
LINE
8
Black
10
207.892
20
-101.602
11
208.704
21
-101.602
0
LINE
8
Black
10
208.298
20
-103.736
11
208.298
21
-104.548
0
LINE
8
Black
10
207.892
20
-104.142
11
208.704
21
-104.142
0
LINE
8
Black
10
208.298
20
-106.276
11
208.298
21
-107.088
0
LINE
8
Black
10
207.892
20
-106.682
11
208.704
21
-106.682
0
LINE
8
Black
10
212.362
20
-88.4956
11
212.362
21
-89.3084
0
LINE
8
Black
10
211.956
20
-88.902
11
212.768
21
-88.902
0
LINE
8
Black
10
212.362
20
-91.0356
11
212.362
21
-91.8484
0
LINE
8
Black
10
211.956
20
-91.442
11
212.768
21
-91.442
0
LINE
8
Black
10
212.362
20
-93.5756
11
212.362
21
-94.3884
0
LINE
8
Black
10
211.956
20
-93.982
11
212.768
21
-93.982
0
LINE
8
Black
10
212.362
20
-96.1156
11
212.362
21
-96.9284
0
LINE
8
Black
10
211.956
20
-96.522
11
212.768
21
-96.522
0
LINE
8
Black
10
212.362
20
-98.6556
11
212.362
21
-99.4684
0
LINE
8
Black
10
211.956
20
-99.062
11
212.768
21
-99.062
0
LINE
8
Black
10
212.362
20
-101.196
11
212.362
21
-102.008
0
LINE
8
Black
10
211.956
20
-101.602
11
212.768
21
-101.602
0
LINE
8
Black
10
212.362
20
-103.736
11
212.362
21
-104.548
0
LINE
8
Black
10
211.956
20
-104.142
11
212.768
21
-104.142
0
LINE
8
Black
10
212.362
20
-106.276
11
212.362
21
-107.088
0
LINE
8
Black
10
211.956
20
-106.682
11
212.768
21
-106.682
0
LINE
8
Black
10
219.982
20
-88.4956
11
219.982
21
-89.3084
0
LINE
8
Black
10
219.576
20
-88.902
11
220.388
21
-88.902
0
LINE
8
Black
10
219.982
20
-91.0356
11
219.982
21
-91.8484
0
LINE
8
Black
10
219.576
20
-91.442
11
220.388
21
-91.442
0
LINE
8
Black
10
219.982
20
-93.5756
11
219.982
21
-94.3884
0
LINE
8
Black
10
219.576
20
-93.982
11
220.388
21
-93.982
0
LINE
8
Black
10
219.982
20
-96.1156
11
219.982
21
-96.9284
0
LINE
8
Black
10
219.576
20
-96.522
11
220.388
21
-96.522
0
LINE
8
Black
10
219.982
20
-98.6556
11
219.982
21
-99.4684
0
LINE
8
Black
10
219.576
20
-99.062
11
220.388
21
-99.062
0
LINE
8
Black
10
219.982
20
-101.196
11
219.982
21
-102.008
0
LINE
8
Black
10
219.576
20
-101.602
11
220.388
21
-101.602
0
LINE
8
Black
10
219.982
20
-103.736
11
219.982
21
-104.548
0
LINE
8
Black
10
219.576
20
-104.142
11
220.388
21
-104.142
0
LINE
8
Black
10
219.982
20
-106.276
11
219.982
21
-107.088
0
LINE
8
Black
10
219.576
20
-106.682
11
220.388
21
-106.682
0
LINE
8
Black
10
150.941
20
-85.9005
11
150.941
21
-85.2995
0
LINE
8
Black
10
150.941
20
-85.2995
11
150.339
21
-85.2995
0
LINE
8
Black
10
150.339
20
-85.2995
11
150.339
21
-85.9005
0
LINE
8
Black
10
150.339
20
-85.9005
11
150.941
21
-85.9005
0
LINE
8
Black
10
150.941
20
-88.4405
11
150.941
21
-87.8395
0
LINE
8
Black
10
150.941
20
-87.8395
11
150.339
21
-87.8395
0
LINE
8
Black
10
150.339
20
-87.8395
11
150.339
21
-88.4405
0
LINE
8
Black
10
150.339
20
-88.4405
11
150.941
21
-88.4405
0
LINE
8
Black
10
150.941
20
-90.9805
11
150.941
21
-90.3795
0
LINE
8
Black
10
150.941
20
-90.3795
11
150.339
21
-90.3795
0
LINE
8
Black
10
150.339
20
-90.3795
11
150.339
21
-90.9805
0
LINE
8
Black
10
150.339
20
-90.9805
11
150.941
21
-90.9805
0
LINE
8
Black
10
150.941
20
-93.5205
11
150.941
21
-92.9195
0
LINE
8
Black
10
150.941
20
-92.9195
11
150.339
21
-92.9195
0
LINE
8
Black
10
150.339
20
-92.9195
11
150.339
21
-93.5205
0
LINE
8
Black
10
150.339
20
-93.5205
11
150.941
21
-93.5205
0
LINE
8
Black
10
150.941
20
-96.0605
11
150.941
21
-95.4595
0
LINE
8
Black
10
150.941
20
-95.4595
11
150.339
21
-95.4595
0
LINE
8
Black
10
150.339
20
-95.4595
11
150.339
21
-96.0605
0
LINE
8
Black
10
150.339
20
-96.0605
11
150.941
21
-96.0605
0
LINE
8
Black
10
150.941
20
-98.6005
11
150.941
21
-97.9995
0
LINE
8
Black
10
150.941
20
-97.9995
11
150.339
21
-97.9995
0
LINE
8
Black
10
150.339
20
-97.9995
11
150.339
21
-98.6005
0
LINE
8
Black
10
150.339
20
-98.6005
11
150.941
21
-98.6005
0
LINE
8
Black
10
150.941
20
-101.141
11
150.941
21
-100.539
0
LINE
8
Black
10
150.941
20
-100.539
11
150.339
21
-100.539
0
LINE
8
Black
10
150.339
20
-100.539
11
150.339
21
-101.141
0
LINE
8
Black
10
150.339
20
-101.141
11
150.941
21
-101.141
0
LINE
8
Black
10
150.941
20
-103.681
11
150.941
21
-103.079
0
LINE
8
Black
10
150.941
20
-103.079
11
150.339
21
-103.079
0
LINE
8
Black
10
150.339
20
-103.079
11
150.339
21
-103.681
0
LINE
8
Black
10
150.339
20
-103.681
11
150.941
21
-103.681
0
LINE
8
Black
10
150.941
20
-106.221
11
150.941
21
-105.619
0
LINE
8
Black
10
150.941
20
-105.619
11
150.339
21
-105.619
0
LINE
8
Black
10
150.339
20
-105.619
11
150.339
21
-106.221
0
LINE
8
Black
10
150.339
20
-106.221
11
150.941
21
-106.221
0
LINE
8
Black
10
150.941
20
-108.761
11
150.941
21
-108.159
0
LINE
8
Black
10
150.941
20
-108.159
11
150.339
21
-108.159
0
LINE
8
Black
10
150.339
20
-108.159
11
150.339
21
-108.761
0
LINE
8
Black
10
150.339
20
-108.761
11
150.941
21
-108.761
0
LINE
8
Black
10
150.941
20
-111.301
11
150.941
21
-110.699
0
LINE
8
Black
10
150.941
20
-110.699
11
150.339
21
-110.699
0
LINE
8
Black
10
150.339
20
-110.699
11
150.339
21
-111.301
0
LINE
8
Black
10
150.339
20
-111.301
11
150.941
21
-111.301
0
LINE
8
Black
10
150.941
20
-113.841
11
150.941
21
-113.239
0
LINE
8
Black
10
150.941
20
-113.239
11
150.339
21
-113.239
0
LINE
8
Black
10
150.339
20
-113.239
11
150.339
21
-113.841
0
LINE
8
Black
10
150.339
20
-113.841
11
150.941
21
-113.841
0
LINE
8
Black
10
150.941
20
-116.381
11
150.941
21
-115.779
0
LINE
8
Black
10
150.941
20
-115.779
11
150.339
21
-115.779
0
LINE
8
Black
10
150.339
20
-115.779
11
150.339
21
-116.381
0
LINE
8
Black
10
150.339
20
-116.381
11
150.941
21
-116.381
0
LINE
8
Black
10
150.941
20
-118.921
11
150.941
21
-118.319
0
LINE
8
Black
10
150.941
20
-118.319
11
150.339
21
-118.319
0
LINE
8
Black
10
150.339
20
-118.319
11
150.339
21
-118.921
0
LINE
8
Black
10
150.339
20
-118.921
11
150.941
21
-118.921
0
LINE
8
Black
10
150.941
20
-121.461
11
150.941
21
-120.859
0
LINE
8
Black
10
150.941
20
-120.859
11
150.339
21
-120.859
0
LINE
8
Black
10
150.339
20
-120.859
11
150.339
21
-121.461
0
LINE
8
Black
10
150.339
20
-121.461
11
150.941
21
-121.461
0
LINE
8
Black
10
150.941
20
-124.001
11
150.941
21
-123.399
0
LINE
8
Black
10
150.941
20
-123.399
11
150.339
21
-123.399
0
LINE
8
Black
10
150.339
20
-123.399
11
150.339
21
-124.001
0
LINE
8
Black
10
150.339
20
-124.001
11
150.941
21
-124.001
0
LINE
8
Black
10
150.941
20
-126.541
11
150.941
21
-125.939
0
LINE
8
Black
10
150.941
20
-125.939
11
150.339
21
-125.939
0
LINE
8
Black
10
150.339
20
-125.939
11
150.339
21
-126.541
0
LINE
8
Black
10
150.339
20
-126.541
11
150.941
21
-126.541
0
LINE
8
Black
10
150.941
20
-129.081
11
150.941
21
-128.479
0
LINE
8
Black
10
150.941
20
-128.479
11
150.339
21
-128.479
0
LINE
8
Black
10
150.339
20
-128.479
11
150.339
21
-129.081
0
LINE
8
Black
10
150.339
20
-129.081
11
150.941
21
-129.081
0
LINE
8
Black
10
150.941
20
-131.621
11
150.941
21
-131.019
0
LINE
8
Black
10
150.941
20
-131.019
11
150.339
21
-131.019
0
LINE
8
Black
10
150.339
20
-131.019
11
150.339
21
-131.621
0
LINE
8
Black
10
150.339
20
-131.621
11
150.941
21
-131.621
0
LINE
8
Black
10
150.941
20
-134.161
11
150.941
21
-133.559
0
LINE
8
Black
10
150.941
20
-133.559
11
150.339
21
-133.559
0
LINE
8
Black
10
150.339
20
-133.559
11
150.339
21
-134.161
0
LINE
8
Black
10
150.339
20
-134.161
11
150.941
21
-134.161
0
LINE
8
Black
10
159.031
20
-116.301
11
159.031
21
-115.699
0
LINE
8
Black
10
159.031
20
-115.699
11
158.429
21
-115.699
0
LINE
8
Black
10
158.429
20
-115.699
11
158.429
21
-116.301
0
LINE
8
Black
10
158.429
20
-116.301
11
159.031
21
-116.301
0
LINE
8
Black
10
161.571
20
-116.301
11
161.571
21
-115.699
0
LINE
8
Black
10
161.571
20
-115.699
11
160.969
21
-115.699
0
LINE
8
Black
10
160.969
20
-115.699
11
160.969
21
-116.301
0
LINE
8
Black
10
160.969
20
-116.301
11
161.571
21
-116.301
0
LINE
8
Black
10
186.501
20
-85.9005
11
186.501
21
-85.2995
0
LINE
8
Black
10
186.501
20
-85.2995
11
185.899
21
-85.2995
0
LINE
8
Black
10
185.899
20
-85.2995
11
185.899
21
-85.9005
0
LINE
8
Black
10
185.899
20
-85.9005
11
186.501
21
-85.9005
0
LINE
8
Black
10
186.501
20
-88.4405
11
186.501
21
-87.8395
0
LINE
8
Black
10
186.501
20
-87.8395
11
185.899
21
-87.8395
0
LINE
8
Black
10
185.899
20
-87.8395
11
185.899
21
-88.4405
0
LINE
8
Black
10
185.899
20
-88.4405
11
186.501
21
-88.4405
0
LINE
8
Black
10
186.501
20
-90.9805
11
186.501
21
-90.3795
0
LINE
8
Black
10
186.501
20
-90.3795
11
185.899
21
-90.3795
0
LINE
8
Black
10
185.899
20
-90.3795
11
185.899
21
-90.9805
0
LINE
8
Black
10
185.899
20
-90.9805
11
186.501
21
-90.9805
0
LINE
8
Black
10
186.501
20
-93.5205
11
186.501
21
-92.9195
0
LINE
8
Black
10
186.501
20
-92.9195
11
185.899
21
-92.9195
0
LINE
8
Black
10
185.899
20
-92.9195
11
185.899
21
-93.5205
0
LINE
8
Black
10
185.899
20
-93.5205
11
186.501
21
-93.5205
0
LINE
8
Black
10
186.501
20
-96.0605
11
186.501
21
-95.4595
0
LINE
8
Black
10
186.501
20
-95.4595
11
185.899
21
-95.4595
0
LINE
8
Black
10
185.899
20
-95.4595
11
185.899
21
-96.0605
0
LINE
8
Black
10
185.899
20
-96.0605
11
186.501
21
-96.0605
0
LINE
8
Black
10
186.501
20
-98.6005
11
186.501
21
-97.9995
0
LINE
8
Black
10
186.501
20
-97.9995
11
185.899
21
-97.9995
0
LINE
8
Black
10
185.899
20
-97.9995
11
185.899
21
-98.6005
0
LINE
8
Black
10
185.899
20
-98.6005
11
186.501
21
-98.6005
0
LINE
8
Black
10
186.501
20
-101.141
11
186.501
21
-100.539
0
LINE
8
Black
10
186.501
20
-100.539
11
185.899
21
-100.539
0
LINE
8
Black
10
185.899
20
-100.539
11
185.899
21
-101.141
0
LINE
8
Black
10
185.899
20
-101.141
11
186.501
21
-101.141
0
LINE
8
Black
10
186.501
20
-103.681
11
186.501
21
-103.079
0
LINE
8
Black
10
186.501
20
-103.079
11
185.899
21
-103.079
0
LINE
8
Black
10
185.899
20
-103.079
11
185.899
21
-103.681
0
LINE
8
Black
10
185.899
20
-103.681
11
186.501
21
-103.681
0
LINE
8
Black
10
186.501
20
-106.221
11
186.501
21
-105.619
0
LINE
8
Black
10
186.501
20
-105.619
11
185.899
21
-105.619
0
LINE
8
Black
10
185.899
20
-105.619
11
185.899
21
-106.221
0
LINE
8
Black
10
185.899
20
-106.221
11
186.501
21
-106.221
0
LINE
8
Black
10
186.501
20
-108.761
11
186.501
21
-108.159
0
LINE
8
Black
10
186.501
20
-108.159
11
185.899
21
-108.159
0
LINE
8
Black
10
185.899
20
-108.159
11
185.899
21
-108.761
0
LINE
8
Black
10
185.899
20
-108.761
11
186.501
21
-108.761
0
LINE
8
Black
10
186.501
20
-111.301
11
186.501
21
-110.699
0
LINE
8
Black
10
186.501
20
-110.699
11
185.899
21
-110.699
0
LINE
8
Black
10
185.899
20
-110.699
11
185.899
21
-111.301
0
LINE
8
Black
10
185.899
20
-111.301
11
186.501
21
-111.301
0
LINE
8
Black
10
186.501
20
-113.841
11
186.501
21
-113.239
0
LINE
8
Black
10
186.501
20
-113.239
11
185.899
21
-113.239
0
LINE
8
Black
10
185.899
20
-113.239
11
185.899
21
-113.841
0
LINE
8
Black
10
185.899
20
-113.841
11
186.501
21
-113.841
0
LINE
8
Black
10
186.501
20
-116.381
11
186.501
21
-115.779
0
LINE
8
Black
10
186.501
20
-115.779
11
185.899
21
-115.779
0
LINE
8
Black
10
185.899
20
-115.779
11
185.899
21
-116.381
0
LINE
8
Black
10
185.899
20
-116.381
11
186.501
21
-116.381
0
LINE
8
Black
10
186.501
20
-118.921
11
186.501
21
-118.319
0
LINE
8
Black
10
186.501
20
-118.319
11
185.899
21
-118.319
0
LINE
8
Black
10
185.899
20
-118.319
11
185.899
21
-118.921
0
LINE
8
Black
10
185.899
20
-118.921
11
186.501
21
-118.921
0
LINE
8
Black
10
186.501
20
-121.461
11
186.501
21
-120.859
0
LINE
8
Black
10
186.501
20
-120.859
11
185.899
21
-120.859
0
LINE
8
Black
10
185.899
20
-120.859
11
185.899
21
-121.461
0
LINE
8
Black
10
185.899
20
-121.461
11
186.501
21
-121.461
0
LINE
8
Black
10
186.501
20
-124.001
11
186.501
21
-123.399
0
LINE
8
Black
10
186.501
20
-123.399
11
185.899
21
-123.399
0
LINE
8
Black
10
185.899
20
-123.399
11
185.899
21
-124.001
0
LINE
8
Black
10
185.899
20
-124.001
11
186.501
21
-124.001
0
LINE
8
Black
10
186.501
20
-126.541
11
186.501
21
-125.939
0
LINE
8
Black
10
186.501
20
-125.939
11
185.899
21
-125.939
0
LINE
8
Black
10
185.899
20
-125.939
11
185.899
21
-126.541
0
LINE
8
Black
10
185.899
20
-126.541
11
186.501
21
-126.541
0
LINE
8
Black
10
186.501
20
-129.081
11
186.501
21
-128.479
0
LINE
8
Black
10
186.501
20
-128.479
11
185.899
21
-128.479
0
LINE
8
Black
10
185.899
20
-128.479
11
185.899
21
-129.081
0
LINE
8
Black
10
185.899
20
-129.081
11
186.501
21
-129.081
0
LINE
8
Black
10
186.501
20
-131.621
11
186.501
21
-131.019
0
LINE
8
Black
10
186.501
20
-131.019
11
185.899
21
-131.019
0
LINE
8
Black
10
185.899
20
-131.019
11
185.899
21
-131.621
0
LINE
8
Black
10
185.899
20
-131.621
11
186.501
21
-131.621
0
LINE
8
Black
10
186.501
20
-134.161
11
186.501
21
-133.559
0
LINE
8
Black
10
186.501
20
-133.559
11
185.899
21
-133.559
0
LINE
8
Black
10
185.899
20
-133.559
11
185.899
21
-134.161
0
LINE
8
Black
10
185.899
20
-134.161
11
186.501
21
-134.161
0
LINE
8
Black
10
45.484
20
-68.7725
11
45.9285
21
-68.328
0
LINE
8
Black
10
45.9285
20
-68.328
11
45.484
21
-67.8835
0
LINE
8
Black
10
45.484
20
-67.8835
11
45.0395
21
-68.328
0
LINE
8
Black
10
45.0395
20
-68.328
11
45.484
21
-68.7725
0
LINE
8
Black
10
47.008
20
-33.2125
11
47.4525
21
-32.768
0
LINE
8
Black
10
47.4525
20
-32.768
11
47.008
21
-32.3235
0
LINE
8
Black
10
47.008
20
-32.3235
11
46.5635
21
-32.768
0
LINE
8
Black
10
46.5635
20
-32.768
11
47.008
21
-33.2125
0
LINE
8
Black
10
49.548
20
-56.5805
11
49.9925
21
-56.136
0
LINE
8
Black
10
49.9925
20
-56.136
11
49.548
21
-55.6915
0
LINE
8
Black
10
49.548
20
-55.6915
11
49.1035
21
-56.136
0
LINE
8
Black
10
49.1035
20
-56.136
11
49.548
21
-56.5805
0
LINE
8
Black
10
52.596
20
-65.4705
11
53.0405
21
-65.026
0
LINE
8
Black
10
53.0405
20
-65.026
11
52.596
21
-64.5815
0
LINE
8
Black
10
52.596
20
-64.5815
11
52.1515
21
-65.026
0
LINE
8
Black
10
52.1515
20
-65.026
11
52.596
21
-65.4705
0
LINE
8
Black
10
52.85
20
-73.5985
11
53.2945
21
-73.154
0
LINE
8
Black
10
53.2945
20
-73.154
11
52.85
21
-72.7095
0
LINE
8
Black
10
52.85
20
-72.7095
11
52.4055
21
-73.154
0
LINE
8
Black
10
52.4055
20
-73.154
11
52.85
21
-73.5985
0
LINE
8
Black
10
54.882
20
-60.1365
11
55.3265
21
-59.692
0
LINE
8
Black
10
55.3265
20
-59.692
11
54.882
21
-59.2475
0
LINE
8
Black
10
54.882
20
-59.2475
11
54.4375
21
-59.692
0
LINE
8
Black
10
54.4375
20
-59.692
11
54.882
21
-60.1365
0
LINE
8
Black
10
58.184
20
-71.8205
11
58.6285
21
-71.376
0
LINE
8
Black
10
58.6285
20
-71.376
11
58.184
21
-70.9315
0
LINE
8
Black
10
58.184
20
-70.9315
11
57.7395
21
-71.376
0
LINE
8
Black
10
57.7395
20
-71.376
11
58.184
21
-71.8205
0
LINE
8
Black
10
59.708
20
-64.2005
11
60.1525
21
-63.756
0
LINE
8
Black
10
60.1525
20
-63.756
11
59.708
21
-63.3115
0
LINE
8
Black
10
59.708
20
-63.3115
11
59.2635
21
-63.756
0
LINE
8
Black
10
59.2635
20
-63.756
11
59.708
21
-64.2005
0
LINE
8
Black
10
59.962
20
-49.4685
11
60.4065
21
-49.024
0
LINE
8
Black
10
60.4065
20
-49.024
11
59.962
21
-48.5795
0
LINE
8
Black
10
59.962
20
-48.5795
11
59.5175
21
-49.024
0
LINE
8
Black
10
59.5175
20
-49.024
11
59.962
21
-49.4685
0
LINE
8
Black
10
59.962
20
-58.6125
11
60.4065
21
-58.168
0
LINE
8
Black
10
60.4065
20
-58.168
11
59.962
21
-57.7235
0
LINE
8
Black
10
59.962
20
-57.7235
11
59.5175
21
-58.168
0
LINE
8
Black
10
59.5175
20
-58.168
11
59.962
21
-58.6125
0
LINE
8
Black
10
59.962
20
-75.8845
11
60.4065
21
-75.44
0
LINE
8
Black
10
60.4065
20
-75.44
11
59.962
21
-74.9955
0
LINE
8
Black
10
59.962
20
-74.9955
11
59.5175
21
-75.44
0
LINE
8
Black
10
59.5175
20
-75.44
11
59.962
21
-75.8845
0
LINE
8
Black
10
60.216
20
-45.9125
11
60.6605
21
-45.468
0
LINE
8
Black
10
60.6605
20
-45.468
11
60.216
21
-45.0235
0
LINE
8
Black
10
60.216
20
-45.0235
11
59.7715
21
-45.468
0
LINE
8
Black
10
59.7715
20
-45.468
11
60.216
21
-45.9125
0
LINE
8
Black
10
60.216
20
-47.6905
11
60.6605
21
-47.246
0
LINE
8
Black
10
60.6605
20
-47.246
11
60.216
21
-46.8015
0
LINE
8
Black
10
60.216
20
-46.8015
11
59.7715
21
-47.246
0
LINE
8
Black
10
59.7715
20
-47.246
11
60.216
21
-47.6905
0
LINE
8
Black
10
60.47
20
-30.6725
11
60.9145
21
-30.228
0
LINE
8
Black
10
60.9145
20
-30.228
11
60.47
21
-29.7835
0
LINE
8
Black
10
60.47
20
-29.7835
11
60.0255
21
-30.228
0
LINE
8
Black
10
60.0255
20
-30.228
11
60.47
21
-30.6725
0
LINE
8
Black
10
60.47
20
-41.8485
11
60.9145
21
-41.404
0
LINE
8
Black
10
60.9145
20
-41.404
11
60.47
21
-40.9595
0
LINE
8
Black
10
60.47
20
-40.9595
11
60.0255
21
-41.404
0
LINE
8
Black
10
60.0255
20
-41.404
11
60.47
21
-41.8485
0
LINE
8
Black
10
60.47
20
-44.1345
11
60.9145
21
-43.69
0
LINE
8
Black
10
60.9145
20
-43.69
11
60.47
21
-43.2455
0
LINE
8
Black
10
60.47
20
-43.2455
11
60.0255
21
-43.69
0
LINE
8
Black
10
60.0255
20
-43.69
11
60.47
21
-44.1345
0
LINE
8
Black
10
60.47
20
-134.051
11
60.9145
21
-133.606
0
LINE
8
Black
10
60.9145
20
-133.606
11
60.47
21
-133.162
0
LINE
8
Black
10
60.47
20
-133.162
11
60.0255
21
-133.606
0
LINE
8
Black
10
60.0255
20
-133.606
11
60.47
21
-134.051
0
LINE
8
Black
10
60.47
20
-136.337
11
60.9145
21
-135.892
0
LINE
8
Black
10
60.9145
20
-135.892
11
60.47
21
-135.448
0
LINE
8
Black
10
60.47
20
-135.448
11
60.0255
21
-135.892
0
LINE
8
Black
10
60.0255
20
-135.892
11
60.47
21
-136.337
0
LINE
8
Black
10
60.724
20
-40.0705
11
61.1685
21
-39.626
0
LINE
8
Black
10
61.1685
20
-39.626
11
60.724
21
-39.1815
0
LINE
8
Black
10
60.724
20
-39.1815
11
60.2795
21
-39.626
0
LINE
8
Black
10
60.2795
20
-39.626
11
60.724
21
-40.0705
0
LINE
8
Black
10
60.724
20
-78.4245
11
61.1685
21
-77.98
0
LINE
8
Black
10
61.1685
20
-77.98
11
60.724
21
-77.5355
0
LINE
8
Black
10
60.724
20
-77.5355
11
60.2795
21
-77.98
0
LINE
8
Black
10
60.2795
20
-77.98
11
60.724
21
-78.4245
0
LINE
8
Black
10
60.724
20
-96.7125
11
61.1685
21
-96.268
0
LINE
8
Black
10
61.1685
20
-96.268
11
60.724
21
-95.8235
0
LINE
8
Black
10
60.724
20
-95.8235
11
60.2795
21
-96.268
0
LINE
8
Black
10
60.2795
20
-96.268
11
60.724
21
-96.7125
0
LINE
8
Black
10
64.534
20
-58.6125
11
64.9785
21
-58.168
0
LINE
8
Black
10
64.9785
20
-58.168
11
64.534
21
-57.7235
0
LINE
8
Black
10
64.534
20
-57.7235
11
64.0895
21
-58.168
0
LINE
8
Black
10
64.0895
20
-58.168
11
64.534
21
-58.6125
0
LINE
8
Black
10
66.82
20
-109.667
11
67.2645
21
-109.222
0
LINE
8
Black
10
67.2645
20
-109.222
11
66.82
21
-108.778
0
LINE
8
Black
10
66.82
20
-108.778
11
66.3755
21
-109.222
0
LINE
8
Black
10
66.3755
20
-109.222
11
66.82
21
-109.667
0
LINE
8
Black
10
68.598
20
-63.6925
11
69.0425
21
-63.248
0
LINE
8
Black
10
69.0425
20
-63.248
11
68.598
21
-62.8035
0
LINE
8
Black
10
68.598
20
-62.8035
11
68.1535
21
-63.248
0
LINE
8
Black
10
68.1535
20
-63.248
11
68.598
21
-63.6925
0
LINE
8
Black
10
68.598
20
-81.9805
11
69.0425
21
-81.536
0
LINE
8
Black
10
69.0425
20
-81.536
11
68.598
21
-81.0915
0
LINE
8
Black
10
68.598
20
-81.0915
11
68.1535
21
-81.536
0
LINE
8
Black
10
68.1535
20
-81.536
11
68.598
21
-81.9805
0
LINE
8
Black
10
68.598
20
-107.889
11
69.0425
21
-107.444
0
LINE
8
Black
10
69.0425
20
-107.444
11
68.598
21
-107
0
LINE
8
Black
10
68.598
20
-107
11
68.1535
21
-107.444
0
LINE
8
Black
10
68.1535
20
-107.444
11
68.598
21
-107.889
0
LINE
8
Black
10
69.106
20
-106.365
11
69.5505
21
-105.92
0
LINE
8
Black
10
69.5505
20
-105.92
11
69.106
21
-105.476
0
LINE
8
Black
10
69.106
20
-105.476
11
68.6615
21
-105.92
0
LINE
8
Black
10
68.6615
20
-105.92
11
69.106
21
-106.365
0
LINE
8
Black
10
69.36
20
-87.3145
11
69.8045
21
-86.87
0
LINE
8
Black
10
69.8045
20
-86.87
11
69.36
21
-86.4255
0
LINE
8
Black
10
69.36
20
-86.4255
11
68.9155
21
-86.87
0
LINE
8
Black
10
68.9155
20
-86.87
11
69.36
21
-87.3145
0
LINE
8
Black
10
69.868
20
-109.159
11
70.3125
21
-108.714
0
LINE
8
Black
10
70.3125
20
-108.714
11
69.868
21
-108.27
0
LINE
8
Black
10
69.868
20
-108.27
11
69.4235
21
-108.714
0
LINE
8
Black
10
69.4235
20
-108.714
11
69.868
21
-109.159
0
LINE
8
Black
10
74.44
20
-107.127
11
74.8845
21
-106.682
0
LINE
8
Black
10
74.8845
20
-106.682
11
74.44
21
-106.238
0
LINE
8
Black
10
74.44
20
-106.238
11
73.9955
21
-106.682
0
LINE
8
Black
10
73.9955
20
-106.682
11
74.44
21
-107.127
0
LINE
8
Black
10
80.264
20
-140.272
11
80.7085
21
-139.827
0
LINE
8
Black
10
80.7085
20
-139.827
11
80.264
21
-139.383
0
LINE
8
Black
10
80.264
20
-139.383
11
79.8195
21
-139.827
0
LINE
8
Black
10
79.8195
20
-139.827
11
80.264
21
-140.272
0
LINE
8
Black
10
80.282
20
-57.8505
11
80.7265
21
-57.406
0
LINE
8
Black
10
80.7265
20
-57.406
11
80.282
21
-56.9615
0
LINE
8
Black
10
80.282
20
-56.9615
11
79.8375
21
-57.406
0
LINE
8
Black
10
79.8375
20
-57.406
11
80.282
21
-57.8505
0
LINE
8
Black
10
80.536
20
-55.5645
11
80.9805
21
-55.12
0
LINE
8
Black
10
80.9805
20
-55.12
11
80.536
21
-54.6755
0
LINE
8
Black
10
80.536
20
-54.6755
11
80.0915
21
-55.12
0
LINE
8
Black
10
80.0915
20
-55.12
11
80.536
21
-55.5645
0
LINE
8
Black
10
80.536
20
-59.8825
11
80.9805
21
-59.438
0
LINE
8
Black
10
80.9805
20
-59.438
11
80.536
21
-58.9935
0
LINE
8
Black
10
80.536
20
-58.9935
11
80.0915
21
-59.438
0
LINE
8
Black
10
80.0915
20
-59.438
11
80.536
21
-59.8825
0
LINE
8
Black
10
80.536
20
-61.9145
11
80.9805
21
-61.47
0
LINE
8
Black
10
80.9805
20
-61.47
11
80.536
21
-61.0255
0
LINE
8
Black
10
80.536
20
-61.0255
11
80.0915
21
-61.47
0
LINE
8
Black
10
80.0915
20
-61.47
11
80.536
21
-61.9145
0
LINE
8
Black
10
80.536
20
-63.6925
11
80.9805
21
-63.248
0
LINE
8
Black
10
80.9805
20
-63.248
11
80.536
21
-62.8035
0
LINE
8
Black
10
80.536
20
-62.8035
11
80.0915
21
-63.248
0
LINE
8
Black
10
80.0915
20
-63.248
11
80.536
21
-63.6925
0
LINE
8
Black
10
83.838
20
-38.5465
11
84.2825
21
-38.102
0
LINE
8
Black
10
84.2825
20
-38.102
11
83.838
21
-37.6575
0
LINE
8
Black
10
83.838
20
-37.6575
11
83.3935
21
-38.102
0
LINE
8
Black
10
83.3935
20
-38.102
11
83.838
21
-38.5465
0
LINE
8
Black
10
83.838
20
-43.8805
11
84.2825
21
-43.436
0
LINE
8
Black
10
84.2825
20
-43.436
11
83.838
21
-42.9915
0
LINE
8
Black
10
83.838
20
-42.9915
11
83.3935
21
-43.436
0
LINE
8
Black
10
83.3935
20
-43.436
11
83.838
21
-43.8805
0
LINE
8
Black
10
83.838
20
-47.1825
11
84.2825
21
-46.738
0
LINE
8
Black
10
84.2825
20
-46.738
11
83.838
21
-46.2935
0
LINE
8
Black
10
83.838
20
-46.2935
11
83.3935
21
-46.738
0
LINE
8
Black
10
83.3935
20
-46.738
11
83.838
21
-47.1825
0
LINE
8
Black
10
84.092
20
-41.3405
11
84.5365
21
-40.896
0
LINE
8
Black
10
84.5365
20
-40.896
11
84.092
21
-40.4515
0
LINE
8
Black
10
84.092
20
-40.4515
11
83.6475
21
-40.896
0
LINE
8
Black
10
83.6475
20
-40.896
11
84.092
21
-41.3405
0
LINE
8
Black
10
84.346
20
-35.2445
11
84.7905
21
-34.8
0
LINE
8
Black
10
84.7905
20
-34.8
11
84.346
21
-34.3555
0
LINE
8
Black
10
84.346
20
-34.3555
11
83.9015
21
-34.8
0
LINE
8
Black
10
83.9015
20
-34.8
11
84.346
21
-35.2445
0
LINE
8
Black
10
88.664
20
-54.8025
11
89.1085
21
-54.358
0
LINE
8
Black
10
89.1085
20
-54.358
11
88.664
21
-53.9135
0
LINE
8
Black
10
88.664
20
-53.9135
11
88.2195
21
-54.358
0
LINE
8
Black
10
88.2195
20
-54.358
11
88.664
21
-54.8025
0
LINE
8
Black
10
89.934
20
-31.9425
11
90.3785
21
-31.498
0
LINE
8
Black
10
90.3785
20
-31.498
11
89.934
21
-31.0535
0
LINE
8
Black
10
89.934
20
-31.0535
11
89.4895
21
-31.498
0
LINE
8
Black
10
89.4895
20
-31.498
11
89.934
21
-31.9425
0
LINE
8
Black
10
89.934
20
-58.1045
11
90.3785
21
-57.66
0
LINE
8
Black
10
90.3785
20
-57.66
11
89.934
21
-57.2155
0
LINE
8
Black
10
89.934
20
-57.2155
11
89.4895
21
-57.66
0
LINE
8
Black
10
89.4895
20
-57.66
11
89.934
21
-58.1045
0
LINE
8
Black
10
91.186
20
-129.858
11
91.6305
21
-129.413
0
LINE
8
Black
10
91.6305
20
-129.413
11
91.186
21
-128.969
0
LINE
8
Black
10
91.186
20
-128.969
11
90.7415
21
-129.413
0
LINE
8
Black
10
90.7415
20
-129.413
11
91.186
21
-129.858
0
LINE
8
Black
10
91.204
20
-60.8985
11
91.6485
21
-60.454
0
LINE
8
Black
10
91.6485
20
-60.454
11
91.204
21
-60.0095
0
LINE
8
Black
10
91.204
20
-60.0095
11
90.7595
21
-60.454
0
LINE
8
Black
10
90.7595
20
-60.454
11
91.204
21
-60.8985
0
LINE
8
Black
10
94.506
20
-104.333
11
94.9505
21
-103.888
0
LINE
8
Black
10
94.9505
20
-103.888
11
94.506
21
-103.444
0
LINE
8
Black
10
94.506
20
-103.444
11
94.0615
21
-103.888
0
LINE
8
Black
10
94.0615
20
-103.888
11
94.506
21
-104.333
0
LINE
8
Black
10
98.298
20
-32.3215
11
98.7425
21
-31.877
0
LINE
8
Black
10
98.7425
20
-31.877
11
98.298
21
-31.4325
0
LINE
8
Black
10
98.298
20
-31.4325
11
97.8535
21
-31.877
0
LINE
8
Black
10
97.8535
20
-31.877
11
98.298
21
-32.3215
0
LINE
8
Black
10
104.267
20
-69.9135
11
104.712
21
-69.469
0
LINE
8
Black
10
104.712
20
-69.469
11
104.267
21
-69.0245
0
LINE
8
Black
10
104.267
20
-69.0245
11
103.823
21
-69.469
0
LINE
8
Black
10
103.823
20
-69.469
11
104.267
21
-69.9135
0
LINE
8
Black
10
111.506
20
-81.5975
11
111.951
21
-81.153
0
LINE
8
Black
10
111.951
20
-81.153
11
111.506
21
-80.7085
0
LINE
8
Black
10
111.506
20
-80.7085
11
111.062
21
-81.153
0
LINE
8
Black
10
111.062
20
-81.153
11
111.506
21
-81.5975
0
LINE
8
Black
10
143.02
20
-46.4205
11
143.465
21
-45.976
0
LINE
8
Black
10
143.465
20
-45.976
11
143.02
21
-45.5315
0
LINE
8
Black
10
143.02
20
-45.5315
11
142.576
21
-45.976
0
LINE
8
Black
10
142.576
20
-45.976
11
143.02
21
-46.4205
0
LINE
8
Black
10
150.64
20
-56.0725
11
151.085
21
-55.628
0
LINE
8
Black
10
151.085
20
-55.628
11
150.64
21
-55.1835
0
LINE
8
Black
10
150.64
20
-55.1835
11
150.196
21
-55.628
0
LINE
8
Black
10
150.196
20
-55.628
11
150.64
21
-56.0725
0
LINE
8
Black
10
153.924
20
-143.066
11
154.369
21
-142.621
0
LINE
8
Black
10
154.369
20
-142.621
11
153.924
21
-142.177
0
LINE
8
Black
10
153.924
20
-142.177
11
153.48
21
-142.621
0
LINE
8
Black
10
153.48
20
-142.621
11
153.924
21
-143.066
0
LINE
8
Black
10
155.974
20
-46.4205
11
156.419
21
-45.976
0
LINE
8
Black
10
156.419
20
-45.976
11
155.974
21
-45.5315
0
LINE
8
Black
10
155.974
20
-45.5315
11
155.53
21
-45.976
0
LINE
8
Black
10
155.53
20
-45.976
11
155.974
21
-46.4205
0
LINE
8
Black
10
163.34
20
-56.0725
11
163.785
21
-55.628
0
LINE
8
Black
10
163.785
20
-55.628
11
163.34
21
-55.1835
0
LINE
8
Black
10
163.34
20
-55.1835
11
162.896
21
-55.628
0
LINE
8
Black
10
162.896
20
-55.628
11
163.34
21
-56.0725
0
LINE
8
Black
10
168.42
20
-46.4205
11
168.865
21
-45.976
0
LINE
8
Black
10
168.865
20
-45.976
11
168.42
21
-45.5315
0
LINE
8
Black
10
168.42
20
-45.5315
11
167.976
21
-45.976
0
LINE
8
Black
10
167.976
20
-45.976
11
168.42
21
-46.4205
0
LINE
8
Black
10
172.992
20
-58.1045
11
173.437
21
-57.66
0
LINE
8
Black
10
173.437
20
-57.66
11
172.992
21
-57.2155
0
LINE
8
Black
10
172.992
20
-57.2155
11
172.548
21
-57.66
0
LINE
8
Black
10
172.548
20
-57.66
11
172.992
21
-58.1045
0
LINE
8
Black
10
178.689
20
-139.764
11
179.134
21
-139.319
0
LINE
8
Black
10
179.134
20
-139.319
11
178.689
21
-138.875
0
LINE
8
Black
10
178.689
20
-138.875
11
178.245
21
-139.319
0
LINE
8
Black
10
178.245
20
-139.319
11
178.689
21
-139.764
0
LINE
8
Black
10
180.34
20
-98.6155
11
180.785
21
-98.171
0
LINE
8
Black
10
180.785
20
-98.171
11
180.34
21
-97.7265
0
LINE
8
Black
10
180.34
20
-97.7265
11
179.896
21
-98.171
0
LINE
8
Black
10
179.896
20
-98.171
11
180.34
21
-98.6155
0
LINE
8
Black
10
184.93
20
-63.9465
11
185.375
21
-63.502
0
LINE
8
Black
10
185.375
20
-63.502
11
184.93
21
-63.0575
0
LINE
8
Black
10
184.93
20
-63.0575
11
184.486
21
-63.502
0
LINE
8
Black
10
184.486
20
-63.502
11
184.93
21
-63.9465
0
LINE
8
Black
10
191.643
20
-139.383
11
192.088
21
-138.938
0
LINE
8
Black
10
192.088
20
-138.938
11
191.643
21
-138.494
0
LINE
8
Black
10
191.643
20
-138.494
11
191.199
21
-138.938
0
LINE
8
Black
10
191.199
20
-138.938
11
191.643
21
-139.383
0
LINE
8
Black
10
196.596
20
-140.78
11
197.041
21
-140.335
0
LINE
8
Black
10
197.041
20
-140.335
11
196.596
21
-139.891
0
LINE
8
Black
10
196.596
20
-139.891
11
196.152
21
-140.335
0
LINE
8
Black
10
196.152
20
-140.335
11
196.596
21
-140.78
0
LINE
8
Black
10
199.517
20
-140.145
11
199.962
21
-139.7
0
LINE
8
Black
10
199.962
20
-139.7
11
199.517
21
-139.256
0
LINE
8
Black
10
199.517
20
-139.256
11
199.073
21
-139.7
0
LINE
8
Black
10
199.073
20
-139.7
11
199.517
21
-140.145
0
LINE
8
Black
10
204.343
20
-113.602
11
204.788
21
-113.157
0
LINE
8
Black
10
204.788
20
-113.157
11
204.343
21
-112.713
0
LINE
8
Black
10
204.343
20
-112.713
11
203.899
21
-113.157
0
LINE
8
Black
10
203.899
20
-113.157
11
204.343
21
-113.602
0
LINE
8
Black
10
50.2643
20
-79.5116
11
51.265
21
-80.5124
0
LINE
8
Black
10
51.265
20
-79.5116
11
50.2643
21
-80.5124
0
CIRCLE
8
Black
10
50.7647
20
-80.012
40
0.50038
0
LINE
8
Black
10
50.2643
20
-79.0125
11
50.2643
21
-81.0115
0
LINE
8
Black
10
51.265
20
-79.0125
11
51.265
21
-81.0115
0
ARC
8
Black
10
50.7647
20
-81.0115
40
0.50038
50
180
51
360
0
ARC
8
Black
10
50.7647
20
-79.0125
40
0.50038
50
0
51
180
0
LINE
8
Black
10
53.264
20
-84.2106
11
54.2648
21
-85.2114
0
LINE
8
Black
10
54.2648
20
-84.2106
11
53.264
21
-85.2114
0
CIRCLE
8
Black
10
53.7644
20
-84.711
40
0.50038
0
LINE
8
Black
10
52.7649
20
-85.2114
11
54.7639
21
-85.2114
0
LINE
8
Black
10
52.7649
20
-84.2106
11
54.7639
21
-84.2106
0
ARC
8
Black
10
54.7639
20
-84.711
40
0.50038
50
270
51
450
0
ARC
8
Black
10
52.7649
20
-84.711
40
0.50038
50
90
51
270
0
LINE
8
Black
10
56.2638
20
-79.5116
11
57.2645
21
-80.5124
0
LINE
8
Black
10
57.2645
20
-79.5116
11
56.2638
21
-80.5124
0
CIRCLE
8
Black
10
56.7641
20
-80.012
40
0.50038
0
LINE
8
Black
10
56.2638
20
-79.0125
11
56.2638
21
-81.0115
0
LINE
8
Black
10
57.2645
20
-79.0125
11
57.2645
21
-81.0115
0
ARC
8
Black
10
56.7641
20
-81.0115
40
0.50038
50
180
51
360
0
ARC
8
Black
10
56.7641
20
-79.0125
40
0.50038
50
0
51
180
0
LINE
8
Black
10
164.7
20
-103.5
11
165.701
21
-104.5
0
LINE
8
Black
10
165.701
20
-103.5
11
164.7
21
-104.5
0
CIRCLE
8
Black
10
165.2
20
-104
40
0.50038
0
LINE
8
Black
10
172.299
20
-103.5
11
173.3
21
-104.5
0
LINE
8
Black
10
173.3
20
-103.5
11
172.299
21
-104.5
0
CIRCLE
8
Black
10
172.8
20
-104
40
0.50038
0
LINE
8
Black
10
46.627
20
-118.112
11
47.643
21
-119.128
0
LINE
8
Black
10
47.643
20
-118.112
11
46.627
21
-119.128
0
LINE
8
Black
10
47.135
20
-118.112
11
47.135
21
-119.128
0
LINE
8
Black
10
46.627
20
-118.62
11
47.643
21
-118.62
0
LINE
8
Black
10
46.627
20
-121.287
11
47.643
21
-122.303
0
LINE
8
Black
10
47.643
20
-121.287
11
46.627
21
-122.303
0
LINE
8
Black
10
47.135
20
-121.287
11
47.135
21
-122.303
0
LINE
8
Black
10
46.627
20
-121.795
11
47.643
21
-121.795
0
LINE
8
Black
10
46.627
20
-126.367
11
47.643
21
-127.383
0
LINE
8
Black
10
47.643
20
-126.367
11
46.627
21
-127.383
0
LINE
8
Black
10
47.135
20
-126.367
11
47.135
21
-127.383
0
LINE
8
Black
10
46.627
20
-126.875
11
47.643
21
-126.875
0
LINE
8
Black
10
46.627
20
-129.542
11
47.643
21
-130.558
0
LINE
8
Black
10
47.643
20
-129.542
11
46.627
21
-130.558
0
LINE
8
Black
10
47.135
20
-129.542
11
47.135
21
-130.558
0
LINE
8
Black
10
46.627
20
-130.05
11
47.643
21
-130.05
0
LINE
8
Black
10
46.627
20
-134.622
11
47.643
21
-135.638
0
LINE
8
Black
10
47.643
20
-134.622
11
46.627
21
-135.638
0
LINE
8
Black
10
47.135
20
-134.622
11
47.135
21
-135.638
0
LINE
8
Black
10
46.627
20
-135.13
11
47.643
21
-135.13
0
LINE
8
Black
10
46.627
20
-137.797
11
47.643
21
-138.813
0
LINE
8
Black
10
47.643
20
-137.797
11
46.627
21
-138.813
0
LINE
8
Black
10
47.135
20
-137.797
11
47.135
21
-138.813
0
LINE
8
Black
10
46.627
20
-138.305
11
47.643
21
-138.305
0
LINE
8
Black
10
49.167
20
-118.112
11
50.183
21
-119.128
0
LINE
8
Black
10
50.183
20
-118.112
11
49.167
21
-119.128
0
LINE
8
Black
10
49.675
20
-118.112
11
49.675
21
-119.128
0
LINE
8
Black
10
49.167
20
-118.62
11
50.183
21
-118.62
0
LINE
8
Black
10
49.167
20
-121.287
11
50.183
21
-122.303
0
LINE
8
Black
10
50.183
20
-121.287
11
49.167
21
-122.303
0
LINE
8
Black
10
49.675
20
-121.287
11
49.675
21
-122.303
0
LINE
8
Black
10
49.167
20
-121.795
11
50.183
21
-121.795
0
LINE
8
Black
10
49.167
20
-126.367
11
50.183
21
-127.383
0
LINE
8
Black
10
50.183
20
-126.367
11
49.167
21
-127.383
0
LINE
8
Black
10
49.675
20
-126.367
11
49.675
21
-127.383
0
LINE
8
Black
10
49.167
20
-126.875
11
50.183
21
-126.875
0
LINE
8
Black
10
49.167
20
-129.542
11
50.183
21
-130.558
0
LINE
8
Black
10
50.183
20
-129.542
11
49.167
21
-130.558
0
LINE
8
Black
10
49.675
20
-129.542
11
49.675
21
-130.558
0
LINE
8
Black
10
49.167
20
-130.05
11
50.183
21
-130.05
0
LINE
8
Black
10
49.167
20
-134.622
11
50.183
21
-135.638
0
LINE
8
Black
10
50.183
20
-134.622
11
49.167
21
-135.638
0
LINE
8
Black
10
49.675
20
-134.622
11
49.675
21
-135.638
0
LINE
8
Black
10
49.167
20
-135.13
11
50.183
21
-135.13
0
LINE
8
Black
10
49.167
20
-137.797
11
50.183
21
-138.813
0
LINE
8
Black
10
50.183
20
-137.797
11
49.167
21
-138.813
0
LINE
8
Black
10
49.675
20
-137.797
11
49.675
21
-138.813
0
LINE
8
Black
10
49.167
20
-138.305
11
50.183
21
-138.305
0
LINE
8
Black
10
51.707
20
-118.112
11
52.723
21
-119.128
0
LINE
8
Black
10
52.723
20
-118.112
11
51.707
21
-119.128
0
LINE
8
Black
10
52.215
20
-118.112
11
52.215
21
-119.128
0
LINE
8
Black
10
51.707
20
-118.62
11
52.723
21
-118.62
0
LINE
8
Black
10
51.707
20
-121.287
11
52.723
21
-122.303
0
LINE
8
Black
10
52.723
20
-121.287
11
51.707
21
-122.303
0
LINE
8
Black
10
52.215
20
-121.287
11
52.215
21
-122.303
0
LINE
8
Black
10
51.707
20
-121.795
11
52.723
21
-121.795
0
LINE
8
Black
10
51.707
20
-126.367
11
52.723
21
-127.383
0
LINE
8
Black
10
52.723
20
-126.367
11
51.707
21
-127.383
0
LINE
8
Black
10
52.215
20
-126.367
11
52.215
21
-127.383
0
LINE
8
Black
10
51.707
20
-126.875
11
52.723
21
-126.875
0
LINE
8
Black
10
51.707
20
-129.542
11
52.723
21
-130.558
0
LINE
8
Black
10
52.723
20
-129.542
11
51.707
21
-130.558
0
LINE
8
Black
10
52.215
20
-129.542
11
52.215
21
-130.558
0
LINE
8
Black
10
51.707
20
-130.05
11
52.723
21
-130.05
0
LINE
8
Black
10
51.707
20
-134.622
11
52.723
21
-135.638
0
LINE
8
Black
10
52.723
20
-134.622
11
51.707
21
-135.638
0
LINE
8
Black
10
52.215
20
-134.622
11
52.215
21
-135.638
0
LINE
8
Black
10
51.707
20
-135.13
11
52.723
21
-135.13
0
LINE
8
Black
10
51.707
20
-137.797
11
52.723
21
-138.813
0
LINE
8
Black
10
52.723
20
-137.797
11
51.707
21
-138.813
0
LINE
8
Black
10
52.215
20
-137.797
11
52.215
21
-138.813
0
LINE
8
Black
10
51.707
20
-138.305
11
52.723
21
-138.305
0
LINE
8
Black
10
52.698
20
-144.492
11
53.714
21
-145.508
0
LINE
8
Black
10
53.714
20
-144.492
11
52.698
21
-145.508
0
LINE
8
Black
10
53.206
20
-144.492
11
53.206
21
-145.508
0
LINE
8
Black
10
52.698
20
-145
11
53.714
21
-145
0
LINE
8
Black
10
54.247
20
-118.112
11
55.263
21
-119.128
0
LINE
8
Black
10
55.263
20
-118.112
11
54.247
21
-119.128
0
LINE
8
Black
10
54.755
20
-118.112
11
54.755
21
-119.128
0
LINE
8
Black
10
54.247
20
-118.62
11
55.263
21
-118.62
0
LINE
8
Black
10
54.247
20
-121.287
11
55.263
21
-122.303
0
LINE
8
Black
10
55.263
20
-121.287
11
54.247
21
-122.303
0
LINE
8
Black
10
54.755
20
-121.287
11
54.755
21
-122.303
0
LINE
8
Black
10
54.247
20
-121.795
11
55.263
21
-121.795
0
LINE
8
Black
10
54.247
20
-126.367
11
55.263
21
-127.383
0
LINE
8
Black
10
55.263
20
-126.367
11
54.247
21
-127.383
0
LINE
8
Black
10
54.755
20
-126.367
11
54.755
21
-127.383
0
LINE
8
Black
10
54.247
20
-126.875
11
55.263
21
-126.875
0
LINE
8
Black
10
54.247
20
-129.542
11
55.263
21
-130.558
0
LINE
8
Black
10
55.263
20
-129.542
11
54.247
21
-130.558
0
LINE
8
Black
10
54.755
20
-129.542
11
54.755
21
-130.558
0
LINE
8
Black
10
54.247
20
-130.05
11
55.263
21
-130.05
0
LINE
8
Black
10
54.247
20
-134.622
11
55.263
21
-135.638
0
LINE
8
Black
10
55.263
20
-134.622
11
54.247
21
-135.638
0
LINE
8
Black
10
54.755
20
-134.622
11
54.755
21
-135.638
0
LINE
8
Black
10
54.247
20
-135.13
11
55.263
21
-135.13
0
LINE
8
Black
10
54.247
20
-137.797
11
55.263
21
-138.813
0
LINE
8
Black
10
55.263
20
-137.797
11
54.247
21
-138.813
0
LINE
8
Black
10
54.755
20
-137.797
11
54.755
21
-138.813
0
LINE
8
Black
10
54.247
20
-138.305
11
55.263
21
-138.305
0
LINE
8
Black
10
55.492
20
-144.492
11
56.508
21
-145.508
0
LINE
8
Black
10
56.508
20
-144.492
11
55.492
21
-145.508
0
LINE
8
Black
10
56
20
-144.492
11
56
21
-145.508
0
LINE
8
Black
10
55.492
20
-145
11
56.508
21
-145
0
LINE
8
Black
10
58.2911
20
-144.492
11
59.3071
21
-145.508
0
LINE
8
Black
10
59.3071
20
-144.492
11
58.2911
21
-145.508
0
LINE
8
Black
10
58.7991
20
-144.492
11
58.7991
21
-145.508
0
LINE
8
Black
10
58.2911
20
-145
11
59.3071
21
-145
0
LINE
8
Black
10
59.232
20
-91.992
11
60.248
21
-93.008
0
LINE
8
Black
10
60.248
20
-91.992
11
59.232
21
-93.008
0
LINE
8
Black
10
59.74
20
-91.992
11
59.74
21
-93.008
0
LINE
8
Black
10
59.232
20
-92.5
11
60.248
21
-92.5
0
LINE
8
Black
10
61.772
20
-91.992
11
62.788
21
-93.008
0
LINE
8
Black
10
62.788
20
-91.992
11
61.772
21
-93.008
0
LINE
8
Black
10
62.28
20
-91.992
11
62.28
21
-93.008
0
LINE
8
Black
10
61.772
20
-92.5
11
62.788
21
-92.5
0
LINE
8
Black
10
64.312
20
-91.992
11
65.328
21
-93.008
0
LINE
8
Black
10
65.328
20
-91.992
11
64.312
21
-93.008
0
LINE
8
Black
10
64.82
20
-91.992
11
64.82
21
-93.008
0
LINE
8
Black
10
64.312
20
-92.5
11
65.328
21
-92.5
0
LINE
8
Black
10
66.852
20
-91.992
11
67.868
21
-93.008
0
LINE
8
Black
10
67.868
20
-91.992
11
66.852
21
-93.008
0
LINE
8
Black
10
67.36
20
-91.992
11
67.36
21
-93.008
0
LINE
8
Black
10
66.852
20
-92.5
11
67.868
21
-92.5
0
LINE
8
Black
10
69.392
20
-91.992
11
70.408
21
-93.008
0
LINE
8
Black
10
70.408
20
-91.992
11
69.392
21
-93.008
0
LINE
8
Black
10
69.9
20
-91.992
11
69.9
21
-93.008
0
LINE
8
Black
10
69.392
20
-92.5
11
70.408
21
-92.5
0
LINE
8
Black
10
71.932
20
-91.992
11
72.948
21
-93.008
0
LINE
8
Black
10
72.948
20
-91.992
11
71.932
21
-93.008
0
LINE
8
Black
10
72.44
20
-91.992
11
72.44
21
-93.008
0
LINE
8
Black
10
71.932
20
-92.5
11
72.948
21
-92.5
0
LINE
8
Black
10
72.662
20
-99.062
11
73.678
21
-100.078
0
LINE
8
Black
10
73.678
20
-99.062
11
72.662
21
-100.078
0
LINE
8
Black
10
73.17
20
-99.062
11
73.17
21
-100.078
0
LINE
8
Black
10
72.662
20
-99.57
11
73.678
21
-99.57
0
LINE
8
Black
10
74.472
20
-91.992
11
75.488
21
-93.008
0
LINE
8
Black
10
75.488
20
-91.992
11
74.472
21
-93.008
0
LINE
8
Black
10
74.98
20
-91.992
11
74.98
21
-93.008
0
LINE
8
Black
10
74.472
20
-92.5
11
75.488
21
-92.5
0
LINE
8
Black
10
75.202
20
-99.062
11
76.218
21
-100.078
0
LINE
8
Black
10
76.218
20
-99.062
11
75.202
21
-100.078
0
LINE
8
Black
10
75.71
20
-99.062
11
75.71
21
-100.078
0
LINE
8
Black
10
75.202
20
-99.57
11
76.218
21
-99.57
0
LINE
8
Black
10
75.492
20
-32.492
11
76.508
21
-33.508
0
LINE
8
Black
10
76.508
20
-32.492
11
75.492
21
-33.508
0
LINE
8
Black
10
76
20
-32.492
11
76
21
-33.508
0
LINE
8
Black
10
75.492
20
-33
11
76.508
21
-33
0
LINE
8
Black
10
75.492
20
-35.032
11
76.508
21
-36.048
0
LINE
8
Black
10
76.508
20
-35.032
11
75.492
21
-36.048
0
LINE
8
Black
10
76
20
-35.032
11
76
21
-36.048
0
LINE
8
Black
10
75.492
20
-35.54
11
76.508
21
-35.54
0
LINE
8
Black
10
75.492
20
-37.572
11
76.508
21
-38.588
0
LINE
8
Black
10
76.508
20
-37.572
11
75.492
21
-38.588
0
LINE
8
Black
10
76
20
-37.572
11
76
21
-38.588
0
LINE
8
Black
10
75.492
20
-38.08
11
76.508
21
-38.08
0
LINE
8
Black
10
75.492
20
-40.112
11
76.508
21
-41.128
0
LINE
8
Black
10
76.508
20
-40.112
11
75.492
21
-41.128
0
LINE
8
Black
10
76
20
-40.112
11
76
21
-41.128
0
LINE
8
Black
10
75.492
20
-40.62
11
76.508
21
-40.62
0
LINE
8
Black
10
75.492
20
-42.652
11
76.508
21
-43.668
0
LINE
8
Black
10
76.508
20
-42.652
11
75.492
21
-43.668
0
LINE
8
Black
10
76
20
-42.652
11
76
21
-43.668
0
LINE
8
Black
10
75.492
20
-43.16
11
76.508
21
-43.16
0
LINE
8
Black
10
75.492
20
-45.192
11
76.508
21
-46.208
0
LINE
8
Black
10
76.508
20
-45.192
11
75.492
21
-46.208
0
LINE
8
Black
10
76
20
-45.192
11
76
21
-46.208
0
LINE
8
Black
10
75.492
20
-45.7
11
76.508
21
-45.7
0
LINE
8
Black
10
75.492
20
-47.732
11
76.508
21
-48.748
0
LINE
8
Black
10
76.508
20
-47.732
11
75.492
21
-48.748
0
LINE
8
Black
10
76
20
-47.732
11
76
21
-48.748
0
LINE
8
Black
10
75.492
20
-48.24
11
76.508
21
-48.24
0
LINE
8
Black
10
77.012
20
-91.992
11
78.028
21
-93.008
0
LINE
8
Black
10
78.028
20
-91.992
11
77.012
21
-93.008
0
LINE
8
Black
10
77.52
20
-91.992
11
77.52
21
-93.008
0
LINE
8
Black
10
77.012
20
-92.5
11
78.028
21
-92.5
0
LINE
8
Black
10
77.742
20
-99.062
11
78.758
21
-100.078
0
LINE
8
Black
10
78.758
20
-99.062
11
77.742
21
-100.078
0
LINE
8
Black
10
78.25
20
-99.062
11
78.25
21
-100.078
0
LINE
8
Black
10
77.742
20
-99.57
11
78.758
21
-99.57
0
LINE
8
Black
10
77.996
20
-122.43
11
79.012
21
-123.446
0
LINE
8
Black
10
79.012
20
-122.43
11
77.996
21
-123.446
0
LINE
8
Black
10
78.504
20
-122.43
11
78.504
21
-123.446
0
LINE
8
Black
10
77.996
20
-122.938
11
79.012
21
-122.938
0
LINE
8
Black
10
77.996
20
-124.97
11
79.012
21
-125.986
0
LINE
8
Black
10
79.012
20
-124.97
11
77.996
21
-125.986
0
LINE
8
Black
10
78.504
20
-124.97
11
78.504
21
-125.986
0
LINE
8
Black
10
77.996
20
-125.478
11
79.012
21
-125.478
0
LINE
8
Black
10
78.504
20
-134.876
11
79.52
21
-135.892
0
LINE
8
Black
10
79.52
20
-134.876
11
78.504
21
-135.892
0
LINE
8
Black
10
79.012
20
-134.876
11
79.012
21
-135.892
0
LINE
8
Black
10
78.504
20
-135.384
11
79.52
21
-135.384
0
LINE
8
Black
10
79.552
20
-91.992
11
80.568
21
-93.008
0
LINE
8
Black
10
80.568
20
-91.992
11
79.552
21
-93.008
0
LINE
8
Black
10
80.06
20
-91.992
11
80.06
21
-93.008
0
LINE
8
Black
10
79.552
20
-92.5
11
80.568
21
-92.5
0
LINE
8
Black
10
80.282
20
-99.062
11
81.298
21
-100.078
0
LINE
8
Black
10
81.298
20
-99.062
11
80.282
21
-100.078
0
LINE
8
Black
10
80.79
20
-99.062
11
80.79
21
-100.078
0
LINE
8
Black
10
80.282
20
-99.57
11
81.298
21
-99.57
0
LINE
8
Black
10
81.044
20
-134.876
11
82.06
21
-135.892
0
LINE
8
Black
10
82.06
20
-134.876
11
81.044
21
-135.892
0
LINE
8
Black
10
81.552
20
-134.876
11
81.552
21
-135.892
0
LINE
8
Black
10
81.044
20
-135.384
11
82.06
21
-135.384
0
LINE
8
Black
10
82.092
20
-91.992
11
83.108
21
-93.008
0
LINE
8
Black
10
83.108
20
-91.992
11
82.092
21
-93.008
0
LINE
8
Black
10
82.6
20
-91.992
11
82.6
21
-93.008
0
LINE
8
Black
10
82.092
20
-92.5
11
83.108
21
-92.5
0
LINE
8
Black
10
82.822
20
-99.062
11
83.838
21
-100.078
0
LINE
8
Black
10
83.838
20
-99.062
11
82.822
21
-100.078
0
LINE
8
Black
10
83.33
20
-99.062
11
83.33
21
-100.078
0
LINE
8
Black
10
82.822
20
-99.57
11
83.838
21
-99.57
0
LINE
8
Black
10
83.584
20
-134.876
11
84.6
21
-135.892
0
LINE
8
Black
10
84.6
20
-134.876
11
83.584
21
-135.892
0
LINE
8
Black
10
84.092
20
-134.876
11
84.092
21
-135.892
0
LINE
8
Black
10
83.584
20
-135.384
11
84.6
21
-135.384
0
LINE
8
Black
10
84.632
20
-91.992
11
85.648
21
-93.008
0
LINE
8
Black
10
85.648
20
-91.992
11
84.632
21
-93.008
0
LINE
8
Black
10
85.14
20
-91.992
11
85.14
21
-93.008
0
LINE
8
Black
10
84.632
20
-92.5
11
85.648
21
-92.5
0
LINE
8
Black
10
85.362
20
-99.062
11
86.378
21
-100.078
0
LINE
8
Black
10
86.378
20
-99.062
11
85.362
21
-100.078
0
LINE
8
Black
10
85.87
20
-99.062
11
85.87
21
-100.078
0
LINE
8
Black
10
85.362
20
-99.57
11
86.378
21
-99.57
0
LINE
8
Black
10
87.172
20
-91.992
11
88.188
21
-93.008
0
LINE
8
Black
10
88.188
20
-91.992
11
87.172
21
-93.008
0
LINE
8
Black
10
87.68
20
-91.992
11
87.68
21
-93.008
0
LINE
8
Black
10
87.172
20
-92.5
11
88.188
21
-92.5
0
LINE
8
Black
10
87.902
20
-99.062
11
88.918
21
-100.078
0
LINE
8
Black
10
88.918
20
-99.062
11
87.902
21
-100.078
0
LINE
8
Black
10
88.41
20
-99.062
11
88.41
21
-100.078
0
LINE
8
Black
10
87.902
20
-99.57
11
88.918
21
-99.57
0
LINE
8
Black
10
89.712
20
-91.992
11
90.728
21
-93.008
0
LINE
8
Black
10
90.728
20
-91.992
11
89.712
21
-93.008
0
LINE
8
Black
10
90.22
20
-91.992
11
90.22
21
-93.008
0
LINE
8
Black
10
89.712
20
-92.5
11
90.728
21
-92.5
0
LINE
8
Black
10
90.188
20
-134.876
11
91.204
21
-135.892
0
LINE
8
Black
10
91.204
20
-134.876
11
90.188
21
-135.892
0
LINE
8
Black
10
90.696
20
-134.876
11
90.696
21
-135.892
0
LINE
8
Black
10
90.188
20
-135.384
11
91.204
21
-135.384
0
LINE
8
Black
10
90.442
20
-99.062
11
91.458
21
-100.078
0
LINE
8
Black
10
91.458
20
-99.062
11
90.442
21
-100.078
0
LINE
8
Black
10
90.95
20
-99.062
11
90.95
21
-100.078
0
LINE
8
Black
10
90.442
20
-99.57
11
91.458
21
-99.57
0
LINE
8
Black
10
92.252
20
-91.992
11
93.268
21
-93.008
0
LINE
8
Black
10
93.268
20
-91.992
11
92.252
21
-93.008
0
LINE
8
Black
10
92.76
20
-91.992
11
92.76
21
-93.008
0
LINE
8
Black
10
92.252
20
-92.5
11
93.268
21
-92.5
0
LINE
8
Black
10
92.728
20
-134.876
11
93.744
21
-135.892
0
LINE
8
Black
10
93.744
20
-134.876
11
92.728
21
-135.892
0
LINE
8
Black
10
93.236
20
-134.876
11
93.236
21
-135.892
0
LINE
8
Black
10
92.728
20
-135.384
11
93.744
21
-135.384
0
LINE
8
Black
10
92.728
20
-144.782
11
93.744
21
-145.798
0
LINE
8
Black
10
93.744
20
-144.782
11
92.728
21
-145.798
0
LINE
8
Black
10
93.236
20
-144.782
11
93.236
21
-145.798
0
LINE
8
Black
10
92.728
20
-145.29
11
93.744
21
-145.29
0
LINE
8
Black
10
94.792
20
-91.992
11
95.808
21
-93.008
0
LINE
8
Black
10
95.808
20
-91.992
11
94.792
21
-93.008
0
LINE
8
Black
10
95.3
20
-91.992
11
95.3
21
-93.008
0
LINE
8
Black
10
94.792
20
-92.5
11
95.808
21
-92.5
0
LINE
8
Black
10
95.268
20
-134.876
11
96.284
21
-135.892
0
LINE
8
Black
10
96.284
20
-134.876
11
95.268
21
-135.892
0
LINE
8
Black
10
95.776
20
-134.876
11
95.776
21
-135.892
0
LINE
8
Black
10
95.268
20
-135.384
11
96.284
21
-135.384
0
LINE
8
Black
10
95.268
20
-144.782
11
96.284
21
-145.798
0
LINE
8
Black
10
96.284
20
-144.782
11
95.268
21
-145.798
0
LINE
8
Black
10
95.776
20
-144.782
11
95.776
21
-145.798
0
LINE
8
Black
10
95.268
20
-145.29
11
96.284
21
-145.29
0
LINE
8
Black
10
95.522
20
-99.062
11
96.538
21
-100.078
0
LINE
8
Black
10
96.538
20
-99.062
11
95.522
21
-100.078
0
LINE
8
Black
10
96.03
20
-99.062
11
96.03
21
-100.078
0
LINE
8
Black
10
95.522
20
-99.57
11
96.538
21
-99.57
0
LINE
8
Black
10
97.332
20
-91.992
11
98.348
21
-93.008
0
LINE
8
Black
10
98.348
20
-91.992
11
97.332
21
-93.008
0
LINE
8
Black
10
97.84
20
-91.992
11
97.84
21
-93.008
0
LINE
8
Black
10
97.332
20
-92.5
11
98.348
21
-92.5
0
LINE
8
Black
10
98.062
20
-99.062
11
99.078
21
-100.078
0
LINE
8
Black
10
99.078
20
-99.062
11
98.062
21
-100.078
0
LINE
8
Black
10
98.57
20
-99.062
11
98.57
21
-100.078
0
LINE
8
Black
10
98.062
20
-99.57
11
99.078
21
-99.57
0
LINE
8
Black
10
98.552
20
-62.738
11
99.568
21
-63.754
0
LINE
8
Black
10
99.568
20
-62.738
11
98.552
21
-63.754
0
LINE
8
Black
10
99.06
20
-62.738
11
99.06
21
-63.754
0
LINE
8
Black
10
98.552
20
-63.246
11
99.568
21
-63.246
0
LINE
8
Black
10
99.872
20
-91.992
11
100.888
21
-93.008
0
LINE
8
Black
10
100.888
20
-91.992
11
99.872
21
-93.008
0
LINE
8
Black
10
100.38
20
-91.992
11
100.38
21
-93.008
0
LINE
8
Black
10
99.872
20
-92.5
11
100.888
21
-92.5
0
LINE
8
Black
10
100.602
20
-99.062
11
101.618
21
-100.078
0
LINE
8
Black
10
101.618
20
-99.062
11
100.602
21
-100.078
0
LINE
8
Black
10
101.11
20
-99.062
11
101.11
21
-100.078
0
LINE
8
Black
10
100.602
20
-99.57
11
101.618
21
-99.57
0
LINE
8
Black
10
101.092
20
-62.738
11
102.108
21
-63.754
0
LINE
8
Black
10
102.108
20
-62.738
11
101.092
21
-63.754
0
LINE
8
Black
10
101.6
20
-62.738
11
101.6
21
-63.754
0
LINE
8
Black
10
101.092
20
-63.246
11
102.108
21
-63.246
0
LINE
8
Black
10
102.412
20
-91.992
11
103.428
21
-93.008
0
LINE
8
Black
10
103.428
20
-91.992
11
102.412
21
-93.008
0
LINE
8
Black
10
102.92
20
-91.992
11
102.92
21
-93.008
0
LINE
8
Black
10
102.412
20
-92.5
11
103.428
21
-92.5
0
LINE
8
Black
10
103.142
20
-99.062
11
104.158
21
-100.078
0
LINE
8
Black
10
104.158
20
-99.062
11
103.142
21
-100.078
0
LINE
8
Black
10
103.65
20
-99.062
11
103.65
21
-100.078
0
LINE
8
Black
10
103.142
20
-99.57
11
104.158
21
-99.57
0
LINE
8
Black
10
103.632
20
-62.738
11
104.648
21
-63.754
0
LINE
8
Black
10
104.648
20
-62.738
11
103.632
21
-63.754
0
LINE
8
Black
10
104.14
20
-62.738
11
104.14
21
-63.754
0
LINE
8
Black
10
103.632
20
-63.246
11
104.648
21
-63.246
0
LINE
8
Black
10
104.952
20
-91.992
11
105.968
21
-93.008
0
LINE
8
Black
10
105.968
20
-91.992
11
104.952
21
-93.008
0
LINE
8
Black
10
105.46
20
-91.992
11
105.46
21
-93.008
0
LINE
8
Black
10
104.952
20
-92.5
11
105.968
21
-92.5
0
LINE
8
Black
10
105.682
20
-99.062
11
106.698
21
-100.078
0
LINE
8
Black
10
106.698
20
-99.062
11
105.682
21
-100.078
0
LINE
8
Black
10
106.19
20
-99.062
11
106.19
21
-100.078
0
LINE
8
Black
10
105.682
20
-99.57
11
106.698
21
-99.57
0
LINE
8
Black
10
106.172
20
-62.738
11
107.188
21
-63.754
0
LINE
8
Black
10
107.188
20
-62.738
11
106.172
21
-63.754
0
LINE
8
Black
10
106.68
20
-62.738
11
106.68
21
-63.754
0
LINE
8
Black
10
106.172
20
-63.246
11
107.188
21
-63.246
0
LINE
8
Black
10
107.492
20
-91.992
11
108.508
21
-93.008
0
LINE
8
Black
10
108.508
20
-91.992
11
107.492
21
-93.008
0
LINE
8
Black
10
108
20
-91.992
11
108
21
-93.008
0
LINE
8
Black
10
107.492
20
-92.5
11
108.508
21
-92.5
0
LINE
8
Black
10
108.712
20
-62.738
11
109.728
21
-63.754
0
LINE
8
Black
10
109.728
20
-62.738
11
108.712
21
-63.754
0
LINE
8
Black
10
109.22
20
-62.738
11
109.22
21
-63.754
0
LINE
8
Black
10
108.712
20
-63.246
11
109.728
21
-63.246
0
LINE
8
Black
10
110.127
20
-107.444
11
111.143
21
-108.46
0
LINE
8
Black
10
111.143
20
-107.444
11
110.127
21
-108.46
0
LINE
8
Black
10
110.635
20
-107.444
11
110.635
21
-108.46
0
LINE
8
Black
10
110.127
20
-107.952
11
111.143
21
-107.952
0
LINE
8
Black
10
110.762
20
-99.062
11
111.778
21
-100.078
0
LINE
8
Black
10
111.778
20
-99.062
11
110.762
21
-100.078
0
LINE
8
Black
10
111.27
20
-99.062
11
111.27
21
-100.078
0
LINE
8
Black
10
110.762
20
-99.57
11
111.778
21
-99.57
0
LINE
8
Black
10
111.252
20
-62.738
11
112.268
21
-63.754
0
LINE
8
Black
10
112.268
20
-62.738
11
111.252
21
-63.754
0
LINE
8
Black
10
111.76
20
-62.738
11
111.76
21
-63.754
0
LINE
8
Black
10
111.252
20
-63.246
11
112.268
21
-63.246
0
LINE
8
Black
10
112.667
20
-107.444
11
113.683
21
-108.46
0
LINE
8
Black
10
113.683
20
-107.444
11
112.667
21
-108.46
0
LINE
8
Black
10
113.175
20
-107.444
11
113.175
21
-108.46
0
LINE
8
Black
10
112.667
20
-107.952
11
113.683
21
-107.952
0
LINE
8
Black
10
113.302
20
-99.062
11
114.318
21
-100.078
0
LINE
8
Black
10
114.318
20
-99.062
11
113.302
21
-100.078
0
LINE
8
Black
10
113.81
20
-99.062
11
113.81
21
-100.078
0
LINE
8
Black
10
113.302
20
-99.57
11
114.318
21
-99.57
0
LINE
8
Black
10
115.207
20
-107.444
11
116.223
21
-108.46
0
LINE
8
Black
10
116.223
20
-107.444
11
115.207
21
-108.46
0
LINE
8
Black
10
115.715
20
-107.444
11
115.715
21
-108.46
0
LINE
8
Black
10
115.207
20
-107.952
11
116.223
21
-107.952
0
LINE
8
Black
10
115.842
20
-99.062
11
116.858
21
-100.078
0
LINE
8
Black
10
116.858
20
-99.062
11
115.842
21
-100.078
0
LINE
8
Black
10
116.35
20
-99.062
11
116.35
21
-100.078
0
LINE
8
Black
10
115.842
20
-99.57
11
116.858
21
-99.57
0
LINE
8
Black
10
117.747
20
-107.444
11
118.763
21
-108.46
0
LINE
8
Black
10
118.763
20
-107.444
11
117.747
21
-108.46
0
LINE
8
Black
10
118.255
20
-107.444
11
118.255
21
-108.46
0
LINE
8
Black
10
117.747
20
-107.952
11
118.763
21
-107.952
0
LINE
8
Black
10
118.382
20
-99.062
11
119.398
21
-100.078
0
LINE
8
Black
10
119.398
20
-99.062
11
118.382
21
-100.078
0
LINE
8
Black
10
118.89
20
-99.062
11
118.89
21
-100.078
0
LINE
8
Black
10
118.382
20
-99.57
11
119.398
21
-99.57
0
LINE
8
Black
10
120.287
20
-107.444
11
121.303
21
-108.46
0
LINE
8
Black
10
121.303
20
-107.444
11
120.287
21
-108.46
0
LINE
8
Black
10
120.795
20
-107.444
11
120.795
21
-108.46
0
LINE
8
Black
10
120.287
20
-107.952
11
121.303
21
-107.952
0
LINE
8
Black
10
120.922
20
-99.062
11
121.938
21
-100.078
0
LINE
8
Black
10
121.938
20
-99.062
11
120.922
21
-100.078
0
LINE
8
Black
10
121.43
20
-99.062
11
121.43
21
-100.078
0
LINE
8
Black
10
120.922
20
-99.57
11
121.938
21
-99.57
0
LINE
8
Black
10
122.827
20
-107.444
11
123.843
21
-108.46
0
LINE
8
Black
10
123.843
20
-107.444
11
122.827
21
-108.46
0
LINE
8
Black
10
123.335
20
-107.444
11
123.335
21
-108.46
0
LINE
8
Black
10
122.827
20
-107.952
11
123.843
21
-107.952
0
LINE
8
Black
10
125.367
20
-107.444
11
126.383
21
-108.46
0
LINE
8
Black
10
126.383
20
-107.444
11
125.367
21
-108.46
0
LINE
8
Black
10
125.875
20
-107.444
11
125.875
21
-108.46
0
LINE
8
Black
10
125.367
20
-107.952
11
126.383
21
-107.952
0
LINE
8
Black
10
126.492
20
-99.187
11
127.508
21
-100.203
0
LINE
8
Black
10
127.508
20
-99.187
11
126.492
21
-100.203
0
LINE
8
Black
10
127
20
-99.187
11
127
21
-100.203
0
LINE
8
Black
10
126.492
20
-99.695
11
127.508
21
-99.695
0
LINE
8
Black
10
127.018
20
-25.656
11
128.034
21
-26.672
0
LINE
8
Black
10
128.034
20
-25.656
11
127.018
21
-26.672
0
LINE
8
Black
10
127.526
20
-25.656
11
127.526
21
-26.672
0
LINE
8
Black
10
127.018
20
-26.164
11
128.034
21
-26.164
0
LINE
8
Black
10
127.018
20
-28.196
11
128.034
21
-29.212
0
LINE
8
Black
10
128.034
20
-28.196
11
127.018
21
-29.212
0
LINE
8
Black
10
127.526
20
-28.196
11
127.526
21
-29.212
0
LINE
8
Black
10
127.018
20
-28.704
11
128.034
21
-28.704
0
LINE
8
Black
10
127.018
20
-30.736
11
128.034
21
-31.752
0
LINE
8
Black
10
128.034
20
-30.736
11
127.018
21
-31.752
0
LINE
8
Black
10
127.526
20
-30.736
11
127.526
21
-31.752
0
LINE
8
Black
10
127.018
20
-31.244
11
128.034
21
-31.244
0
LINE
8
Black
10
127.018
20
-33.276
11
128.034
21
-34.292
0
LINE
8
Black
10
128.034
20
-33.276
11
127.018
21
-34.292
0
LINE
8
Black
10
127.526
20
-33.276
11
127.526
21
-34.292
0
LINE
8
Black
10
127.018
20
-33.784
11
128.034
21
-33.784
0
LINE
8
Black
10
127.018
20
-35.816
11
128.034
21
-36.832
0
LINE
8
Black
10
128.034
20
-35.816
11
127.018
21
-36.832
0
LINE
8
Black
10
127.526
20
-35.816
11
127.526
21
-36.832
0
LINE
8
Black
10
127.018
20
-36.324
11
128.034
21
-36.324
0
LINE
8
Black
10
127.018
20
-38.356
11
128.034
21
-39.372
0
LINE
8
Black
10
128.034
20
-38.356
11
127.018
21
-39.372
0
LINE
8
Black
10
127.526
20
-38.356
11
127.526
21
-39.372
0
LINE
8
Black
10
127.018
20
-38.864
11
128.034
21
-38.864
0
LINE
8
Black
10
127.018
20
-40.896
11
128.034
21
-41.912
0
LINE
8
Black
10
128.034
20
-40.896
11
127.018
21
-41.912
0
LINE
8
Black
10
127.526
20
-40.896
11
127.526
21
-41.912
0
LINE
8
Black
10
127.018
20
-41.404
11
128.034
21
-41.404
0
LINE
8
Black
10
127.018
20
-43.436
11
128.034
21
-44.452
0
LINE
8
Black
10
128.034
20
-43.436
11
127.018
21
-44.452
0
LINE
8
Black
10
127.526
20
-43.436
11
127.526
21
-44.452
0
LINE
8
Black
10
127.018
20
-43.944
11
128.034
21
-43.944
0
LINE
8
Black
10
127.018
20
-50.802
11
128.034
21
-51.818
0
LINE
8
Black
10
128.034
20
-50.802
11
127.018
21
-51.818
0
LINE
8
Black
10
127.526
20
-50.802
11
127.526
21
-51.818
0
LINE
8
Black
10
127.018
20
-51.31
11
128.034
21
-51.31
0
LINE
8
Black
10
127.018
20
-53.342
11
128.034
21
-54.358
0
LINE
8
Black
10
128.034
20
-53.342
11
127.018
21
-54.358
0
LINE
8
Black
10
127.526
20
-53.342
11
127.526
21
-54.358
0
LINE
8
Black
10
127.018
20
-53.85
11
128.034
21
-53.85
0
LINE
8
Black
10
127.018
20
-55.882
11
128.034
21
-56.898
0
LINE
8
Black
10
128.034
20
-55.882
11
127.018
21
-56.898
0
LINE
8
Black
10
127.526
20
-55.882
11
127.526
21
-56.898
0
LINE
8
Black
10
127.018
20
-56.39
11
128.034
21
-56.39
0
LINE
8
Black
10
127.018
20
-58.422
11
128.034
21
-59.438
0
LINE
8
Black
10
128.034
20
-58.422
11
127.018
21
-59.438
0
LINE
8
Black
10
127.526
20
-58.422
11
127.526
21
-59.438
0
LINE
8
Black
10
127.018
20
-58.93
11
128.034
21
-58.93
0
LINE
8
Black
10
127.907
20
-107.444
11
128.923
21
-108.46
0
LINE
8
Black
10
128.923
20
-107.444
11
127.907
21
-108.46
0
LINE
8
Black
10
128.415
20
-107.444
11
128.415
21
-108.46
0
LINE
8
Black
10
127.907
20
-107.952
11
128.923
21
-107.952
0
LINE
8
Black
10
129.032
20
-99.187
11
130.048
21
-100.203
0
LINE
8
Black
10
130.048
20
-99.187
11
129.032
21
-100.203
0
LINE
8
Black
10
129.54
20
-99.187
11
129.54
21
-100.203
0
LINE
8
Black
10
129.032
20
-99.695
11
130.048
21
-99.695
0
LINE
8
Black
10
131.572
20
-99.187
11
132.588
21
-100.203
0
LINE
8
Black
10
132.588
20
-99.187
11
131.572
21
-100.203
0
LINE
8
Black
10
132.08
20
-99.187
11
132.08
21
-100.203
0
LINE
8
Black
10
131.572
20
-99.695
11
132.588
21
-99.695
0
LINE
8
Black
10
132.606
20
-107.698
11
133.622
21
-108.714
0
LINE
8
Black
10
133.622
20
-107.698
11
132.606
21
-108.714
0
LINE
8
Black
10
133.114
20
-107.698
11
133.114
21
-108.714
0
LINE
8
Black
10
132.606
20
-108.206
11
133.622
21
-108.206
0
LINE
8
Black
10
134.112
20
-99.187
11
135.128
21
-100.203
0
LINE
8
Black
10
135.128
20
-99.187
11
134.112
21
-100.203
0
LINE
8
Black
10
134.62
20
-99.187
11
134.62
21
-100.203
0
LINE
8
Black
10
134.112
20
-99.695
11
135.128
21
-99.695
0
LINE
8
Black
10
135.146
20
-107.698
11
136.162
21
-108.714
0
LINE
8
Black
10
136.162
20
-107.698
11
135.146
21
-108.714
0
LINE
8
Black
10
135.654
20
-107.698
11
135.654
21
-108.714
0
LINE
8
Black
10
135.146
20
-108.206
11
136.162
21
-108.206
0
LINE
8
Black
10
142.512
20
-85.092
11
143.528
21
-86.108
0
LINE
8
Black
10
143.528
20
-85.092
11
142.512
21
-86.108
0
LINE
8
Black
10
143.02
20
-85.092
11
143.02
21
-86.108
0
LINE
8
Black
10
142.512
20
-85.6
11
143.528
21
-85.6
0
LINE
8
Black
10
142.512
20
-87.632
11
143.528
21
-88.648
0
LINE
8
Black
10
143.528
20
-87.632
11
142.512
21
-88.648
0
LINE
8
Black
10
143.02
20
-87.632
11
143.02
21
-88.648
0
LINE
8
Black
10
142.512
20
-88.14
11
143.528
21
-88.14
0
LINE
8
Black
10
142.512
20
-90.172
11
143.528
21
-91.188
0
LINE
8
Black
10
143.528
20
-90.172
11
142.512
21
-91.188
0
LINE
8
Black
10
143.02
20
-90.172
11
143.02
21
-91.188
0
LINE
8
Black
10
142.512
20
-90.68
11
143.528
21
-90.68
0
LINE
8
Black
10
142.512
20
-92.712
11
143.528
21
-93.728
0
LINE
8
Black
10
143.528
20
-92.712
11
142.512
21
-93.728
0
LINE
8
Black
10
143.02
20
-92.712
11
143.02
21
-93.728
0
LINE
8
Black
10
142.512
20
-93.22
11
143.528
21
-93.22
0
LINE
8
Black
10
142.512
20
-95.252
11
143.528
21
-96.268
0
LINE
8
Black
10
143.528
20
-95.252
11
142.512
21
-96.268
0
LINE
8
Black
10
143.02
20
-95.252
11
143.02
21
-96.268
0
LINE
8
Black
10
142.512
20
-95.76
11
143.528
21
-95.76
0
LINE
8
Black
10
142.512
20
-97.792
11
143.528
21
-98.808
0
LINE
8
Black
10
143.528
20
-97.792
11
142.512
21
-98.808
0
LINE
8
Black
10
143.02
20
-97.792
11
143.02
21
-98.808
0
LINE
8
Black
10
142.512
20
-98.3
11
143.528
21
-98.3
0
LINE
8
Black
10
142.512
20
-100.332
11
143.528
21
-101.348
0
LINE
8
Black
10
143.528
20
-100.332
11
142.512
21
-101.348
0
LINE
8
Black
10
143.02
20
-100.332
11
143.02
21
-101.348
0
LINE
8
Black
10
142.512
20
-100.84
11
143.528
21
-100.84
0
LINE
8
Black
10
142.512
20
-102.872
11
143.528
21
-103.888
0
LINE
8
Black
10
143.528
20
-102.872
11
142.512
21
-103.888
0
LINE
8
Black
10
143.02
20
-102.872
11
143.02
21
-103.888
0
LINE
8
Black
10
142.512
20
-103.38
11
143.528
21
-103.38
0
LINE
8
Black
10
142.512
20
-105.412
11
143.528
21
-106.428
0
LINE
8
Black
10
143.528
20
-105.412
11
142.512
21
-106.428
0
LINE
8
Black
10
143.02
20
-105.412
11
143.02
21
-106.428
0
LINE
8
Black
10
142.512
20
-105.92
11
143.528
21
-105.92
0
LINE
8
Black
10
142.512
20
-107.952
11
143.528
21
-108.968
0
LINE
8
Black
10
143.528
20
-107.952
11
142.512
21
-108.968
0
LINE
8
Black
10
143.02
20
-107.952
11
143.02
21
-108.968
0
LINE
8
Black
10
142.512
20
-108.46
11
143.528
21
-108.46
0
LINE
8
Black
10
142.512
20
-110.492
11
143.528
21
-111.508
0
LINE
8
Black
10
143.528
20
-110.492
11
142.512
21
-111.508
0
LINE
8
Black
10
143.02
20
-110.492
11
143.02
21
-111.508
0
LINE
8
Black
10
142.512
20
-111
11
143.528
21
-111
0
LINE
8
Black
10
142.512
20
-113.032
11
143.528
21
-114.048
0
LINE
8
Black
10
143.528
20
-113.032
11
142.512
21
-114.048
0
LINE
8
Black
10
143.02
20
-113.032
11
143.02
21
-114.048
0
LINE
8
Black
10
142.512
20
-113.54
11
143.528
21
-113.54
0
LINE
8
Black
10
142.512
20
-115.572
11
143.528
21
-116.588
0
LINE
8
Black
10
143.528
20
-115.572
11
142.512
21
-116.588
0
LINE
8
Black
10
143.02
20
-115.572
11
143.02
21
-116.588
0
LINE
8
Black
10
142.512
20
-116.08
11
143.528
21
-116.08
0
LINE
8
Black
10
142.512
20
-118.112
11
143.528
21
-119.128
0
LINE
8
Black
10
143.528
20
-118.112
11
142.512
21
-119.128
0
LINE
8
Black
10
143.02
20
-118.112
11
143.02
21
-119.128
0
LINE
8
Black
10
142.512
20
-118.62
11
143.528
21
-118.62
0
LINE
8
Black
10
142.512
20
-120.652
11
143.528
21
-121.668
0
LINE
8
Black
10
143.528
20
-120.652
11
142.512
21
-121.668
0
LINE
8
Black
10
143.02
20
-120.652
11
143.02
21
-121.668
0
LINE
8
Black
10
142.512
20
-121.16
11
143.528
21
-121.16
0
LINE
8
Black
10
142.512
20
-123.192
11
143.528
21
-124.208
0
LINE
8
Black
10
143.528
20
-123.192
11
142.512
21
-124.208
0
LINE
8
Black
10
143.02
20
-123.192
11
143.02
21
-124.208
0
LINE
8
Black
10
142.512
20
-123.7
11
143.528
21
-123.7
0
LINE
8
Black
10
142.512
20
-125.732
11
143.528
21
-126.748
0
LINE
8
Black
10
143.528
20
-125.732
11
142.512
21
-126.748
0
LINE
8
Black
10
143.02
20
-125.732
11
143.02
21
-126.748
0
LINE
8
Black
10
142.512
20
-126.24
11
143.528
21
-126.24
0
LINE
8
Black
10
142.512
20
-128.272
11
143.528
21
-129.288
0
LINE
8
Black
10
143.528
20
-128.272
11
142.512
21
-129.288
0
LINE
8
Black
10
143.02
20
-128.272
11
143.02
21
-129.288
0
LINE
8
Black
10
142.512
20
-128.78
11
143.528
21
-128.78
0
LINE
8
Black
10
142.512
20
-130.812
11
143.528
21
-131.828
0
LINE
8
Black
10
143.528
20
-130.812
11
142.512
21
-131.828
0
LINE
8
Black
10
143.02
20
-130.812
11
143.02
21
-131.828
0
LINE
8
Black
10
142.512
20
-131.32
11
143.528
21
-131.32
0
LINE
8
Black
10
142.512
20
-133.352
11
143.528
21
-134.368
0
LINE
8
Black
10
143.528
20
-133.352
11
142.512
21
-134.368
0
LINE
8
Black
10
143.02
20
-133.352
11
143.02
21
-134.368
0
LINE
8
Black
10
142.512
20
-133.86
11
143.528
21
-133.86
0
LINE
8
Black
10
188.214
20
-45.466
11
189.23
21
-46.482
0
LINE
8
Black
10
189.23
20
-45.466
11
188.214
21
-46.482
0
LINE
8
Black
10
188.722
20
-45.466
11
188.722
21
-46.482
0
LINE
8
Black
10
188.214
20
-45.974
11
189.23
21
-45.974
0
LINE
8
Black
10
188.214
20
-48.006
11
189.23
21
-49.022
0
LINE
8
Black
10
189.23
20
-48.006
11
188.214
21
-49.022
0
LINE
8
Black
10
188.722
20
-48.006
11
188.722
21
-49.022
0
LINE
8
Black
10
188.214
20
-48.514
11
189.23
21
-48.514
0
LINE
8
Black
10
192.786
20
-146.177
11
193.802
21
-147.193
0
LINE
8
Black
10
193.802
20
-146.177
11
192.786
21
-147.193
0
LINE
8
Black
10
193.294
20
-146.177
11
193.294
21
-147.193
0
LINE
8
Black
10
192.786
20
-146.685
11
193.802
21
-146.685
0
LINE
8
Black
10
193.312
20
-85.092
11
194.328
21
-86.108
0
LINE
8
Black
10
194.328
20
-85.092
11
193.312
21
-86.108
0
LINE
8
Black
10
193.82
20
-85.092
11
193.82
21
-86.108
0
LINE
8
Black
10
193.312
20
-85.6
11
194.328
21
-85.6
0
LINE
8
Black
10
193.312
20
-87.632
11
194.328
21
-88.648
0
LINE
8
Black
10
194.328
20
-87.632
11
193.312
21
-88.648
0
LINE
8
Black
10
193.82
20
-87.632
11
193.82
21
-88.648
0
LINE
8
Black
10
193.312
20
-88.14
11
194.328
21
-88.14
0
LINE
8
Black
10
193.312
20
-90.172
11
194.328
21
-91.188
0
LINE
8
Black
10
194.328
20
-90.172
11
193.312
21
-91.188
0
LINE
8
Black
10
193.82
20
-90.172
11
193.82
21
-91.188
0
LINE
8
Black
10
193.312
20
-90.68
11
194.328
21
-90.68
0
LINE
8
Black
10
193.312
20
-92.712
11
194.328
21
-93.728
0
LINE
8
Black
10
194.328
20
-92.712
11
193.312
21
-93.728
0
LINE
8
Black
10
193.82
20
-92.712
11
193.82
21
-93.728
0
LINE
8
Black
10
193.312
20
-93.22
11
194.328
21
-93.22
0
LINE
8
Black
10
193.312
20
-95.252
11
194.328
21
-96.268
0
LINE
8
Black
10
194.328
20
-95.252
11
193.312
21
-96.268
0
LINE
8
Black
10
193.82
20
-95.252
11
193.82
21
-96.268
0
LINE
8
Black
10
193.312
20
-95.76
11
194.328
21
-95.76
0
LINE
8
Black
10
193.312
20
-97.792
11
194.328
21
-98.808
0
LINE
8
Black
10
194.328
20
-97.792
11
193.312
21
-98.808
0
LINE
8
Black
10
193.82
20
-97.792
11
193.82
21
-98.808
0
LINE
8
Black
10
193.312
20
-98.3
11
194.328
21
-98.3
0
LINE
8
Black
10
193.312
20
-100.332
11
194.328
21
-101.348
0
LINE
8
Black
10
194.328
20
-100.332
11
193.312
21
-101.348
0
LINE
8
Black
10
193.82
20
-100.332
11
193.82
21
-101.348
0
LINE
8
Black
10
193.312
20
-100.84
11
194.328
21
-100.84
0
LINE
8
Black
10
193.312
20
-102.872
11
194.328
21
-103.888
0
LINE
8
Black
10
194.328
20
-102.872
11
193.312
21
-103.888
0
LINE
8
Black
10
193.82
20
-102.872
11
193.82
21
-103.888
0
LINE
8
Black
10
193.312
20
-103.38
11
194.328
21
-103.38
0
LINE
8
Black
10
193.312
20
-105.412
11
194.328
21
-106.428
0
LINE
8
Black
10
194.328
20
-105.412
11
193.312
21
-106.428
0
LINE
8
Black
10
193.82
20
-105.412
11
193.82
21
-106.428
0
LINE
8
Black
10
193.312
20
-105.92
11
194.328
21
-105.92
0
LINE
8
Black
10
193.312
20
-107.952
11
194.328
21
-108.968
0
LINE
8
Black
10
194.328
20
-107.952
11
193.312
21
-108.968
0
LINE
8
Black
10
193.82
20
-107.952
11
193.82
21
-108.968
0
LINE
8
Black
10
193.312
20
-108.46
11
194.328
21
-108.46
0
LINE
8
Black
10
193.312
20
-110.492
11
194.328
21
-111.508
0
LINE
8
Black
10
194.328
20
-110.492
11
193.312
21
-111.508
0
LINE
8
Black
10
193.82
20
-110.492
11
193.82
21
-111.508
0
LINE
8
Black
10
193.312
20
-111
11
194.328
21
-111
0
LINE
8
Black
10
193.312
20
-113.032
11
194.328
21
-114.048
0
LINE
8
Black
10
194.328
20
-113.032
11
193.312
21
-114.048
0
LINE
8
Black
10
193.82
20
-113.032
11
193.82
21
-114.048
0
LINE
8
Black
10
193.312
20
-113.54
11
194.328
21
-113.54
0
LINE
8
Black
10
193.312
20
-115.572
11
194.328
21
-116.588
0
LINE
8
Black
10
194.328
20
-115.572
11
193.312
21
-116.588
0
LINE
8
Black
10
193.82
20
-115.572
11
193.82
21
-116.588
0
LINE
8
Black
10
193.312
20
-116.08
11
194.328
21
-116.08
0
LINE
8
Black
10
193.312
20
-118.112
11
194.328
21
-119.128
0
LINE
8
Black
10
194.328
20
-118.112
11
193.312
21
-119.128
0
LINE
8
Black
10
193.82
20
-118.112
11
193.82
21
-119.128
0
LINE
8
Black
10
193.312
20
-118.62
11
194.328
21
-118.62
0
LINE
8
Black
10
193.312
20
-120.652
11
194.328
21
-121.668
0
LINE
8
Black
10
194.328
20
-120.652
11
193.312
21
-121.668
0
LINE
8
Black
10
193.82
20
-120.652
11
193.82
21
-121.668
0
LINE
8
Black
10
193.312
20
-121.16
11
194.328
21
-121.16
0
LINE
8
Black
10
193.312
20
-123.192
11
194.328
21
-124.208
0
LINE
8
Black
10
194.328
20
-123.192
11
193.312
21
-124.208
0
LINE
8
Black
10
193.82
20
-123.192
11
193.82
21
-124.208
0
LINE
8
Black
10
193.312
20
-123.7
11
194.328
21
-123.7
0
LINE
8
Black
10
193.312
20
-125.732
11
194.328
21
-126.748
0
LINE
8
Black
10
194.328
20
-125.732
11
193.312
21
-126.748
0
LINE
8
Black
10
193.82
20
-125.732
11
193.82
21
-126.748
0
LINE
8
Black
10
193.312
20
-126.24
11
194.328
21
-126.24
0
LINE
8
Black
10
193.312
20
-128.272
11
194.328
21
-129.288
0
LINE
8
Black
10
194.328
20
-128.272
11
193.312
21
-129.288
0
LINE
8
Black
10
193.82
20
-128.272
11
193.82
21
-129.288
0
LINE
8
Black
10
193.312
20
-128.78
11
194.328
21
-128.78
0
LINE
8
Black
10
193.312
20
-130.812
11
194.328
21
-131.828
0
LINE
8
Black
10
194.328
20
-130.812
11
193.312
21
-131.828
0
LINE
8
Black
10
193.82
20
-130.812
11
193.82
21
-131.828
0
LINE
8
Black
10
193.312
20
-131.32
11
194.328
21
-131.32
0
LINE
8
Black
10
193.312
20
-133.352
11
194.328
21
-134.368
0
LINE
8
Black
10
194.328
20
-133.352
11
193.312
21
-134.368
0
LINE
8
Black
10
193.82
20
-133.352
11
193.82
21
-134.368
0
LINE
8
Black
10
193.312
20
-133.86
11
194.328
21
-133.86
0
LINE
8
Black
10
195.326
20
-146.177
11
196.342
21
-147.193
0
LINE
8
Black
10
196.342
20
-146.177
11
195.326
21
-147.193
0
LINE
8
Black
10
195.834
20
-146.177
11
195.834
21
-147.193
0
LINE
8
Black
10
195.326
20
-146.685
11
196.342
21
-146.685
0
LINE
8
Black
10
197.866
20
-146.177
11
198.882
21
-147.193
0
LINE
8
Black
10
198.882
20
-146.177
11
197.866
21
-147.193
0
LINE
8
Black
10
198.374
20
-146.177
11
198.374
21
-147.193
0
LINE
8
Black
10
197.866
20
-146.685
11
198.882
21
-146.685
0
LINE
8
Black
10
200.914
20
-146.177
11
201.93
21
-147.193
0
LINE
8
Black
10
201.93
20
-146.177
11
200.914
21
-147.193
0
LINE
8
Black
10
201.422
20
-146.177
11
201.422
21
-147.193
0
LINE
8
Black
10
200.914
20
-146.685
11
201.93
21
-146.685
0
LINE
8
Black
10
203.472
20
-88.394
11
204.488
21
-89.41
0
LINE
8
Black
10
204.488
20
-88.394
11
203.472
21
-89.41
0
LINE
8
Black
10
203.98
20
-88.394
11
203.98
21
-89.41
0
LINE
8
Black
10
203.472
20
-88.902
11
204.488
21
-88.902
0
LINE
8
Black
10
203.472
20
-90.934
11
204.488
21
-91.95
0
LINE
8
Black
10
204.488
20
-90.934
11
203.472
21
-91.95
0
LINE
8
Black
10
203.98
20
-90.934
11
203.98
21
-91.95
0
LINE
8
Black
10
203.472
20
-91.442
11
204.488
21
-91.442
0
LINE
8
Black
10
203.472
20
-93.474
11
204.488
21
-94.49
0
LINE
8
Black
10
204.488
20
-93.474
11
203.472
21
-94.49
0
LINE
8
Black
10
203.98
20
-93.474
11
203.98
21
-94.49
0
LINE
8
Black
10
203.472
20
-93.982
11
204.488
21
-93.982
0
LINE
8
Black
10
203.472
20
-96.014
11
204.488
21
-97.03
0
LINE
8
Black
10
204.488
20
-96.014
11
203.472
21
-97.03
0
LINE
8
Black
10
203.98
20
-96.014
11
203.98
21
-97.03
0
LINE
8
Black
10
203.472
20
-96.522
11
204.488
21
-96.522
0
LINE
8
Black
10
203.472
20
-98.554
11
204.488
21
-99.57
0
LINE
8
Black
10
204.488
20
-98.554
11
203.472
21
-99.57
0
LINE
8
Black
10
203.98
20
-98.554
11
203.98
21
-99.57
0
LINE
8
Black
10
203.472
20
-99.062
11
204.488
21
-99.062
0
LINE
8
Black
10
203.472
20
-101.094
11
204.488
21
-102.11
0
LINE
8
Black
10
204.488
20
-101.094
11
203.472
21
-102.11
0
LINE
8
Black
10
203.98
20
-101.094
11
203.98
21
-102.11
0
LINE
8
Black
10
203.472
20
-101.602
11
204.488
21
-101.602
0
LINE
8
Black
10
203.472
20
-103.634
11
204.488
21
-104.65
0
LINE
8
Black
10
204.488
20
-103.634
11
203.472
21
-104.65
0
LINE
8
Black
10
203.98
20
-103.634
11
203.98
21
-104.65
0
LINE
8
Black
10
203.472
20
-104.142
11
204.488
21
-104.142
0
LINE
8
Black
10
203.472
20
-106.174
11
204.488
21
-107.19
0
LINE
8
Black
10
204.488
20
-106.174
11
203.472
21
-107.19
0
LINE
8
Black
10
203.98
20
-106.174
11
203.98
21
-107.19
0
LINE
8
Black
10
203.472
20
-106.682
11
204.488
21
-106.682
0
LINE
8
Black
10
204.742
20
-117.096
11
205.758
21
-118.112
0
LINE
8
Black
10
205.758
20
-117.096
11
204.742
21
-118.112
0
LINE
8
Black
10
205.25
20
-117.096
11
205.25
21
-118.112
0
LINE
8
Black
10
204.742
20
-117.604
11
205.758
21
-117.604
0
LINE
8
Black
10
204.742
20
-119.636
11
205.758
21
-120.652
0
LINE
8
Black
10
205.758
20
-119.636
11
204.742
21
-120.652
0
LINE
8
Black
10
205.25
20
-119.636
11
205.25
21
-120.652
0
LINE
8
Black
10
204.742
20
-120.144
11
205.758
21
-120.144
0
LINE
8
Black
10
204.742
20
-122.176
11
205.758
21
-123.192
0
LINE
8
Black
10
205.758
20
-122.176
11
204.742
21
-123.192
0
LINE
8
Black
10
205.25
20
-122.176
11
205.25
21
-123.192
0
LINE
8
Black
10
204.742
20
-122.684
11
205.758
21
-122.684
0
LINE
8
Black
10
204.742
20
-124.716
11
205.758
21
-125.732
0
LINE
8
Black
10
205.758
20
-124.716
11
204.742
21
-125.732
0
LINE
8
Black
10
205.25
20
-124.716
11
205.25
21
-125.732
0
LINE
8
Black
10
204.742
20
-125.224
11
205.758
21
-125.224
0
LINE
8
Black
10
204.742
20
-127.256
11
205.758
21
-128.272
0
LINE
8
Black
10
205.758
20
-127.256
11
204.742
21
-128.272
0
LINE
8
Black
10
205.25
20
-127.256
11
205.25
21
-128.272
0
LINE
8
Black
10
204.742
20
-127.764
11
205.758
21
-127.764
0
LINE
8
Black
10
204.742
20
-129.796
11
205.758
21
-130.812
0
LINE
8
Black
10
205.758
20
-129.796
11
204.742
21
-130.812
0
LINE
8
Black
10
205.25
20
-129.796
11
205.25
21
-130.812
0
LINE
8
Black
10
204.742
20
-130.304
11
205.758
21
-130.304
0
LINE
8
Black
10
204.742
20
-132.336
11
205.758
21
-133.352
0
LINE
8
Black
10
205.758
20
-132.336
11
204.742
21
-133.352
0
LINE
8
Black
10
205.25
20
-132.336
11
205.25
21
-133.352
0
LINE
8
Black
10
204.742
20
-132.844
11
205.758
21
-132.844
0
LINE
8
Black
10
204.742
20
-134.876
11
205.758
21
-135.892
0
LINE
8
Black
10
205.758
20
-134.876
11
204.742
21
-135.892
0
LINE
8
Black
10
205.25
20
-134.876
11
205.25
21
-135.892
0
LINE
8
Black
10
204.742
20
-135.384
11
205.758
21
-135.384
0
LINE
8
Black
10
206.248
20
-146.431
11
207.264
21
-147.447
0
LINE
8
Black
10
207.264
20
-146.431
11
206.248
21
-147.447
0
LINE
8
Black
10
206.756
20
-146.431
11
206.756
21
-147.447
0
LINE
8
Black
10
206.248
20
-146.939
11
207.264
21
-146.939
0
LINE
8
Black
10
207.492
20
-69.492
11
208.508
21
-70.508
0
LINE
8
Black
10
208.508
20
-69.492
11
207.492
21
-70.508
0
LINE
8
Black
10
208
20
-69.492
11
208
21
-70.508
0
LINE
8
Black
10
207.492
20
-70
11
208.508
21
-70
0
LINE
8
Black
10
207.492
20
-72.032
11
208.508
21
-73.048
0
LINE
8
Black
10
208.508
20
-72.032
11
207.492
21
-73.048
0
LINE
8
Black
10
208
20
-72.032
11
208
21
-73.048
0
LINE
8
Black
10
207.492
20
-72.54
11
208.508
21
-72.54
0
LINE
8
Black
10
207.492
20
-74.572
11
208.508
21
-75.588
0
LINE
8
Black
10
208.508
20
-74.572
11
207.492
21
-75.588
0
LINE
8
Black
10
208
20
-74.572
11
208
21
-75.588
0
LINE
8
Black
10
207.492
20
-75.08
11
208.508
21
-75.08
0
LINE
8
Black
10
207.492
20
-77.112
11
208.508
21
-78.128
0
LINE
8
Black
10
208.508
20
-77.112
11
207.492
21
-78.128
0
LINE
8
Black
10
208
20
-77.112
11
208
21
-78.128
0
LINE
8
Black
10
207.492
20
-77.62
11
208.508
21
-77.62
0
LINE
8
Black
10
208.788
20
-146.431
11
209.804
21
-147.447
0
LINE
8
Black
10
209.804
20
-146.431
11
208.788
21
-147.447
0
LINE
8
Black
10
209.296
20
-146.431
11
209.296
21
-147.447
0
LINE
8
Black
10
208.788
20
-146.939
11
209.804
21
-146.939
0
LINE
8
Black
10
211.328
20
-146.431
11
212.344
21
-147.447
0
LINE
8
Black
10
212.344
20
-146.431
11
211.328
21
-147.447
0
LINE
8
Black
10
211.836
20
-146.431
11
211.836
21
-147.447
0
LINE
8
Black
10
211.328
20
-146.939
11
212.344
21
-146.939
0
LINE
8
Black
10
213.868
20
-146.431
11
214.884
21
-147.447
0
LINE
8
Black
10
214.884
20
-146.431
11
213.868
21
-147.447
0
LINE
8
Black
10
214.376
20
-146.431
11
214.376
21
-147.447
0
LINE
8
Black
10
213.868
20
-146.939
11
214.884
21
-146.939
0
LINE
8
Black
10
58.4285
20
-101.889
11
59.5715
21
-103.032
0
LINE
8
Black
10
59.5715
20
-101.889
11
58.4285
21
-103.032
0
LINE
8
Black
10
59.4041
20
-102.864
11
59.4041
21
-102.056
0
LINE
8
Black
10
59.4041
20
-102.056
11
58.5959
21
-102.056
0
LINE
8
Black
10
58.5959
20
-102.056
11
58.5959
21
-102.864
0
LINE
8
Black
10
58.5959
20
-102.864
11
59.4041
21
-102.864
0
LINE
8
Black
10
58.4285
20
-104.429
11
59.5715
21
-105.572
0
LINE
8
Black
10
59.5715
20
-104.429
11
58.4285
21
-105.572
0
LINE
8
Black
10
59.4041
20
-105.404
11
59.4041
21
-104.596
0
LINE
8
Black
10
59.4041
20
-104.596
11
58.5959
21
-104.596
0
LINE
8
Black
10
58.5959
20
-104.596
11
58.5959
21
-105.404
0
LINE
8
Black
10
58.5959
20
-105.404
11
59.4041
21
-105.404
0
LINE
8
Black
10
58.4285
20
-106.969
11
59.5715
21
-108.112
0
LINE
8
Black
10
59.5715
20
-106.969
11
58.4285
21
-108.112
0
LINE
8
Black
10
59.4041
20
-107.944
11
59.4041
21
-107.136
0
LINE
8
Black
10
59.4041
20
-107.136
11
58.5959
21
-107.136
0
LINE
8
Black
10
58.5959
20
-107.136
11
58.5959
21
-107.944
0
LINE
8
Black
10
58.5959
20
-107.944
11
59.4041
21
-107.944
0
LINE
8
Black
10
71.8086
20
-144.691
11
73.0074
21
-145.889
0
LINE
8
Black
10
73.0074
20
-144.691
11
71.8086
21
-145.889
0
LINE
8
Black
10
72.408
20
-145.889
11
73.0074
21
-145.29
0
LINE
8
Black
10
73.0074
20
-145.29
11
72.408
21
-144.691
0
LINE
8
Black
10
72.408
20
-144.691
11
71.8086
21
-145.29
0
LINE
8
Black
10
71.8086
20
-145.29
11
72.408
21
-145.889
0
LINE
8
Black
10
74.3079
20
-139.651
11
75.5068
21
-140.85
0
LINE
8
Black
10
75.5068
20
-139.651
11
74.3079
21
-140.85
0
LINE
8
Black
10
74.9074
20
-140.85
11
75.5068
21
-140.251
0
LINE
8
Black
10
75.5068
20
-140.251
11
74.9074
21
-139.651
0
LINE
8
Black
10
74.9074
20
-139.651
11
74.3079
21
-140.251
0
LINE
8
Black
10
74.3079
20
-140.251
11
74.9074
21
-140.85
0
LINE
8
Black
10
76.8073
20
-144.691
11
78.0062
21
-145.889
0
LINE
8
Black
10
78.0062
20
-144.691
11
76.8073
21
-145.889
0
LINE
8
Black
10
77.4067
20
-145.889
11
78.0062
21
-145.29
0
LINE
8
Black
10
78.0062
20
-145.29
11
77.4067
21
-144.691
0
LINE
8
Black
10
77.4067
20
-144.691
11
76.8073
21
-145.29
0
LINE
8
Black
10
76.8073
20
-145.29
11
77.4067
21
-145.889
0
LINE
8
Black
10
77.3966
20
-113.195
11
78.5954
21
-114.393
0
LINE
8
Black
10
78.5954
20
-113.195
11
77.3966
21
-114.393
0
LINE
8
Black
10
77.996
20
-114.393
11
78.5954
21
-113.794
0
LINE
8
Black
10
78.5954
20
-113.794
11
77.996
21
-113.195
0
LINE
8
Black
10
77.996
20
-113.195
11
77.3966
21
-113.794
0
LINE
8
Black
10
77.3966
20
-113.794
11
77.996
21
-114.393
0
LINE
8
Black
10
79.8959
20
-108.155
11
81.0948
21
-109.354
0
LINE
8
Black
10
81.0948
20
-108.155
11
79.8959
21
-109.354
0
LINE
8
Black
10
80.4954
20
-109.354
11
81.0948
21
-108.755
0
LINE
8
Black
10
81.0948
20
-108.755
11
80.4954
21
-108.155
0
LINE
8
Black
10
80.4954
20
-108.155
11
79.8959
21
-108.755
0
LINE
8
Black
10
79.8959
20
-108.755
11
80.4954
21
-109.354
0
LINE
8
Black
10
81.7146
20
-144.691
11
82.9134
21
-145.889
0
LINE
8
Black
10
82.9134
20
-144.691
11
81.7146
21
-145.889
0
LINE
8
Black
10
82.314
20
-145.889
11
82.9134
21
-145.29
0
LINE
8
Black
10
82.9134
20
-145.29
11
82.314
21
-144.691
0
LINE
8
Black
10
82.314
20
-144.691
11
81.7146
21
-145.29
0
LINE
8
Black
10
81.7146
20
-145.29
11
82.314
21
-145.889
0
LINE
8
Black
10
82.3953
20
-113.195
11
83.5942
21
-114.393
0
LINE
8
Black
10
83.5942
20
-113.195
11
82.3953
21
-114.393
0
LINE
8
Black
10
82.9947
20
-114.393
11
83.5942
21
-113.794
0
LINE
8
Black
10
83.5942
20
-113.794
11
82.9947
21
-113.195
0
LINE
8
Black
10
82.9947
20
-113.195
11
82.3953
21
-113.794
0
LINE
8
Black
10
82.3953
20
-113.794
11
82.9947
21
-114.393
0
LINE
8
Black
10
84.2139
20
-139.651
11
85.4128
21
-140.85
0
LINE
8
Black
10
85.4128
20
-139.651
11
84.2139
21
-140.85
0
LINE
8
Black
10
84.8134
20
-140.85
11
85.4128
21
-140.251
0
LINE
8
Black
10
85.4128
20
-140.251
11
84.8134
21
-139.651
0
LINE
8
Black
10
84.8134
20
-139.651
11
84.2139
21
-140.251
0
LINE
8
Black
10
84.2139
20
-140.251
11
84.8134
21
-140.85
0
LINE
8
Black
10
86.7133
20
-144.691
11
87.9122
21
-145.889
0
LINE
8
Black
10
87.9122
20
-144.691
11
86.7133
21
-145.889
0
LINE
8
Black
10
87.3127
20
-145.889
11
87.9122
21
-145.29
0
LINE
8
Black
10
87.9122
20
-145.29
11
87.3127
21
-144.691
0
LINE
8
Black
10
87.3127
20
-144.691
11
86.7133
21
-145.29
0
LINE
8
Black
10
86.7133
20
-145.29
11
87.3127
21
-145.889
0
LINE
8
Black
10
89.5886
20
-113.195
11
90.7874
21
-114.393
0
LINE
8
Black
10
90.7874
20
-113.195
11
89.5886
21
-114.393
0
LINE
8
Black
10
90.188
20
-114.393
11
90.7874
21
-113.794
0
LINE
8
Black
10
90.7874
20
-113.794
11
90.188
21
-113.195
0
LINE
8
Black
10
90.188
20
-113.195
11
89.5886
21
-113.794
0
LINE
8
Black
10
89.5886
20
-113.794
11
90.188
21
-114.393
0
LINE
8
Black
10
92.0879
20
-108.155
11
93.2868
21
-109.354
0
LINE
8
Black
10
93.2868
20
-108.155
11
92.0879
21
-109.354
0
LINE
8
Black
10
92.6874
20
-109.354
11
93.2868
21
-108.755
0
LINE
8
Black
10
93.2868
20
-108.755
11
92.6874
21
-108.155
0
LINE
8
Black
10
92.6874
20
-108.155
11
92.0879
21
-108.755
0
LINE
8
Black
10
92.0879
20
-108.755
11
92.6874
21
-109.354
0
LINE
8
Black
10
94.5873
20
-113.195
11
95.7862
21
-114.393
0
LINE
8
Black
10
95.7862
20
-113.195
11
94.5873
21
-114.393
0
LINE
8
Black
10
95.1867
20
-114.393
11
95.7862
21
-113.794
0
LINE
8
Black
10
95.7862
20
-113.794
11
95.1867
21
-113.195
0
LINE
8
Black
10
95.1867
20
-113.195
11
94.5873
21
-113.794
0
LINE
8
Black
10
94.5873
20
-113.794
11
95.1867
21
-114.393
0
LINE
8
Black
10
51.58
20
-26.326
11
51.58
21
-27.526
0
LINE
8
Black
10
50.98
20
-26.926
11
52.18
21
-26.926
0
CIRCLE
8
Black
10
51.58
20
-26.926
40
0.6
0
LINE
8
Black
10
54.12
20
-26.326
11
54.12
21
-27.526
0
LINE
8
Black
10
53.52
20
-26.926
11
54.72
21
-26.926
0
CIRCLE
8
Black
10
54.12
20
-26.926
40
0.6
0
LINE
8
Black
10
56.66
20
-26.326
11
56.66
21
-27.526
0
LINE
8
Black
10
56.06
20
-26.926
11
57.26
21
-26.926
0
CIRCLE
8
Black
10
56.66
20
-26.926
40
0.6
0
LINE
8
Black
10
59.2
20
-26.326
11
59.2
21
-27.526
0
LINE
8
Black
10
58.6
20
-26.926
11
59.8
21
-26.926
0
CIRCLE
8
Black
10
59.2
20
-26.926
40
0.6
0
LINE
8
Black
10
61.74
20
-26.326
11
61.74
21
-27.526
0
LINE
8
Black
10
61.14
20
-26.926
11
62.34
21
-26.926
0
CIRCLE
8
Black
10
61.74
20
-26.926
40
0.6
0
LINE
8
Black
10
64.28
20
-26.326
11
64.28
21
-27.526
0
LINE
8
Black
10
63.68
20
-26.926
11
64.88
21
-26.926
0
CIRCLE
8
Black
10
64.28
20
-26.926
40
0.6
0
LINE
8
Black
10
66.82
20
-26.326
11
66.82
21
-27.526
0
LINE
8
Black
10
66.22
20
-26.926
11
67.42
21
-26.926
0
CIRCLE
8
Black
10
66.82
20
-26.926
40
0.6
0
LINE
8
Black
10
69.36
20
-26.326
11
69.36
21
-27.526
0
LINE
8
Black
10
68.76
20
-26.926
11
69.96
21
-26.926
0
CIRCLE
8
Black
10
69.36
20
-26.926
40
0.6
0
LINE
8
Black
10
71.9
20
-26.326
11
71.9
21
-27.526
0
LINE
8
Black
10
71.3
20
-26.926
11
72.5
21
-26.926
0
CIRCLE
8
Black
10
71.9
20
-26.926
40
0.6
0
LINE
8
Black
10
74.44
20
-26.326
11
74.44
21
-27.526
0
LINE
8
Black
10
73.84
20
-26.926
11
75.04
21
-26.926
0
CIRCLE
8
Black
10
74.44
20
-26.926
40
0.6
0
LINE
8
Black
10
76.98
20
-26.326
11
76.98
21
-27.526
0
LINE
8
Black
10
76.38
20
-26.926
11
77.58
21
-26.926
0
CIRCLE
8
Black
10
76.98
20
-26.926
40
0.6
0
LINE
8
Black
10
79.52
20
-26.326
11
79.52
21
-27.526
0
LINE
8
Black
10
78.92
20
-26.926
11
80.12
21
-26.926
0
CIRCLE
8
Black
10
79.52
20
-26.926
40
0.6
0
LINE
8
Black
10
82.06
20
-26.326
11
82.06
21
-27.526
0
LINE
8
Black
10
81.46
20
-26.926
11
82.66
21
-26.926
0
CIRCLE
8
Black
10
82.06
20
-26.926
40
0.6
0
LINE
8
Black
10
84.6
20
-26.326
11
84.6
21
-27.526
0
LINE
8
Black
10
84
20
-26.926
11
85.2
21
-26.926
0
CIRCLE
8
Black
10
84.6
20
-26.926
40
0.6
0
LINE
8
Black
10
87.14
20
-26.326
11
87.14
21
-27.526
0
LINE
8
Black
10
86.54
20
-26.926
11
87.74
21
-26.926
0
CIRCLE
8
Black
10
87.14
20
-26.926
40
0.6
0
LINE
8
Black
10
89.68
20
-26.326
11
89.68
21
-27.526
0
LINE
8
Black
10
89.08
20
-26.926
11
90.28
21
-26.926
0
CIRCLE
8
Black
10
89.68
20
-26.926
40
0.6
0
LINE
8
Black
10
169.459
20
-75.4589
11
169.459
21
-74.5411
0
LINE
8
Black
10
169.459
20
-74.5411
11
168.541
21
-74.5411
0
LINE
8
Black
10
168.541
20
-74.5411
11
168.541
21
-75.4589
0
LINE
8
Black
10
168.541
20
-75.4589
11
169.459
21
-75.4589
0
CIRCLE
8
Black
10
169
20
-75
40
0.64897
0
LINE
8
Black
10
169.459
20
-95.4589
11
169.459
21
-94.5411
0
LINE
8
Black
10
169.459
20
-94.5411
11
168.541
21
-94.5411
0
LINE
8
Black
10
168.541
20
-94.5411
11
168.541
21
-95.4589
0
LINE
8
Black
10
168.541
20
-95.4589
11
169.459
21
-95.4589
0
CIRCLE
8
Black
10
169
20
-95
40
0.64897
0
LINE
8
Black
10
47
20
-57.75
11
47.75
21
-57
0
LINE
8
Black
10
47.75
20
-57
11
47
21
-56.25
0
LINE
8
Black
10
47
20
-56.25
11
46.25
21
-57
0
LINE
8
Black
10
46.25
20
-57
11
47
21
-57.75
0
CIRCLE
8
Black
10
47
20
-57
40
0.75
0
LINE
8
Black
10
47
20
-65.75
11
47.75
21
-65
0
LINE
8
Black
10
47.75
20
-65
11
47
21
-64.25
0
LINE
8
Black
10
47
20
-64.25
11
46.25
21
-65
0
LINE
8
Black
10
46.25
20
-65
11
47
21
-65.75
0
CIRCLE
8
Black
10
47
20
-65
40
0.75
0
LINE
8
Black
10
194.999
20
-38.238
11
194.999
21
-39.762
0
LINE
8
Black
10
194.237
20
-39
11
195.761
21
-39
0
LINE
8
Black
10
195.538
20
-39.5388
11
195.538
21
-38.4612
0
LINE
8
Black
10
195.538
20
-38.4612
11
194.46
21
-38.4612
0
LINE
8
Black
10
194.46
20
-38.4612
11
194.46
21
-39.5388
0
LINE
8
Black
10
194.46
20
-39.5388
11
195.538
21
-39.5388
0
LINE
8
Black
10
194.999
20
-54.238
11
194.999
21
-55.762
0
LINE
8
Black
10
194.237
20
-55
11
195.761
21
-55
0
LINE
8
Black
10
195.538
20
-55.5388
11
195.538
21
-54.4612
0
LINE
8
Black
10
195.538
20
-54.4612
11
194.46
21
-54.4612
0
LINE
8
Black
10
194.46
20
-54.4612
11
194.46
21
-55.5388
0
LINE
8
Black
10
194.46
20
-55.5388
11
195.538
21
-55.5388
0
LINE
8
Black
10
197.001
20
-32.2385
11
197.001
21
-33.7625
0
LINE
8
Black
10
196.239
20
-33.0005
11
197.763
21
-33.0005
0
LINE
8
Black
10
197.539
20
-33.5393
11
197.539
21
-32.4617
0
LINE
8
Black
10
197.539
20
-32.4617
11
196.462
21
-32.4617
0
LINE
8
Black
10
196.462
20
-32.4617
11
196.462
21
-33.5393
0
LINE
8
Black
10
196.462
20
-33.5393
11
197.539
21
-33.5393
0
LINE
8
Black
10
197.001
20
-44.2375
11
197.001
21
-45.7615
0
LINE
8
Black
10
196.239
20
-44.9995
11
197.763
21
-44.9995
0
LINE
8
Black
10
197.539
20
-45.5383
11
197.539
21
-44.4607
0
LINE
8
Black
10
197.539
20
-44.4607
11
196.462
21
-44.4607
0
LINE
8
Black
10
196.462
20
-44.4607
11
196.462
21
-45.5383
0
LINE
8
Black
10
196.462
20
-45.5383
11
197.539
21
-45.5383
0
LINE
8
Black
10
197.001
20
-48.2385
11
197.001
21
-49.7625
0
LINE
8
Black
10
196.239
20
-49.0005
11
197.763
21
-49.0005
0
LINE
8
Black
10
197.539
20
-49.5393
11
197.539
21
-48.4617
0
LINE
8
Black
10
197.539
20
-48.4617
11
196.462
21
-48.4617
0
LINE
8
Black
10
196.462
20
-48.4617
11
196.462
21
-49.5393
0
LINE
8
Black
10
196.462
20
-49.5393
11
197.539
21
-49.5393
0
LINE
8
Black
10
197.001
20
-60.2375
11
197.001
21
-61.7615
0
LINE
8
Black
10
196.239
20
-60.9995
11
197.763
21
-60.9995
0
LINE
8
Black
10
197.539
20
-61.5383
11
197.539
21
-60.4607
0
LINE
8
Black
10
197.539
20
-60.4607
11
196.462
21
-60.4607
0
LINE
8
Black
10
196.462
20
-60.4607
11
196.462
21
-61.5383
0
LINE
8
Black
10
196.462
20
-61.5383
11
197.539
21
-61.5383
0
LINE
8
Black
10
208.999
20
-32.2385
11
208.999
21
-33.7625
0
LINE
8
Black
10
208.237
20
-33.0005
11
209.761
21
-33.0005
0
LINE
8
Black
10
209.538
20
-33.5393
11
209.538
21
-32.4617
0
LINE
8
Black
10
209.538
20
-32.4617
11
208.461
21
-32.4617
0
LINE
8
Black
10
208.461
20
-32.4617
11
208.461
21
-33.5393
0
LINE
8
Black
10
208.461
20
-33.5393
11
209.538
21
-33.5393
0
LINE
8
Black
10
208.999
20
-44.2375
11
208.999
21
-45.7615
0
LINE
8
Black
10
208.237
20
-44.9995
11
209.761
21
-44.9995
0
LINE
8
Black
10
209.538
20
-45.5383
11
209.538
21
-44.4607
0
LINE
8
Black
10
209.538
20
-44.4607
11
208.461
21
-44.4607
0
LINE
8
Black
10
208.461
20
-44.4607
11
208.461
21
-45.5383
0
LINE
8
Black
10
208.461
20
-45.5383
11
209.538
21
-45.5383
0
LINE
8
Black
10
208.999
20
-48.2385
11
208.999
21
-49.7625
0
LINE
8
Black
10
208.237
20
-49.0005
11
209.761
21
-49.0005
0
LINE
8
Black
10
209.538
20
-49.5393
11
209.538
21
-48.4617
0
LINE
8
Black
10
209.538
20
-48.4617
11
208.461
21
-48.4617
0
LINE
8
Black
10
208.461
20
-48.4617
11
208.461
21
-49.5393
0
LINE
8
Black
10
208.461
20
-49.5393
11
209.538
21
-49.5393
0
LINE
8
Black
10
208.999
20
-60.2375
11
208.999
21
-61.7615
0
LINE
8
Black
10
208.237
20
-60.9995
11
209.761
21
-60.9995
0
LINE
8
Black
10
209.538
20
-61.5383
11
209.538
21
-60.4607
0
LINE
8
Black
10
209.538
20
-60.4607
11
208.461
21
-60.4607
0
LINE
8
Black
10
208.461
20
-60.4607
11
208.461
21
-61.5383
0
LINE
8
Black
10
208.461
20
-61.5383
11
209.538
21
-61.5383
0
LINE
8
Black
10
217
20
-33.158
11
217
21
-34.682
0
LINE
8
Black
10
216.238
20
-33.92
11
217.762
21
-33.92
0
LINE
8
Black
10
217.539
20
-34.4588
11
217.539
21
-33.3812
0
LINE
8
Black
10
217.539
20
-33.3812
11
216.461
21
-33.3812
0
LINE
8
Black
10
216.461
20
-33.3812
11
216.461
21
-34.4588
0
LINE
8
Black
10
216.461
20
-34.4588
11
217.539
21
-34.4588
0
LINE
8
Black
10
217
20
-38.238
11
217
21
-39.762
0
LINE
8
Black
10
216.238
20
-39
11
217.762
21
-39
0
LINE
8
Black
10
217.539
20
-39.5388
11
217.539
21
-38.4612
0
LINE
8
Black
10
217.539
20
-38.4612
11
216.461
21
-38.4612
0
LINE
8
Black
10
216.461
20
-38.4612
11
216.461
21
-39.5388
0
LINE
8
Black
10
216.461
20
-39.5388
11
217.539
21
-39.5388
0
LINE
8
Black
10
217
20
-43.318
11
217
21
-44.842
0
LINE
8
Black
10
216.238
20
-44.08
11
217.762
21
-44.08
0
LINE
8
Black
10
217.539
20
-44.6188
11
217.539
21
-43.5412
0
LINE
8
Black
10
217.539
20
-43.5412
11
216.461
21
-43.5412
0
LINE
8
Black
10
216.461
20
-43.5412
11
216.461
21
-44.6188
0
LINE
8
Black
10
216.461
20
-44.6188
11
217.539
21
-44.6188
0
LINE
8
Black
10
217
20
-49.158
11
217
21
-50.682
0
LINE
8
Black
10
216.238
20
-49.92
11
217.762
21
-49.92
0
LINE
8
Black
10
217.539
20
-50.4588
11
217.539
21
-49.3812
0
LINE
8
Black
10
217.539
20
-49.3812
11
216.461
21
-49.3812
0
LINE
8
Black
10
216.461
20
-49.3812
11
216.461
21
-50.4588
0
LINE
8
Black
10
216.461
20
-50.4588
11
217.539
21
-50.4588
0
LINE
8
Black
10
217
20
-54.238
11
217
21
-55.762
0
LINE
8
Black
10
216.238
20
-55
11
217.762
21
-55
0
LINE
8
Black
10
217.539
20
-55.5388
11
217.539
21
-54.4612
0
LINE
8
Black
10
217.539
20
-54.4612
11
216.461
21
-54.4612
0
LINE
8
Black
10
216.461
20
-54.4612
11
216.461
21
-55.5388
0
LINE
8
Black
10
216.461
20
-55.5388
11
217.539
21
-55.5388
0
LINE
8
Black
10
217
20
-59.318
11
217
21
-60.842
0
LINE
8
Black
10
216.238
20
-60.08
11
217.762
21
-60.08
0
LINE
8
Black
10
217.539
20
-60.6188
11
217.539
21
-59.5412
0
LINE
8
Black
10
217.539
20
-59.5412
11
216.461
21
-59.5412
0
LINE
8
Black
10
216.461
20
-59.5412
11
216.461
21
-60.6188
0
LINE
8
Black
10
216.461
20
-60.6188
11
217.539
21
-60.6188
0
LINE
8
Black
10
217
20
-64.698
11
217
21
-66.222
0
LINE
8
Black
10
216.238
20
-65.46
11
217.762
21
-65.46
0
LINE
8
Black
10
217.539
20
-65.9988
11
217.539
21
-64.9212
0
LINE
8
Black
10
217.539
20
-64.9212
11
216.461
21
-64.9212
0
LINE
8
Black
10
216.461
20
-64.9212
11
216.461
21
-65.9988
0
LINE
8
Black
10
216.461
20
-65.9988
11
217.539
21
-65.9988
0
LINE
8
Black
10
217
20
-69.778
11
217
21
-71.302
0
LINE
8
Black
10
216.238
20
-70.54
11
217.762
21
-70.54
0
LINE
8
Black
10
217.539
20
-71.0788
11
217.539
21
-70.0012
0
LINE
8
Black
10
217.539
20
-70.0012
11
216.461
21
-70.0012
0
LINE
8
Black
10
216.461
20
-70.0012
11
216.461
21
-71.0788
0
LINE
8
Black
10
216.461
20
-71.0788
11
217.539
21
-71.0788
0
LINE
8
Black
10
217
20
-75.698
11
217
21
-77.222
0
LINE
8
Black
10
216.238
20
-76.46
11
217.762
21
-76.46
0
LINE
8
Black
10
217.539
20
-76.9988
11
217.539
21
-75.9212
0
LINE
8
Black
10
217.539
20
-75.9212
11
216.461
21
-75.9212
0
LINE
8
Black
10
216.461
20
-75.9212
11
216.461
21
-76.9988
0
LINE
8
Black
10
216.461
20
-76.9988
11
217.539
21
-76.9988
0
LINE
8
Black
10
217
20
-80.778
11
217
21
-82.302
0
LINE
8
Black
10
216.238
20
-81.54
11
217.762
21
-81.54
0
LINE
8
Black
10
217.539
20
-82.0788
11
217.539
21
-81.0012
0
LINE
8
Black
10
217.539
20
-81.0012
11
216.461
21
-81.0012
0
LINE
8
Black
10
216.461
20
-81.0012
11
216.461
21
-82.0788
0
LINE
8
Black
10
216.461
20
-82.0788
11
217.539
21
-82.0788
0
LINE
8
Black
10
46.0809
20
-25.676
11
46.0809
21
-28.176
0
LINE
8
Black
10
44.8309
20
-26.926
11
47.3309
21
-26.926
0
LINE
8
Black
10
46.0809
20
-28.176
11
47.3309
21
-26.926
0
LINE
8
Black
10
47.3309
20
-26.926
11
46.0809
21
-25.676
0
LINE
8
Black
10
46.0809
20
-25.676
11
44.8309
21
-26.926
0
LINE
8
Black
10
44.8309
20
-26.926
11
46.0809
21
-28.176
0
LINE
8
Black
10
46.0809
20
-56.6767
11
46.0809
21
-59.1767
0
LINE
8
Black
10
44.8309
20
-57.9267
11
47.3309
21
-57.9267
0
LINE
8
Black
10
46.0809
20
-59.1767
11
47.3309
21
-57.9267
0
LINE
8
Black
10
47.3309
20
-57.9267
11
46.0809
21
-56.6767
0
LINE
8
Black
10
46.0809
20
-56.6767
11
44.8309
21
-57.9267
0
LINE
8
Black
10
44.8309
20
-57.9267
11
46.0809
21
-59.1767
0
LINE
8
Black
10
121.079
20
-25.676
11
121.079
21
-28.176
0
LINE
8
Black
10
119.829
20
-26.926
11
122.329
21
-26.926
0
LINE
8
Black
10
121.079
20
-28.176
11
122.329
21
-26.926
0
LINE
8
Black
10
122.329
20
-26.926
11
121.079
21
-25.676
0
LINE
8
Black
10
121.079
20
-25.676
11
119.829
21
-26.926
0
LINE
8
Black
10
119.829
20
-26.926
11
121.079
21
-28.176
0
LINE
8
Black
10
121.079
20
-56.6767
11
121.079
21
-59.1767
0
LINE
8
Black
10
119.829
20
-57.9267
11
122.329
21
-57.9267
0
LINE
8
Black
10
121.079
20
-59.1767
11
122.329
21
-57.9267
0
LINE
8
Black
10
122.329
20
-57.9267
11
121.079
21
-56.6767
0
LINE
8
Black
10
121.079
20
-56.6767
11
119.829
21
-57.9267
0
LINE
8
Black
10
119.829
20
-57.9267
11
121.079
21
-59.1767
0
LINE
8
Black
10
53
20
-110.992
11
54.4923
21
-109.5
0
LINE
8
Black
10
54.4923
20
-109.5
11
53
21
-108.008
0
LINE
8
Black
10
53
20
-108.008
11
51.5078
21
-109.5
0
LINE
8
Black
10
51.5078
20
-109.5
11
53
21
-110.992
0
LINE
8
Black
10
54.0552
20
-110.555
11
54.0552
21
-108.445
0
LINE
8
Black
10
54.0552
20
-108.445
11
51.9448
21
-108.445
0
LINE
8
Black
10
51.9448
20
-108.445
11
51.9448
21
-110.555
0
LINE
8
Black
10
51.9448
20
-110.555
11
54.0552
21
-110.555
0
LINE
8
Black
10
51.5
20
-99
11
54.5
21
-102
0
LINE
8
Black
10
54.5
20
-99
11
51.5
21
-102
0
LINE
8
Black
10
53
20
-99
11
53
21
-102
0
LINE
8
Black
10
51.5
20
-100.5
11
54.5
21
-100.5
0
CIRCLE
8
Black
10
53
20
-100.5
40
1.5
0
LINE
8
Black
10
44.476
20
-25.476
11
47.524
21
-28.524
0
LINE
8
Black
10
47.524
20
-25.476
11
44.476
21
-28.524
0
LINE
8
Black
10
47.0776
20
-28.0776
11
47.0776
21
-25.9224
0
LINE
8
Black
10
47.0776
20
-25.9224
11
44.9224
21
-25.9224
0
LINE
8
Black
10
44.9224
20
-25.9224
11
44.9224
21
-28.0776
0
LINE
8
Black
10
44.9224
20
-28.0776
11
47.0776
21
-28.0776
0
CIRCLE
8
Black
10
46
20
-27
40
1.524
0
LINE
8
Black
10
44.476
20
-144.476
11
47.524
21
-147.524
0
LINE
8
Black
10
47.524
20
-144.476
11
44.476
21
-147.524
0
LINE
8
Black
10
47.0776
20
-147.078
11
47.0776
21
-144.922
0
LINE
8
Black
10
47.0776
20
-144.922
11
44.9224
21
-144.922
0
LINE
8
Black
10
44.9224
20
-144.922
11
44.9224
21
-147.078
0
LINE
8
Black
10
44.9224
20
-147.078
11
47.0776
21
-147.078
0
CIRCLE
8
Black
10
46
20
-146
40
1.524
0
LINE
8
Black
10
131.336
20
-85.981
11
134.384
21
-89.029
0
LINE
8
Black
10
134.384
20
-85.981
11
131.336
21
-89.029
0
LINE
8
Black
10
133.938
20
-88.5826
11
133.938
21
-86.4274
0
LINE
8
Black
10
133.938
20
-86.4274
11
131.782
21
-86.4274
0
LINE
8
Black
10
131.782
20
-86.4274
11
131.782
21
-88.5826
0
LINE
8
Black
10
131.782
20
-88.5826
11
133.938
21
-88.5826
0
CIRCLE
8
Black
10
132.86
20
-87.505
40
1.524
0
LINE
8
Black
10
218.476
20
-25.476
11
221.524
21
-28.524
0
LINE
8
Black
10
221.524
20
-25.476
11
218.476
21
-28.524
0
LINE
8
Black
10
221.078
20
-28.0776
11
221.078
21
-25.9224
0
LINE
8
Black
10
221.078
20
-25.9224
11
218.922
21
-25.9224
0
LINE
8
Black
10
218.922
20
-25.9224
11
218.922
21
-28.0776
0
LINE
8
Black
10
218.922
20
-28.0776
11
221.078
21
-28.0776
0
CIRCLE
8
Black
10
220
20
-27
40
1.524
0
LINE
8
Black
10
218.476
20
-144.476
11
221.524
21
-147.524
0
LINE
8
Black
10
221.524
20
-144.476
11
218.476
21
-147.524
0
LINE
8
Black
10
221.078
20
-147.078
11
221.078
21
-144.922
0
LINE
8
Black
10
221.078
20
-144.922
11
218.922
21
-144.922
0
LINE
8
Black
10
218.922
20
-144.922
11
218.922
21
-147.078
0
LINE
8
Black
10
218.922
20
-147.078
11
221.078
21
-147.078
0
CIRCLE
8
Black
10
220
20
-146
40
1.524
  0
TEXT
  7
KICAD
  8
Black
  10
44.95
  11
44.95
  20
-152.35
  21
-152.35
  40
3
  41
1
  50
0
  51
0
  71
0
  72
0
  73
2
  1
Drill Map:
0
LINE
8
Black
10
42.188
20
-158.269
11
42.95
21
-159.031
0
LINE
8
Black
10
42.95
20
-158.269
11
42.188
21
-159.031
  0
TEXT
  7
KICAD
  8
Black
  10
44.95
  11
44.95
  20
-158.65
  21
-158.65
  40
3
  41
1
  50
0
  51
0
  71
0
  72
0
  73
2
  1
0.76mm / 0.030" (11 holes)
0
CIRCLE
8
Black
10
42.55
20
-162.61
40
0.4
  0
TEXT
  7
KICAD
  8
Black
  10
44.95
  11
44.95
  20
-162.61
  21
-162.61
  40
3
  41
1
  50
0
  51
0
  71
0
  72
0
  73
2
  1
0.80mm / 0.031" (40 holes)
0
LINE
8
Black
10
42.5436
20
-166.164
11
42.5436
21
-166.976
0
LINE
8
Black
10
42.1372
20
-166.57
11
42.95
21
-166.57
  0
TEXT
  7
KICAD
  8
Black
  10
44.95
  11
44.95
  20
-166.57
  21
-166.57
  40
3
  41
1
  50
0
  51
0
  71
0
  72
0
  73
2
  1
0.81mm / 0.032" (102 holes)
0
LINE
8
Black
10
42.8255
20
-170.831
11
42.8255
21
-170.229
0
LINE
8
Black
10
42.8255
20
-170.229
11
42.2245
21
-170.229
0
LINE
8
Black
10
42.2245
20
-170.229
11
42.2245
21
-170.831
0
LINE
8
Black
10
42.2245
20
-170.831
11
42.8255
21
-170.831
  0
TEXT
  7
KICAD
  8
Black
  10
44.95
  11
44.95
  20
-170.53
  21
-170.53
  40
3
  41
1
  50
0
  51
0
  71
0
  72
0
  73
2
  1
0.85mm / 0.033" (42 holes)
0
LINE
8
Black
10
42.5055
20
-174.935
11
42.95
21
-174.49
0
LINE
8
Black
10
42.95
20
-174.49
11
42.5055
21
-174.046
0
LINE
8
Black
10
42.5055
20
-174.046
11
42.061
21
-174.49
0
LINE
8
Black
10
42.061
20
-174.49
11
42.5055
21
-174.935
  0
TEXT
  7
KICAD
  8
Black
  10
44.95
  11
44.95
  20
-174.49
  21
-174.49
  40
3
  41
1
  50
0
  51
0
  71
0
  72
0
  73
2
  1
0.89mm / 0.035" (64 holes)
0
LINE
8
Black
10
41.9492
20
-177.95
11
42.95
21
-178.95
0
LINE
8
Black
10
42.95
20
-177.95
11
41.9492
21
-178.95
0
CIRCLE
8
Black
10
42.4496
20
-178.45
40
0.50038
  0
TEXT
  7
KICAD
  8
Black
  10
44.95
  11
44.95
  20
-178.45
  21
-178.45
  40
3
  41
1
  50
0
  51
0
  71
0
  72
0
  73
2
  1
1.00mm / 0.039" (2 holes + 3 slots)
0
LINE
8
Black
10
41.934
20
-181.902
11
42.95
21
-182.918
0
LINE
8
Black
10
42.95
20
-181.902
11
41.934
21
-182.918
0
LINE
8
Black
10
42.442
20
-181.902
11
42.442
21
-182.918
0
LINE
8
Black
10
41.934
20
-182.41
11
42.95
21
-182.41
  0
TEXT
  7
KICAD
  8
Black
  10
44.95
  11
44.95
  20
-182.41
  21
-182.41
  40
3
  41
1
  50
0
  51
0
  71
0
  72
0
  73
2
  1
1.02mm / 0.040" (184 holes)
0
LINE
8
Black
10
41.807
20
-185.799
11
42.95
21
-186.942
0
LINE
8
Black
10
42.95
20
-185.799
11
41.807
21
-186.942
0
LINE
8
Black
10
42.7826
20
-186.774
11
42.7826
21
-185.966
0
LINE
8
Black
10
42.7826
20
-185.966
11
41.9744
21
-185.966
0
LINE
8
Black
10
41.9744
20
-185.966
11
41.9744
21
-186.774
0
LINE
8
Black
10
41.9744
20
-186.774
11
42.7826
21
-186.774
  0
TEXT
  7
KICAD
  8
Black
  10
44.95
  11
44.95
  20
-186.37
  21
-186.37
  40
3
  41
1
  50
0
  51
0
  71
0
  72
0
  73
2
  1
1.14mm / 0.045" (3 holes)
0
LINE
8
Black
10
41.7511
20
-189.731
11
42.95
21
-190.929
0
LINE
8
Black
10
42.95
20
-189.731
11
41.7511
21
-190.929
0
LINE
8
Black
10
42.3506
20
-190.929
11
42.95
21
-190.33
0
LINE
8
Black
10
42.95
20
-190.33
11
42.3506
21
-189.731
0
LINE
8
Black
10
42.3506
20
-189.731
11
41.7511
21
-190.33
0
LINE
8
Black
10
41.7511
20
-190.33
11
42.3506
21
-190.929
  0
TEXT
  7
KICAD
  8
Black
  10
44.95
  11
44.95
  20
-190.33
  21
-190.33
  40
3
  41
1
  50
0
  51
0
  71
0
  72
0
  73
2
  1
1.20mm / 0.047" (12 holes)
0
LINE
8
Black
10
42.35
20
-193.69
11
42.35
21
-194.89
0
LINE
8
Black
10
41.75
20
-194.29
11
42.95
21
-194.29
0
CIRCLE
8
Black
10
42.35
20
-194.29
40
0.6
  0
TEXT
  7
KICAD
  8
Black
  10
44.95
  11
44.95
  20
-194.29
  21
-194.29
  40
3
  41
1
  50
0
  51
0
  71
0
  72
0
  73
2
  1
1.20mm / 0.047" (16 holes)
0
LINE
8
Black
10
42.7599
20
-198.709
11
42.7599
21
-197.791
0
LINE
8
Black
10
42.7599
20
-197.791
11
41.8421
21
-197.791
0
LINE
8
Black
10
41.8421
20
-197.791
11
41.8421
21
-198.709
0
LINE
8
Black
10
41.8421
20
-198.709
11
42.7599
21
-198.709
0
CIRCLE
8
Black
10
42.301
20
-198.25
40
0.64897
  0
TEXT
  7
KICAD
  8
Black
  10
44.95
  11
44.95
  20
-198.25
  21
-198.25
  40
3
  41
1
  50
0
  51
0
  71
0
  72
0
  73
2
  1
1.30mm / 0.051" (2 holes)
0
LINE
8
Black
10
42.2
20
-202.96
11
42.95
21
-202.21
0
LINE
8
Black
10
42.95
20
-202.21
11
42.2
21
-201.46
0
LINE
8
Black
10
42.2
20
-201.46
11
41.45
21
-202.21
0
LINE
8
Black
10
41.45
20
-202.21
11
42.2
21
-202.96
0
CIRCLE
8
Black
10
42.2
20
-202.21
40
0.75
  0
TEXT
  7
KICAD
  8
Black
  10
44.95
  11
44.95
  20
-202.21
  21
-202.21
  40
3
  41
1
  50
0
  51
0
  71
0
  72
0
  73
2
  1
1.50mm / 0.059" (2 holes)
0
LINE
8
Black
10
42.188
20
-205.408
11
42.188
21
-206.932
0
LINE
8
Black
10
41.426
20
-206.17
11
42.95
21
-206.17
0
LINE
8
Black
10
42.7268
20
-206.709
11
42.7268
21
-205.631
0
LINE
8
Black
10
42.7268
20
-205.631
11
41.6492
21
-205.631
0
LINE
8
Black
10
41.6492
20
-205.631
11
41.6492
21
-206.709
0
LINE
8
Black
10
41.6492
20
-206.709
11
42.7268
21
-206.709
  0
TEXT
  7
KICAD
  8
Black
  10
44.95
  11
44.95
  20
-206.17
  21
-206.17
  40
3
  41
1
  50
0
  51
0
  71
0
  72
0
  73
2
  1
1.52mm / 0.060" (20 holes)
0
LINE
8
Black
10
41.7
20
-208.88
11
41.7
21
-211.38
0
LINE
8
Black
10
40.45
20
-210.13
11
42.95
21
-210.13
0
LINE
8
Black
10
41.7
20
-211.38
11
42.95
21
-210.13
0
LINE
8
Black
10
42.95
20
-210.13
11
41.7
21
-208.88
0
LINE
8
Black
10
41.7
20
-208.88
11
40.45
21
-210.13
0
LINE
8
Black
10
40.45
20
-210.13
11
41.7
21
-211.38
  0
TEXT
  7
KICAD
  8
Black
  10
44.95
  11
44.95
  20
-210.13
  21
-210.13
  40
3
  41
1
  50
0
  51
0
  71
0
  72
0
  73
2
  1
2.50mm / 0.098" (4 holes)
0
LINE
8
Black
10
41.4577
20
-215.582
11
42.95
21
-214.09
0
LINE
8
Black
10
42.95
20
-214.09
11
41.4577
21
-212.598
0
LINE
8
Black
10
41.4577
20
-212.598
11
39.9655
21
-214.09
0
LINE
8
Black
10
39.9655
20
-214.09
11
41.4577
21
-215.582
0
LINE
8
Black
10
42.5129
20
-215.145
11
42.5129
21
-213.035
0
LINE
8
Black
10
42.5129
20
-213.035
11
40.4026
21
-213.035
0
LINE
8
Black
10
40.4026
20
-213.035
11
40.4026
21
-215.145
0
LINE
8
Black
10
40.4026
20
-215.145
11
42.5129
21
-215.145
  0
TEXT
  7
KICAD
  8
Black
  10
44.95
  11
44.95
  20
-214.09
  21
-214.09
  40
3
  41
1
  50
0
  51
0
  71
0
  72
0
  73
2
  1
2.98mm / 0.118" (1 hole)
0
LINE
8
Black
10
39.95
20
-216.875
11
42.95
21
-219.875
0
LINE
8
Black
10
42.95
20
-216.875
11
39.95
21
-219.875
0
LINE
8
Black
10
41.45
20
-216.875
11
41.45
21
-219.875
0
LINE
8
Black
10
39.95
20
-218.375
11
42.95
21
-218.375
0
CIRCLE
8
Black
10
41.45
20
-218.375
40
1.5
  0
TEXT
  7
KICAD
  8
Black
  10
44.95
  11
44.95
  20
-218.375
  21
-218.375
  40
3
  41
1
  50
0
  51
0
  71
0
  72
0
  73
2
  1
3.00mm / 0.118" (1 hole)
0
LINE
8
Black
10
39.902
20
-221.151
11
42.95
21
-224.199
0
LINE
8
Black
10
42.95
20
-221.151
11
39.902
21
-224.199
0
LINE
8
Black
10
42.5036
20
-223.752
11
42.5036
21
-221.597
0
LINE
8
Black
10
42.5036
20
-221.597
11
40.3484
21
-221.597
0
LINE
8
Black
10
40.3484
20
-221.597
11
40.3484
21
-223.752
0
LINE
8
Black
10
40.3484
20
-223.752
11
42.5036
21
-223.752
0
CIRCLE
8
Black
10
41.426
20
-222.675
40
1.524
  0
TEXT
  7
KICAD
  8
Black
  10
44.95
  11
44.95
  20
-222.675
  21
-222.675
  40
3
  41
1
  50
0
  51
0
  71
0
  72
0
  73
2
  1
3.05mm / 0.120" (5 holes)
  0
ENDSEC
  0
EOF
