  0
SECTION
  2
HEADER
  9
$ANGBASE
  50
0.0
  9
$ANGDIR
  70
  1
  9
$MEASUREMENT
  70
0
  0
ENDSEC
  0
SECTION
  2
TABLES
  0
TABLE
  2
LTYPE
  70
1
  0
LTYPE
  2
CONTINUOUS
  70
0
  3
Solid line
  72
65
  73
0
  40
0.0
  0
ENDTAB
  0
TABLE
  2
STYLE
  70
4
  0
STYLE
  2
KICAD
  70
0
  40
0
  41
1
  42
1
  50
0
  71
0
  3
isocp.shx
  0
STYLE
  2
KICADB
  70
0
  40
0
  41
1
  42
1
  50
0
  71
0
  3
isocp.shx
  0
STYLE
  2
KICADI
  70
0
  40
0
  41
1
  42
1
  50
15
  71
0
  3
isocp.shx
  0
STYLE
  2
KICADBI
  70
0
  40
0
  41
1
  42
1
  50
15
  71
0
  3
isocp.shx
  0
ENDTAB
  0
TABLE
  2
LAYER
  70
30
  0
LAYER
  2
BLACK
  70
0
  62
7
  6
CONTINUOUS
  0
LAYER
  2
GRAY1
  70
0
  62
251
  6
CONTINUOUS
  0
LAYER
  2
GRAY2
  70
0
  62
8
  6
CONTINUOUS
  0
LAYER
  2
GRAY3
  70
0
  62
9
  6
CONTINUOUS
  0
LAYER
  2
WHITE
  70
0
  62
7
  6
CONTINUOUS
  0
LAYER
  2
LYELLOW
  70
0
  62
51
  6
CONTINUOUS
  0
LAYER
  2
BLUE1
  70
0
  62
178
  6
CONTINUOUS
  0
LAYER
  2
GREEN1
  70
0
  62
98
  6
CONTINUOUS
  0
LAYER
  2
CYAN1
  70
0
  62
138
  6
CONTINUOUS
  0
LAYER
  2
RED1
  70
0
  62
18
  6
CONTINUOUS
  0
LAYER
  2
MAGENTA1
  70
0
  62
228
  6
CONTINUOUS
  0
LAYER
  2
BROWN1
  70
0
  62
58
  6
CONTINUOUS
  0
LAYER
  2
BLUE2
  70
0
  62
5
  6
CONTINUOUS
  0
LAYER
  2
GREEN2
  70
0
  62
3
  6
CONTINUOUS
  0
LAYER
  2
CYAN2
  70
0
  62
4
  6
CONTINUOUS
  0
LAYER
  2
RED2
  70
0
  62
1
  6
CONTINUOUS
  0
LAYER
  2
MAGENTA2
  70
0
  62
6
  6
CONTINUOUS
  0
LAYER
  2
BROWN2
  70
0
  62
54
  6
CONTINUOUS
  0
LAYER
  2
BLUE3
  70
0
  62
171
  6
CONTINUOUS
  0
LAYER
  2
GREEN3
  70
0
  62
91
  6
CONTINUOUS
  0
LAYER
  2
CYAN3
  70
0
  62
131
  6
CONTINUOUS
  0
LAYER
  2
RED3
  70
0
  62
11
  6
CONTINUOUS
  0
LAYER
  2
MAGENTA3
  70
0
  62
221
  6
CONTINUOUS
  0
LAYER
  2
YELLOW3
  70
0
  62
2
  6
CONTINUOUS
  0
LAYER
  2
BLUE4
  70
0
  62
5
  6
CONTINUOUS
  0
LAYER
  2
GREEN4
  70
0
  62
3
  6
CONTINUOUS
  0
LAYER
  2
CYAN4
  70
0
  62
4
  6
CONTINUOUS
  0
LAYER
  2
RED4
  70
0
  62
1
  6
CONTINUOUS
  0
LAYER
  2
MAGENTA4
  70
0
  62
6
  6
CONTINUOUS
  0
LAYER
  2
YELLOW4
  70
0
  62
2
  6
CONTINUOUS
  0
ENDTAB
  0
ENDSEC
  0
SECTION
  2
ENTITIES
0
LINE
8
Black
10
217
20
-149.05
11
220
21
-149.05
0
LINE
8
Black
10
217
20
-148.95
11
220
21
-148.95
0
ARC
8
Black
10
220
20
-149
40
0.05
50
270
51
450
0
ARC
8
Black
10
217
20
-149
40
0.05
50
90
51
270
0
ARC
8
Black
10
46
20
-146
40
3
50
-180
51
-90
0
ARC
8
Black
10
46
20
-27
40
3
50
90
51
180
0
ARC
8
Black
10
220
20
-27
40
3
50
-0
51
90
0
ARC
8
Black
10
220
20
-146
40
3
50
-90
51
-0
0
ARC
8
Black
10
220
20
-146
40
3
50
-90
51
-0
0
LINE
8
Black
10
223.05
20
-146
11
223.05
21
-27
0
LINE
8
Black
10
222.95
20
-146
11
222.95
21
-27
0
ARC
8
Black
10
223
20
-27
40
0.05
50
360
51
540
0
ARC
8
Black
10
223
20
-146
40
0.05
50
180
51
360
0
LINE
8
Black
10
46
20
-24.05
11
220
21
-24.05
0
LINE
8
Black
10
46
20
-23.95
11
220
21
-23.95
0
ARC
8
Black
10
220
20
-24
40
0.05
50
270
51
450
0
ARC
8
Black
10
46
20
-24
40
0.05
50
90
51
270
0
LINE
8
Black
10
43.05
20
-146
11
43.05
21
-27
0
LINE
8
Black
10
42.95
20
-146
11
42.95
21
-27
0
ARC
8
Black
10
43
20
-27
40
0.05
50
360
51
540
0
ARC
8
Black
10
43
20
-146
40
0.05
50
180
51
360
0
LINE
8
Black
10
46
20
-149.05
11
48
21
-149.05
0
LINE
8
Black
10
46
20
-148.95
11
48
21
-148.95
0
ARC
8
Black
10
48
20
-149
40
0.05
50
270
51
450
0
ARC
8
Black
10
46
20
-149
40
0.05
50
90
51
270
0
LINE
8
Black
10
48
20
-149.05
11
217
21
-149.05
0
LINE
8
Black
10
48
20
-148.95
11
217
21
-148.95
0
ARC
8
Black
10
217
20
-149
40
0.05
50
270
51
450
0
ARC
8
Black
10
48
20
-149
40
0.05
50
90
51
270
0
LINE
8
Black
10
50.092
20
-144.492
11
51.108
21
-145.508
0
LINE
8
Black
10
51.108
20
-144.492
11
50.092
21
-145.508
0
LINE
8
Black
10
51.108
20
-145.992
11
51.108
21
-144.008
0
LINE
8
Black
10
50.092
20
-145.992
11
50.092
21
-144.008
0
ARC
8
Black
10
50.6
20
-144.008
40
0.508
50
360
51
540
0
ARC
8
Black
10
50.6
20
-145.992
40
0.508
50
180
51
360
0
LINE
8
Black
10
60.892
20
-144.492
11
61.908
21
-145.508
0
LINE
8
Black
10
61.908
20
-144.492
11
60.892
21
-145.508
0
LINE
8
Black
10
61.908
20
-145.992
11
61.908
21
-144.008
0
LINE
8
Black
10
60.892
20
-145.992
11
60.892
21
-144.008
0
ARC
8
Black
10
61.4
20
-144.008
40
0.508
50
360
51
540
0
ARC
8
Black
10
61.4
20
-145.992
40
0.508
50
180
51
360
  0
TEXT
  7
KICAD
  8
Black
  10
44.95
  11
44.95
  20
-152.35
  21
-152.35
  40
3
  41
1
  50
0
  51
0
  71
0
  72
0
  73
2
  1
Drill Map:
0
LINE
8
Black
10
41.934
20
-158.142
11
42.95
21
-159.158
0
LINE
8
Black
10
42.95
20
-158.142
11
41.934
21
-159.158
  0
TEXT
  7
KICAD
  8
Black
  10
44.95
  11
44.95
  20
-158.65
  21
-158.65
  40
3
  41
1
  50
0
  51
0
  71
0
  72
0
  73
2
  1
1.02mm / 0.040" (0 holes + 2 slots)
  0
ENDSEC
  0
EOF
